{"glyphs":{"0":{"ha":746,"x_min":64,"x_max":706,"o":"m 385 858 q 292 826 335 858 q 216 736 249 793 q 165 603 183 679 q 146 439 146 526 q 165 275 146 351 q 216 142 183 199 q 292 52 249 85 q 385 19 335 19 q 478 52 435 19 q 553 142 521 85 q 605 275 586 199 q 624 439 624 351 q 605 603 624 526 q 553 736 586 679 q 478 826 521 793 q 385 858 435 858 m 64 439 q 89 611 64 531 q 158 752 114 692 q 260 847 201 813 q 385 882 318 882 q 510 847 451 882 q 612 752 568 813 q 681 611 656 692 q 706 439 706 531 q 681 267 706 347 q 612 126 656 186 q 510 32 568 67 q 385 -3 451 -3 q 260 32 318 -3 q 158 126 201 67 q 89 267 114 186 q 64 439 64 347 z "},"1":{"ha":258,"x_min":74,"x_max":203,"o":"m 174 33 q 181 15 174 22 q 200 8 189 8 l 203 8 l 203 0 l 74 0 l 74 8 l 76 8 q 95 15 88 8 q 103 33 103 22 l 103 775 l 75 775 l 75 810 q 95 816 83 810 q 119 832 107 822 q 139 853 131 842 q 147 878 147 865 l 174 878 l 174 33 z "},"2":{"ha":579,"x_min":42,"x_max":539,"o":"m 63 0 q 90 119 64 69 q 156 208 117 168 q 240 282 194 247 q 328 358 286 317 q 401 453 369 400 q 444 583 433 507 q 449 647 449 617 q 434 740 449 701 q 397 802 419 778 q 343 837 374 826 q 282 847 313 847 q 220 838 250 847 q 167 811 190 828 q 128 771 143 794 q 114 721 114 747 l 114 715 q 124 657 115 678 q 142 621 133 636 q 160 592 151 606 q 168 557 168 578 q 156 518 168 535 q 119 501 144 501 q 103 503 108 501 q 57 542 72 510 q 42 618 42 574 q 56 707 42 660 q 101 794 71 754 q 177 859 131 833 q 288 885 224 885 q 399 863 351 885 q 477 804 446 842 q 524 717 508 767 q 539 613 539 668 q 510 479 539 535 q 438 380 482 424 q 340 300 393 336 q 240 226 288 264 q 155 146 192 189 q 106 44 118 103 l 358 44 q 447 61 414 44 q 497 99 479 78 q 525 153 518 122 l 531 151 l 504 0 l 63 0 z "},"3":{"ha":617,"x_min":68,"x_max":568,"o":"m 303 -10 q 194 17 239 -10 q 122 83 150 43 q 81 171 93 124 q 68 261 68 218 q 81 283 69 276 q 107 290 93 290 q 132 283 121 290 q 143 263 143 276 l 143 238 q 147 178 143 215 q 166 106 150 142 q 215 45 182 71 q 307 19 249 19 q 378 40 346 19 q 433 91 410 60 q 469 161 456 122 q 482 238 482 200 q 447 341 482 297 q 333 385 413 385 l 319 385 q 297 394 304 385 q 290 417 290 404 q 297 436 290 428 q 315 444 303 444 l 318 444 q 344 440 332 440 q 397 459 374 440 q 439 508 421 478 q 467 578 457 539 q 476 657 476 617 q 467 728 476 693 q 438 790 458 763 q 386 836 418 818 q 308 857 354 854 l 300 857 q 241 847 269 857 q 190 819 213 836 q 154 776 168 801 q 140 722 140 751 l 140 715 q 151 656 142 678 q 169 619 160 635 q 186 590 178 604 q 194 556 194 576 q 183 515 194 532 q 146 499 171 499 q 129 500 135 499 q 85 538 100 506 q 69 614 69 569 q 84 705 69 657 q 128 794 99 753 q 201 861 157 835 q 307 888 246 888 q 412 868 365 888 q 492 817 458 849 q 543 741 525 785 q 561 650 561 697 q 535 540 561 596 q 453 433 510 483 q 538 350 511 401 q 568 247 565 299 l 568 239 q 551 146 568 190 q 500 67 533 101 q 418 13 467 33 q 307 -10 369 -8 l 303 -10 z "},"4":{"ha":588,"x_min":3,"x_max":556,"o":"m 461 33 q 469 15 461 22 q 488 8 476 8 l 492 8 l 492 0 l 361 0 l 361 8 l 365 8 q 384 15 376 8 q 392 33 392 22 l 392 208 l 3 208 q 136 434 69 321 q 269 660 203 547 l 397 878 l 461 878 l 461 268 l 556 268 l 556 208 l 461 208 l 461 33 m 392 268 l 392 803 l 76 268 l 392 268 z "},"5":{"ha":600,"x_min":40,"x_max":558,"o":"m 139 878 l 476 878 l 503 728 l 485 724 q 463 778 481 753 q 416 816 447 799 q 328 833 385 833 l 169 833 l 146 618 l 172 618 q 326 606 256 618 q 449 558 397 593 q 529 459 500 522 q 558 296 558 396 q 538 178 558 233 q 481 81 517 122 q 397 15 446 39 q 294 -8 349 -8 q 147 43 213 -8 q 51 176 82 94 q 42 207 44 193 q 40 233 40 221 q 53 278 40 264 q 83 293 67 293 q 115 278 100 293 q 131 235 131 264 q 126 207 131 221 q 124 186 124 193 q 135 133 124 161 q 167 79 146 104 q 221 38 189 54 q 294 21 253 21 q 365 42 332 21 q 422 99 397 63 q 460 185 446 135 q 474 292 474 235 q 446 433 474 383 q 368 507 418 483 q 250 535 318 531 q 103 540 182 540 l 103 542 l 139 878 z "},"6":{"ha":669,"x_min":72,"x_max":629,"o":"m 358 14 q 438 38 404 14 q 495 102 472 63 q 530 193 518 142 q 542 297 542 244 q 530 401 542 350 q 495 492 518 453 q 438 556 472 532 q 358 581 404 581 q 287 558 321 581 q 228 498 253 536 q 188 408 203 460 q 174 297 174 356 q 188 188 174 239 q 228 97 203 136 q 287 36 253 58 q 358 14 321 14 m 371 858 q 284 813 324 854 q 215 711 244 771 q 166 583 185 651 q 143 454 147 514 q 238 565 178 524 q 369 607 297 607 q 483 581 435 607 q 565 513 532 556 q 613 416 597 471 q 629 304 629 361 q 613 192 629 247 q 565 94 597 138 q 483 22 532 50 q 369 -8 435 -6 l 357 -8 q 231 26 285 -8 q 142 119 178 61 q 90 253 107 178 q 72 407 72 328 q 94 581 72 494 q 157 736 115 668 q 260 847 199 804 q 404 889 322 889 q 469 877 435 889 q 534 844 504 865 q 583 796 564 824 q 604 738 603 768 l 604 735 q 592 703 604 715 q 557 690 581 690 l 547 690 q 517 717 526 693 q 499 774 507 742 q 479 817 492 800 q 451 843 467 833 q 419 856 436 853 q 386 860 401 860 q 378 859 382 860 q 371 858 374 858 z "},"7":{"ha":472,"x_min":13,"x_max":536,"o":"m 518 878 q 531 871 526 878 q 536 857 536 864 q 529 843 536 846 q 435 766 486 817 q 338 624 383 715 q 260 394 293 533 q 224 54 228 256 l 224 50 q 210 13 224 26 q 178 -1 196 -1 q 147 13 161 -1 q 132 58 132 28 l 132 60 q 153 240 133 139 q 211 444 172 340 q 308 648 250 549 q 449 822 367 747 l 183 822 q 102 803 131 822 q 60 758 74 783 q 43 711 46 733 q 40 683 40 689 l 40 682 l 13 692 l 39 878 l 518 878 z "},"8":{"ha":632,"x_min":63,"x_max":600,"o":"m 63 264 q 76 351 63 308 q 113 428 89 393 q 171 486 138 463 q 246 517 204 510 q 146 603 178 554 q 111 701 114 653 l 111 711 q 130 789 111 756 q 180 844 149 822 q 251 876 211 865 q 332 888 290 888 q 413 876 374 888 q 483 844 451 865 q 533 789 514 822 q 551 711 551 756 l 551 701 q 517 603 549 653 q 417 517 485 554 q 492 485 458 510 q 550 424 526 460 q 587 346 574 389 q 600 258 600 303 l 600 251 q 575 140 599 188 q 513 61 551 93 q 428 13 475 29 q 331 -3 381 -3 q 233 14 281 -3 q 147 63 185 31 q 85 144 108 96 q 63 258 63 193 l 63 264 m 521 271 q 509 355 521 314 q 474 428 497 396 q 417 481 451 461 q 335 500 382 500 l 329 500 q 247 480 282 500 q 188 428 211 460 q 153 354 165 396 q 142 269 142 313 l 142 265 q 158 161 142 206 q 202 87 175 117 q 263 42 229 57 q 332 26 296 26 q 399 41 367 26 q 458 84 432 56 q 501 156 485 113 q 521 256 518 199 l 521 271 m 190 694 q 202 622 190 653 q 233 569 214 590 q 276 538 251 549 q 326 528 301 528 l 336 528 q 386 538 361 528 q 430 569 411 549 q 460 622 449 590 q 472 694 472 653 l 472 701 q 460 774 472 743 q 428 824 447 804 q 383 855 408 844 q 332 865 358 865 q 280 855 306 865 q 235 824 254 844 q 203 774 215 804 q 190 701 190 743 l 190 694 z "},"9":{"ha":653,"x_min":57,"x_max":614,"o":"m 328 865 q 247 841 282 865 q 190 777 213 817 q 156 686 167 738 q 144 582 144 635 q 156 478 144 529 q 190 387 167 426 q 247 323 213 347 q 328 299 282 299 q 399 321 365 299 q 458 381 433 343 q 498 472 483 419 q 513 582 513 524 q 498 692 513 640 q 458 782 483 743 q 399 843 433 821 q 328 865 365 865 m 315 21 q 402 67 363 25 q 472 168 442 108 q 520 297 501 228 q 543 425 539 365 q 449 315 508 356 q 317 274 389 274 q 203 299 251 274 q 122 367 154 325 q 74 464 90 410 q 57 575 57 518 q 74 687 57 632 q 122 785 90 742 q 203 857 154 829 q 317 888 251 885 l 329 888 q 455 853 401 888 q 544 760 508 818 q 597 626 579 701 q 614 472 614 551 q 592 298 614 385 q 529 143 571 211 q 426 33 488 75 q 282 -10 364 -10 q 217 2 251 -10 q 152 35 182 14 q 103 83 122 56 q 82 142 83 111 l 82 144 q 94 176 82 164 q 129 189 106 189 l 139 189 q 169 162 160 186 q 188 106 179 138 q 206 63 193 79 q 234 36 218 46 q 267 23 250 26 q 300 19 285 19 q 308 20 304 19 q 315 21 313 21 z "},"\u0000":{"ha":56,"x_min":0,"x_max":0,"o":""},"\r":{"ha":56,"x_min":0,"x_max":0,"o":""}," ":{"ha":271,"x_min":0,"x_max":0,"o":""},"!":{"ha":236,"x_min":60,"x_max":178,"o":"m 110 161 q 100 457 108 342 q 83 643 92 572 q 67 752 74 714 q 60 818 60 790 l 60 821 q 78 866 60 851 q 119 881 96 881 q 160 866 142 881 q 178 821 178 851 l 178 817 q 171 751 178 789 q 156 642 164 713 q 140 456 147 571 q 131 161 132 342 l 110 161 m 119 118 q 156 101 140 118 q 171 57 171 83 q 156 14 171 32 q 119 -4 140 -4 q 82 14 97 -4 q 67 57 67 32 q 82 101 67 83 q 119 118 97 118 z "},"\"":{"ha":279,"x_min":69,"x_max":210,"o":"m 69 863 q 80 874 69 871 q 101 878 90 878 q 124 874 114 878 q 133 863 133 871 l 133 850 l 114 793 l 88 793 l 69 850 l 69 863 m 147 863 q 157 874 147 871 q 179 878 167 878 q 200 874 190 878 q 210 863 210 871 l 210 850 l 192 793 l 165 793 l 147 850 l 147 863 z "},"#":{"ha":647,"x_min":6,"x_max":649,"o":"m 461 499 l 436 374 l 618 374 l 613 347 l 431 347 l 361 0 l 290 0 l 361 347 l 213 347 l 142 0 l 71 0 l 142 347 l 6 347 l 11 374 l 147 374 l 172 499 l 36 499 l 42 525 l 178 525 l 246 864 l 317 864 l 247 525 l 397 525 l 465 864 l 536 864 l 467 525 l 649 525 l 643 499 l 461 499 m 392 499 l 243 499 l 217 374 l 367 374 l 392 499 z "},"$":{"ha":658,"x_min":39,"x_max":617,"o":"m 343 483 q 442 420 393 451 q 529 355 490 389 q 592 284 568 321 q 617 204 617 247 l 617 197 q 597 121 615 157 q 545 56 578 85 q 468 10 513 28 q 372 -11 424 -7 q 374 -22 374 -17 q 374 -32 374 -28 q 362 -63 374 -53 q 335 -74 350 -74 q 308 -63 319 -74 q 296 -32 296 -53 q 296 -22 296 -26 q 297 -10 296 -17 q 236 1 263 -6 q 188 16 210 8 q 149 29 167 24 q 115 35 132 35 q 101 33 106 35 q 67 17 74 28 q 60 0 60 7 l 39 0 l 79 222 l 99 222 q 115 135 99 172 q 160 72 132 97 q 224 31 188 46 q 300 11 260 17 q 307 61 303 32 q 315 134 311 90 q 324 240 319 178 q 329 389 328 303 q 319 394 324 392 q 310 400 315 397 l 306 403 q 283 417 294 410 q 261 431 272 424 l 263 431 q 185 483 222 457 q 120 539 149 510 q 75 599 92 568 q 58 667 58 631 l 58 672 q 78 749 60 713 q 128 813 97 785 q 203 858 160 840 q 297 881 246 876 q 296 892 296 886 q 296 903 296 897 q 308 933 296 924 q 335 943 319 943 q 362 933 350 943 q 374 903 374 924 q 374 891 374 896 q 372 879 374 886 q 411 872 394 876 q 440 863 428 868 q 457 856 446 860 q 483 847 468 851 q 513 840 497 843 q 542 838 529 838 q 566 842 557 838 q 575 861 575 847 q 572 875 575 864 l 596 875 l 594 660 l 576 660 q 556 743 574 707 q 510 803 539 779 q 446 840 482 826 q 371 858 410 854 q 364 810 368 839 q 356 737 360 781 q 348 631 351 693 q 343 483 344 569 m 306 507 q 317 499 311 503 q 328 493 322 496 q 323 637 326 576 q 315 740 319 697 q 307 812 311 783 q 300 860 303 840 q 231 845 264 856 q 174 818 199 835 q 134 779 149 801 q 118 731 119 757 l 118 725 q 133 664 118 693 q 174 608 149 635 q 234 556 200 581 q 306 506 268 531 l 306 507 m 557 144 q 540 211 557 179 q 492 272 522 243 q 424 328 463 301 q 344 381 386 354 q 349 235 346 296 q 357 130 353 174 q 365 58 361 86 q 371 10 368 29 q 440 23 407 13 q 499 50 474 33 q 540 89 525 67 q 557 139 556 111 l 557 144 z "},"%":{"ha":764,"x_min":33,"x_max":732,"o":"m 600 843 q 578 801 592 824 q 539 733 564 778 q 476 615 514 689 q 382 421 438 540 q 300 223 329 300 q 254 98 271 146 q 230 24 238 50 q 214 -21 222 -3 q 175 -49 201 -49 q 149 -39 160 -49 q 138 -12 138 -29 q 142 7 138 -4 q 164 49 150 25 q 203 117 178 72 q 266 235 228 161 q 360 429 304 310 q 442 627 413 550 q 488 752 471 704 q 512 826 504 800 q 528 871 519 851 q 545 892 535 886 q 567 897 556 897 q 593 888 582 897 q 604 863 604 878 q 600 843 604 853 m 554 489 q 624 469 592 489 q 680 417 656 450 q 718 339 704 383 q 732 244 732 294 q 718 149 732 193 q 680 71 704 104 q 624 18 656 38 q 554 -1 592 -1 q 485 18 518 -1 q 429 71 453 38 q 392 149 406 104 q 378 244 378 193 q 392 339 378 294 q 429 417 406 383 q 485 469 453 450 q 554 489 518 489 m 554 15 q 599 33 578 15 q 635 83 619 51 q 660 156 651 114 q 669 244 669 197 q 660 333 669 292 q 635 405 651 374 q 599 454 619 436 q 554 472 578 472 q 510 454 531 472 q 474 405 489 436 q 449 333 458 374 q 440 244 440 292 q 449 156 440 197 q 474 83 458 114 q 510 33 489 51 q 554 15 531 15 m 388 636 q 374 540 388 585 q 335 463 360 496 q 279 410 311 429 q 211 390 247 390 q 142 410 174 390 q 85 463 110 429 q 47 540 61 496 q 33 636 33 585 q 47 731 33 686 q 85 808 61 775 q 142 861 110 842 q 211 881 174 881 q 279 861 247 881 q 335 808 311 842 q 374 731 360 775 q 388 636 388 686 m 96 636 q 105 547 96 589 q 129 475 114 506 q 166 426 144 444 q 211 408 188 408 q 256 426 235 408 q 292 475 276 444 q 316 547 307 506 q 325 636 325 589 q 316 724 325 683 q 292 797 307 765 q 256 846 276 828 q 211 864 235 864 q 166 846 188 864 q 129 797 144 828 q 105 724 114 765 q 96 636 96 683 z "},"&":{"ha":760,"x_min":19,"x_max":728,"o":"m 592 369 q 588 394 588 383 q 600 430 588 418 q 628 442 613 442 q 663 424 647 442 q 682 371 679 407 l 682 351 q 665 238 682 300 q 606 123 647 176 q 499 33 565 69 q 332 -3 432 -3 l 328 -3 q 194 24 251 -1 q 97 92 136 50 q 39 187 58 133 q 19 296 19 240 q 32 385 19 342 q 71 467 44 429 q 135 535 97 506 q 226 581 174 564 q 175 646 194 611 q 151 717 156 681 q 150 738 150 724 q 200 842 150 803 q 325 885 250 882 l 332 885 q 404 874 374 885 q 455 844 435 863 q 485 801 475 825 q 494 751 494 776 q 478 686 494 718 q 429 631 461 654 l 422 631 q 388 644 399 631 q 378 674 378 658 q 386 693 378 686 q 431 723 417 701 q 444 769 444 744 q 439 801 444 789 q 398 854 425 838 q 340 871 371 871 q 297 863 318 871 q 258 838 275 854 q 230 797 240 821 q 219 743 219 774 l 219 731 q 249 661 222 694 q 335 615 276 628 q 349 609 343 614 q 356 599 356 604 q 336 586 356 590 q 242 550 283 576 q 174 486 201 524 q 131 404 146 449 q 117 314 117 360 l 117 307 q 141 190 118 239 q 200 110 164 142 q 282 65 236 79 q 375 50 328 50 q 465 64 421 50 q 544 103 510 78 q 601 167 579 129 q 622 253 622 204 q 592 369 622 308 m 653 797 q 709 755 690 786 q 728 688 728 724 q 724 656 728 669 q 682 578 714 618 q 607 498 650 539 q 517 417 564 457 q 429 339 469 376 q 363 268 389 301 q 338 208 338 235 q 344 185 338 196 q 347 196 344 188 q 367 223 353 213 q 399 233 381 233 q 406 233 403 233 q 414 231 410 232 q 442 212 432 225 q 453 182 453 199 q 450 165 453 176 q 433 138 444 146 q 408 128 422 131 l 397 128 q 335 160 353 128 q 315 233 318 192 l 315 240 q 344 326 315 283 q 418 413 374 369 q 513 496 463 456 q 608 574 564 536 q 682 644 653 611 q 711 704 711 676 q 692 740 711 725 q 690 736 690 738 q 689 732 690 735 q 669 705 683 715 q 638 694 656 694 q 630 695 633 694 q 622 697 626 696 q 594 716 604 703 q 583 746 583 729 q 586 763 583 751 q 606 790 592 779 q 638 800 619 800 q 645 799 642 800 q 653 797 649 799 z "},"'":{"ha":203,"x_min":69,"x_max":133,"o":"m 69 849 q 80 870 69 864 q 101 876 90 876 q 124 870 114 876 q 133 849 133 864 l 133 824 l 114 718 l 88 718 l 69 824 l 69 849 l 69 849 z "},"(":{"ha":314,"x_min":51,"x_max":356,"o":"m 350 -86 q 356 -94 356 -86 q 351 -99 356 -99 q 235 -59 289 -99 q 140 48 181 -19 q 75 206 99 115 q 51 401 51 297 q 75 595 51 504 q 140 753 99 686 q 235 860 181 821 q 351 900 289 900 q 356 896 356 900 q 350 888 356 890 q 343 890 346 888 q 336 893 340 893 l 335 893 q 254 845 292 886 q 189 738 217 804 q 145 585 161 672 q 129 401 129 499 q 145 217 129 303 q 189 64 161 131 q 254 -44 217 -3 q 335 -92 292 -85 l 336 -92 q 343 -89 340 -92 q 350 -86 346 -86 z "},")":{"ha":311,"x_min":-49,"x_max":256,"o":"m -44 900 q 72 860 18 900 q 167 753 126 821 q 232 595 208 686 q 256 401 256 504 q 232 206 256 297 q 167 48 208 115 q 72 -59 126 -19 q -44 -99 18 -99 q -49 -94 -49 -99 q -43 -86 -49 -86 q -36 -89 -39 -86 q -29 -92 -33 -92 l -28 -92 q 53 -44 15 -85 q 118 64 90 -3 q 162 217 146 131 q 178 401 178 303 q 162 585 178 499 q 118 738 146 672 q 53 845 90 804 q -28 893 15 886 l -29 893 q -36 890 -33 893 q -43 888 -39 888 q -49 896 -49 888 q -44 900 -49 900 z "},"*":{"ha":171,"x_min":-24,"x_max":199,"o":"m 179 778 q 194 771 189 778 q 199 757 199 764 q 194 742 199 749 q 179 735 189 735 l 104 744 l 156 649 q 157 643 157 647 q 149 627 157 633 q 132 621 140 621 q 115 632 119 621 l 88 722 l 60 632 q 43 621 54 621 q 26 627 33 621 q 18 643 18 633 q 19 649 18 647 l 71 744 l -4 735 q -19 742 -14 735 q -24 757 -24 749 q -19 771 -24 764 q -4 778 -14 778 l 78 767 l 67 857 q 74 869 67 865 q 88 874 81 874 q 102 869 96 874 q 108 857 108 865 l 97 767 l 179 778 l 179 778 z "},"+":{"ha":338,"x_min":-37,"x_max":358,"o":"m 358 419 l 358 378 l 183 378 l 183 215 l 139 215 l 139 378 l -37 378 l -37 419 l 139 419 l 139 582 l 183 582 l 183 419 l 358 419 z "},",":{"ha":65,"x_min":-22,"x_max":72,"o":"m 26 119 q 61 93 50 119 q 72 35 72 67 q 59 -33 72 -1 q 22 -64 46 -64 l 21 -64 q 6 -49 6 -61 q 9 -40 6 -44 q 19 -36 13 -36 l 24 -36 q 47 -24 33 -36 q 63 22 60 -11 q 21 0 40 0 q -10 17 1 0 q -22 57 -22 35 q -8 102 -22 85 q 26 119 7 119 z "},"-":{"ha":329,"x_min":-44,"x_max":351,"o":"m -44 369 l -44 411 l 351 411 l 351 369 l -44 369 z "},".":{"ha":65,"x_min":-22,"x_max":82,"o":"m 29 -4 q -7 13 8 -4 q -22 54 -22 31 q -7 95 -22 78 q 29 113 8 113 q 67 95 51 113 q 82 54 82 78 q 67 13 82 31 q 29 -4 51 -4 z "},"/":{"ha":415,"x_min":-22,"x_max":444,"o":"m 368 871 q 385 892 375 886 q 407 897 396 897 q 433 888 422 897 q 444 863 444 878 q 440 843 444 853 q 418 801 432 824 q 379 733 404 778 q 316 615 354 689 q 222 421 278 540 q 140 223 169 300 q 94 98 111 146 q 70 24 78 50 q 54 -21 63 -3 q 15 -49 42 -49 q -11 -39 0 -49 q -22 -12 -22 -29 q -18 7 -22 -4 q 5 49 -10 25 q 44 117 19 72 q 108 235 69 161 q 200 429 146 310 q 283 627 253 550 q 328 752 313 704 q 352 826 344 800 q 368 871 360 851 z "},":":{"ha":161,"x_min":28,"x_max":132,"o":"m 79 361 q 43 379 58 361 q 28 421 28 397 q 43 463 28 446 q 79 481 58 481 q 117 463 101 481 q 132 421 132 446 q 117 379 132 397 q 79 361 101 361 m 79 -1 q 43 16 58 -1 q 28 58 28 33 q 43 101 28 83 q 79 118 58 118 q 117 101 101 118 q 132 58 132 83 q 117 16 132 33 q 79 -1 101 -1 z "},";":{"ha":163,"x_min":29,"x_max":133,"o":"m 81 361 q 44 379 60 361 q 29 421 29 397 q 44 463 29 446 q 81 481 60 481 q 118 463 103 481 q 133 421 133 446 q 118 379 133 397 q 81 361 103 361 m 82 118 q 117 92 106 118 q 128 33 128 65 q 115 -34 128 -3 q 79 -65 103 -65 l 76 -65 q 61 -51 61 -65 q 76 -37 61 -40 l 81 -37 q 103 -25 90 -37 q 118 21 117 -12 q 76 -1 96 -1 q 45 16 57 -1 q 33 56 33 33 q 48 101 33 83 q 82 118 63 118 z "},"<":{"ha":211,"x_min":-42,"x_max":200,"o":"m 29 296 l 185 132 l 164 110 l -42 325 l 150 525 l 200 474 l 29 296 z "},"=":{"ha":393,"x_min":-19,"x_max":376,"o":"m -19 231 l -19 272 l 376 272 l 376 231 l -19 231 m -19 364 l -19 406 l 376 406 l 376 364 l -19 364 z "},">":{"ha":225,"x_min":-1,"x_max":240,"o":"m 240 325 l 33 110 l 13 132 l 169 296 l -1 474 l 49 525 l 240 325 z "},"?":{"ha":553,"x_min":33,"x_max":526,"o":"m 88 665 q 101 613 89 632 q 130 582 114 594 q 160 557 146 569 q 181 524 175 544 q 183 503 183 517 q 172 470 183 483 q 132 456 160 457 l 131 456 q 92 469 110 456 q 61 508 74 483 q 41 563 49 532 q 33 629 33 594 q 47 717 33 672 q 90 798 60 763 q 167 856 119 833 q 285 879 215 879 l 292 879 q 383 863 340 879 q 456 819 425 847 q 506 752 488 792 q 526 663 525 713 l 526 658 q 508 553 526 599 q 462 469 489 507 q 402 397 435 431 q 342 329 369 364 q 297 255 315 294 q 278 165 278 215 l 278 163 l 246 163 l 246 176 q 256 270 246 229 q 282 344 267 311 q 315 406 297 378 q 350 463 333 435 q 410 592 392 535 q 428 694 428 650 q 415 767 428 736 q 379 817 401 797 q 329 847 357 838 q 271 857 301 857 q 205 845 238 857 q 146 810 172 833 q 103 753 119 788 q 88 676 88 719 l 88 665 m 257 -3 q 221 15 236 -3 q 206 58 206 32 q 221 101 206 83 q 257 119 236 119 q 294 101 279 119 q 310 58 310 83 q 294 15 310 32 q 257 -3 279 -3 z "},"@":{"ha":914,"x_min":42,"x_max":867,"o":"m 753 61 q 688 33 719 33 q 638 60 657 33 q 619 131 619 86 l 619 165 q 583 120 601 142 q 541 82 565 99 q 483 55 517 65 q 403 43 450 44 l 396 43 q 314 58 350 43 q 252 99 278 74 q 213 156 226 124 q 200 222 200 189 q 212 283 200 253 q 248 338 224 313 q 310 380 272 363 q 401 404 349 397 q 455 408 428 407 q 510 410 482 410 q 565 409 538 410 q 619 408 593 408 l 619 474 q 608 556 619 522 q 578 610 597 589 q 536 640 560 631 q 488 650 513 650 q 442 642 464 650 q 403 622 421 635 q 373 590 385 608 q 360 550 361 572 q 342 499 357 511 q 308 483 326 486 l 304 483 q 264 496 279 483 q 249 532 249 508 l 249 535 q 269 594 250 568 q 320 636 289 619 q 391 662 351 653 q 472 671 431 671 q 551 662 513 671 q 621 634 590 653 q 670 588 651 615 q 689 521 689 560 l 689 140 q 690 113 689 126 q 693 89 690 99 q 708 72 699 72 q 723 83 715 72 q 736 100 731 93 q 804 234 781 158 q 828 394 828 310 q 799 569 828 488 q 719 711 769 650 q 600 808 668 772 q 454 843 532 843 q 308 808 376 843 q 189 711 240 772 q 108 569 138 650 q 79 394 79 488 q 108 219 79 301 q 189 76 138 138 q 308 -20 240 15 q 454 -56 376 -56 q 567 -35 514 -56 q 667 24 621 -14 l 699 4 q 585 -65 646 -40 q 454 -89 524 -89 q 293 -51 368 -89 q 163 52 218 -14 q 74 206 107 118 q 42 394 42 294 q 74 583 42 494 q 163 736 107 671 q 293 840 218 801 q 454 878 368 878 q 615 840 539 878 q 746 736 690 801 q 834 583 801 671 q 867 394 867 494 q 836 213 867 297 q 753 61 806 128 m 428 71 q 505 99 469 72 q 566 166 540 125 q 606 258 592 207 q 621 358 621 308 q 620 369 621 364 q 619 381 619 375 q 571 383 596 382 q 522 383 546 383 q 470 382 496 383 q 421 376 444 381 q 357 356 383 371 q 314 321 331 342 q 289 276 297 300 q 281 226 281 251 q 290 169 281 197 q 319 119 300 142 q 364 84 338 97 q 422 71 390 71 l 428 71 z "},"A":{"ha":722,"x_min":-25,"x_max":746,"o":"m 746 10 l 746 0 l 579 0 l 579 10 l 585 10 q 611 28 611 10 q 610 35 611 32 l 493 357 l 176 357 l 63 36 q 61 28 61 33 q 72 13 61 17 q 93 10 82 10 l 93 0 l -25 0 l -25 10 q 5 15 -10 10 q 25 35 19 19 l 147 379 l 147 385 l 150 385 l 301 814 q 308 842 308 835 q 299 858 308 854 q 271 863 290 863 l 269 878 l 390 878 l 694 35 q 711 17 699 24 q 738 10 724 10 l 746 10 m 483 385 l 333 800 l 186 385 l 483 385 z "},"B":{"ha":808,"x_min":61,"x_max":767,"o":"m 535 546 q 638 507 594 533 q 710 444 682 481 q 753 366 739 408 q 767 279 767 324 l 767 264 q 743 166 764 214 q 685 81 722 118 q 594 22 647 44 q 471 0 540 0 l 61 0 l 61 10 q 82 16 74 10 q 90 35 90 22 l 90 844 q 83 863 90 856 q 64 869 75 869 l 61 869 l 61 878 l 464 878 q 543 863 508 878 q 601 823 578 847 q 638 767 625 799 q 650 703 650 736 l 650 690 q 618 606 646 646 q 535 546 590 567 m 161 397 q 228 474 188 442 q 313 531 268 506 q 404 576 358 556 q 487 621 450 597 q 547 674 524 644 q 569 743 569 703 q 526 819 569 789 q 411 850 483 850 l 161 850 l 161 397 m 414 28 q 528 51 479 28 q 610 110 578 74 q 659 194 643 147 q 675 290 675 242 q 674 294 675 293 q 674 299 674 296 q 657 381 672 340 q 615 455 642 422 q 549 508 588 488 q 463 529 510 528 l 454 529 q 354 513 400 529 q 271 470 308 496 q 206 412 233 444 q 161 347 178 379 l 161 28 l 414 28 z "},"C":{"ha":788,"x_min":18,"x_max":767,"o":"m 732 294 q 749 308 736 308 q 767 293 767 308 l 767 290 q 717 166 747 222 q 644 69 688 110 q 540 7 600 29 q 403 -15 481 -15 q 253 20 324 -15 q 131 117 183 56 q 49 260 79 178 q 18 435 18 342 q 49 610 18 528 q 131 753 79 692 q 253 849 183 814 q 403 885 324 885 q 508 870 456 885 q 602 826 560 856 q 674 756 644 797 q 713 660 704 714 q 713 655 713 657 q 714 650 714 653 q 696 613 714 626 q 658 599 678 599 q 626 611 640 599 q 611 651 611 624 q 594 734 611 696 q 546 800 576 772 q 474 843 515 828 q 385 858 433 858 q 370 858 378 858 q 356 857 363 858 q 263 820 307 853 q 185 735 218 788 q 132 613 151 682 q 113 467 113 544 q 113 436 113 451 q 115 406 113 421 q 153 251 125 322 q 223 128 181 181 q 319 47 265 76 q 432 18 372 18 q 442 18 438 18 q 454 19 447 18 q 545 46 501 24 q 625 104 589 68 q 689 188 661 140 q 732 294 717 236 z "},"D":{"ha":797,"x_min":61,"x_max":744,"o":"m 744 443 q 723 281 744 360 q 658 139 701 201 q 549 38 614 76 q 397 0 485 0 l 61 0 l 61 10 l 64 10 q 90 33 90 10 l 90 844 q 83 863 90 856 q 64 869 75 869 l 61 869 l 61 878 l 400 878 q 549 841 485 878 q 657 744 614 804 q 722 606 700 683 q 744 447 743 528 l 744 443 m 365 28 q 497 63 442 28 q 589 156 553 99 q 642 288 625 214 q 660 439 660 361 l 660 443 q 642 592 660 519 q 588 722 624 665 q 496 815 551 779 q 365 850 440 850 l 188 850 q 169 843 176 850 q 161 825 161 836 l 161 53 q 169 35 161 42 q 188 28 176 28 l 365 28 z "},"E":{"ha":600,"x_min":61,"x_max":582,"o":"m 582 94 l 556 0 l 61 0 l 61 10 l 64 10 q 90 33 90 10 l 90 844 q 83 863 90 856 q 64 869 75 869 l 61 869 l 61 878 l 546 878 l 578 783 l 571 782 q 538 815 563 800 q 476 839 517 828 q 367 850 435 850 l 161 850 l 161 474 l 342 474 q 379 485 360 474 q 399 513 399 496 l 399 532 l 414 532 l 414 386 l 399 388 l 399 404 q 379 433 399 421 q 342 446 360 446 l 161 446 l 161 28 l 411 28 q 499 38 467 28 q 549 61 531 49 q 576 96 568 76 l 582 94 z "},"F":{"ha":533,"x_min":61,"x_max":579,"o":"m 579 783 l 572 782 q 539 815 564 800 q 477 839 518 828 q 368 850 436 850 l 161 850 l 161 474 l 342 474 q 379 485 360 474 q 399 513 399 496 l 399 532 l 417 532 l 417 386 l 399 388 l 399 404 q 379 433 399 421 q 342 446 360 446 l 161 446 l 161 33 q 188 10 161 10 l 190 10 l 190 0 l 61 0 l 61 10 l 64 10 q 90 33 90 10 l 90 844 q 83 863 90 856 q 64 869 75 869 l 61 869 l 61 878 l 547 878 l 579 783 z "},"G":{"ha":897,"x_min":17,"x_max":851,"o":"m 851 10 l 851 0 l 722 0 l 722 10 l 725 10 q 744 16 736 10 q 753 33 753 22 l 753 182 q 611 42 697 93 q 421 -10 525 -10 q 253 28 328 -10 q 127 128 179 67 q 47 268 75 190 q 17 425 18 346 l 17 435 q 44 600 17 519 q 126 744 72 681 q 257 846 179 807 q 435 885 335 885 q 550 870 493 885 q 653 826 607 856 q 733 756 700 797 q 775 660 765 714 q 776 650 776 656 q 758 613 776 626 q 717 599 739 599 q 681 611 697 599 q 664 651 665 624 q 644 734 664 696 q 592 800 625 772 q 513 843 558 828 q 415 858 468 858 q 401 858 408 858 q 385 857 393 858 q 278 818 331 851 q 185 731 225 785 q 119 608 144 678 q 94 458 94 538 q 94 442 94 450 q 96 426 94 435 q 126 289 101 361 q 196 156 151 217 q 302 56 240 96 q 442 17 364 17 q 455 17 449 17 q 468 18 461 17 q 578 55 528 24 q 666 138 629 86 q 723 256 703 189 q 743 399 743 322 l 743 417 l 613 417 l 613 451 l 822 451 l 822 33 q 830 16 822 22 q 849 10 838 10 l 851 10 z "},"H":{"ha":828,"x_min":61,"x_max":761,"o":"m 732 33 q 758 10 732 10 l 761 10 l 761 0 l 632 0 l 632 10 l 635 10 q 661 33 661 10 l 661 358 l 161 358 l 161 33 q 188 10 161 10 l 190 10 l 190 0 l 61 0 l 61 10 l 64 10 q 90 33 90 10 l 90 844 q 83 863 90 856 q 64 869 75 869 l 61 869 l 61 878 l 190 878 l 190 869 l 188 869 q 169 863 176 869 q 161 844 161 856 l 161 386 l 661 386 l 661 844 q 653 863 661 856 q 635 869 646 869 l 632 869 l 632 878 l 761 878 l 761 869 l 758 869 q 740 863 747 869 q 732 844 732 856 l 732 33 z "},"I":{"ha":258,"x_min":61,"x_max":190,"o":"m 161 33 q 188 10 161 10 l 190 10 l 190 0 l 61 0 l 61 10 l 64 10 q 90 33 90 10 l 90 844 q 83 863 90 856 q 64 869 75 869 l 61 869 l 61 878 l 190 878 l 190 869 l 188 869 q 169 863 176 869 q 161 844 161 856 l 161 33 z "},"J":{"ha":638,"x_min":-17,"x_max":574,"o":"m 574 878 l 574 869 l 571 869 q 552 863 560 869 q 544 844 544 856 l 544 254 q 521 142 544 190 q 459 63 497 94 q 372 14 421 31 q 271 -3 322 -3 l 265 -3 q 142 22 194 -3 q 53 82 89 46 q 1 158 18 118 q -17 232 -17 199 q -4 278 -17 260 q 32 297 8 296 l 35 297 q 64 285 51 297 q 76 242 76 272 q 76 227 76 235 q 74 211 76 219 q 72 195 72 203 q 71 179 71 188 q 88 112 71 142 q 132 63 104 82 q 196 33 160 43 q 269 22 232 22 l 272 22 q 347 35 310 24 q 412 70 383 47 q 458 128 440 93 q 475 210 475 163 q 474 527 475 369 q 474 844 474 685 q 466 863 474 856 q 447 869 458 869 l 444 869 l 444 878 l 574 878 z "},"K":{"ha":731,"x_min":58,"x_max":750,"o":"m 750 10 l 750 0 l 518 0 l 518 10 l 546 10 q 572 36 572 10 q 567 60 572 49 l 389 410 l 149 0 l 88 0 l 88 844 q 80 863 88 856 q 61 869 72 869 l 58 869 l 58 878 l 188 878 l 188 869 l 185 869 q 166 863 174 869 q 158 844 158 856 l 158 75 l 600 829 q 601 836 601 831 q 593 858 601 846 q 568 869 585 869 l 568 878 l 721 878 l 721 869 q 667 854 694 868 q 629 822 640 840 l 431 482 l 646 61 q 674 26 657 42 q 721 10 690 10 l 750 10 z "},"L":{"ha":569,"x_min":61,"x_max":582,"o":"m 582 94 l 556 0 l 61 0 l 61 10 l 64 10 q 90 33 90 10 l 90 844 q 83 863 90 856 q 64 869 75 869 l 61 869 l 61 878 l 190 878 l 190 869 l 188 869 q 169 863 176 869 q 161 844 161 856 l 161 28 l 411 28 q 499 38 467 28 q 549 61 531 49 q 576 96 568 76 l 582 94 z "},"M":{"ha":908,"x_min":61,"x_max":839,"o":"m 836 869 q 817 863 825 869 q 810 844 810 856 l 810 33 q 836 10 810 10 l 839 10 l 839 0 l 710 0 l 710 10 l 713 10 q 739 33 739 10 l 739 788 l 476 33 l 414 33 l 125 786 l 125 33 q 151 10 125 10 l 154 10 l 154 0 l 61 0 l 61 10 l 64 10 q 90 33 90 10 l 90 844 q 83 863 90 856 q 64 869 75 869 l 61 869 l 61 878 l 169 878 l 464 113 l 735 878 l 839 878 l 839 869 l 836 869 l 836 869 z "},"N":{"ha":786,"x_min":61,"x_max":721,"o":"m 721 878 l 721 869 l 718 869 q 699 863 707 869 q 692 844 692 856 l 692 0 l 644 0 l 125 806 l 125 33 q 151 10 125 10 l 154 10 l 154 0 l 61 0 l 61 10 l 64 10 q 90 33 90 10 l 90 844 q 83 863 90 856 q 64 869 75 869 l 61 869 l 61 878 l 169 878 l 657 132 l 657 844 q 649 863 657 856 q 631 869 642 869 l 628 869 l 628 878 l 721 878 z "},"O":{"ha":871,"x_min":19,"x_max":825,"o":"m 422 885 q 579 849 506 885 q 707 753 653 814 q 793 610 761 692 q 825 435 825 528 q 793 260 825 342 q 707 117 761 178 q 579 20 653 56 q 422 -15 506 -15 q 265 20 339 -15 q 138 117 192 56 q 51 260 83 178 q 19 435 19 342 q 51 610 19 528 q 138 753 83 692 q 265 849 192 814 q 422 885 339 885 m 471 25 q 581 63 531 31 q 669 145 632 94 q 726 262 706 196 q 747 403 747 328 q 743 464 747 432 q 702 615 733 544 q 624 737 671 685 q 518 818 576 789 q 396 847 460 847 q 385 847 390 847 q 374 846 379 846 q 263 808 314 840 q 176 726 213 776 q 118 608 139 675 q 97 467 97 542 q 101 406 97 436 q 142 254 111 324 q 220 133 174 185 q 325 53 267 82 q 447 24 383 24 q 458 24 453 24 q 471 25 464 24 z "},"P":{"ha":724,"x_min":61,"x_max":689,"o":"m 410 878 q 532 855 479 878 q 619 794 585 832 q 672 707 654 756 q 689 607 689 658 q 672 508 689 557 q 619 422 654 460 q 532 360 585 383 q 410 336 479 336 l 161 336 l 161 33 q 188 10 161 10 l 190 10 l 190 0 l 61 0 l 61 10 l 64 10 q 90 33 90 10 l 90 844 q 83 863 90 856 q 64 869 75 869 l 61 869 l 61 878 l 410 878 m 367 356 q 472 377 426 356 q 547 434 517 399 q 592 515 576 469 q 607 607 607 560 q 592 699 607 654 q 547 780 576 744 q 472 837 517 815 q 367 858 426 858 l 165 858 l 161 844 l 161 356 l 367 356 z "},"Q":{"ha":883,"x_min":18,"x_max":833,"o":"m 800 -54 q 817 -42 801 -42 q 828 -45 824 -42 q 833 -54 833 -49 q 813 -129 833 -94 q 758 -191 792 -164 q 683 -234 725 -218 q 601 -251 642 -250 l 596 -251 q 528 -240 561 -251 q 464 -212 494 -229 q 404 -174 433 -194 q 349 -132 375 -153 q 334 -119 342 -125 q 319 -108 326 -114 q 281 -119 304 -112 q 236 -126 258 -126 q 206 -119 218 -126 q 193 -89 193 -111 q 209 -59 194 -68 q 246 -50 224 -50 q 289 -58 267 -50 q 326 -76 311 -65 q 397 -49 358 -65 q 475 -11 435 -32 q 421 -15 447 -15 q 264 20 338 -15 q 136 117 190 56 q 50 260 82 178 q 18 435 18 342 q 50 610 18 528 q 136 753 82 692 q 264 849 190 814 q 421 885 338 885 q 578 849 504 885 q 706 753 651 814 q 792 610 760 692 q 824 435 824 528 q 788 247 824 331 q 689 99 751 164 q 541 -14 626 35 q 356 -97 456 -62 q 460 -144 394 -128 q 593 -160 526 -160 q 671 -153 633 -160 q 737 -135 708 -147 q 783 -102 765 -122 q 800 -54 800 -82 m 469 22 q 551 44 514 26 q 632 107 596 74 q 690 178 668 140 q 731 282 717 225 q 746 403 746 339 q 742 464 746 432 q 701 617 732 546 q 622 740 669 688 q 517 821 575 792 q 394 850 458 850 q 383 849 389 850 q 372 849 378 849 q 262 811 313 843 q 174 728 211 779 q 117 609 138 676 q 96 467 96 542 q 100 406 96 436 q 141 253 110 324 q 219 131 172 183 q 325 50 267 79 q 446 21 383 21 q 458 21 453 21 q 469 22 463 21 z "},"R":{"ha":742,"x_min":61,"x_max":689,"o":"m 658 111 q 669 117 664 117 q 681 111 676 117 q 686 100 686 106 q 685 94 686 96 q 655 47 672 65 q 619 18 638 29 q 580 3 600 7 q 542 -1 560 -1 l 539 -1 q 442 31 489 -1 q 354 113 394 63 q 283 222 314 163 q 236 336 253 282 l 161 336 l 161 33 q 188 10 161 10 l 190 10 l 190 0 l 61 0 l 61 10 l 64 10 q 90 33 90 10 l 90 844 q 83 863 90 856 q 64 869 75 869 l 61 869 l 61 878 l 410 878 q 532 855 479 878 q 619 794 585 832 q 672 707 654 756 q 689 607 689 658 q 672 508 689 557 q 619 422 654 460 q 532 360 585 383 q 410 336 479 336 l 269 336 q 324 244 289 293 q 401 153 358 196 q 494 82 444 111 q 593 51 543 53 l 596 51 q 633 66 619 51 q 658 111 647 81 m 161 356 l 367 356 q 472 377 426 356 q 547 434 517 399 q 592 515 576 469 q 607 607 607 560 q 592 699 607 654 q 547 780 576 744 q 472 837 517 815 q 367 858 426 858 l 165 858 l 161 844 l 161 356 z "},"S":{"ha":665,"x_min":38,"x_max":615,"o":"m 317 500 q 422 433 368 467 q 518 365 475 400 q 588 289 561 329 q 615 203 615 249 l 615 197 q 594 118 614 156 q 539 53 574 81 q 458 8 504 25 q 356 -11 411 -10 l 346 -11 q 264 -4 299 -11 q 203 12 229 3 q 156 28 176 21 q 115 35 135 35 q 100 33 106 35 q 65 19 72 29 q 58 1 58 8 l 38 1 l 78 224 l 97 224 l 97 222 q 118 125 97 165 q 174 59 139 85 q 252 22 208 33 q 340 10 296 10 q 419 19 381 10 q 488 45 457 28 q 536 87 518 63 q 556 140 554 111 l 556 146 q 528 228 556 189 q 459 301 500 268 q 372 363 418 335 q 290 413 326 390 q 215 460 256 433 q 139 520 174 488 q 81 590 104 553 q 57 667 57 626 l 57 674 q 78 753 58 715 q 133 819 99 790 q 215 864 168 847 q 317 882 261 881 l 329 882 q 394 876 369 882 q 439 864 419 871 q 456 857 444 861 q 481 849 467 853 q 512 842 496 844 q 540 839 528 839 q 565 844 556 839 q 574 861 574 849 q 571 876 574 865 l 594 876 l 593 661 l 575 661 q 551 753 572 715 q 495 816 529 792 q 418 851 461 840 q 332 863 375 863 q 253 853 292 863 q 185 827 215 844 q 136 785 154 810 q 117 732 118 761 l 117 725 q 137 653 117 686 q 187 593 157 621 q 251 542 217 565 q 317 500 286 519 z "},"T":{"ha":504,"x_min":22,"x_max":533,"o":"m 533 878 l 532 772 l 514 772 q 506 815 513 799 q 487 838 499 831 q 461 848 475 846 q 431 850 447 850 l 311 850 l 311 33 q 319 16 311 22 q 338 10 326 10 l 340 10 l 340 0 l 211 0 l 211 10 l 214 10 q 240 33 240 10 l 240 850 l 125 850 q 94 848 108 850 q 69 838 81 846 q 50 815 57 831 q 42 772 43 799 l 24 772 l 22 878 l 533 878 z "},"U":{"ha":788,"x_min":58,"x_max":731,"o":"m 731 878 l 731 869 l 728 869 q 709 863 717 869 q 701 844 701 856 l 701 288 q 675 166 701 222 q 606 69 649 110 q 508 6 563 29 q 396 -17 453 -17 l 393 -17 q 281 6 336 -17 q 183 70 226 29 q 115 167 140 111 q 89 288 89 222 l 89 560 l 88 560 l 88 844 q 80 863 88 856 q 61 869 72 869 l 58 869 l 58 878 l 188 878 l 188 869 l 185 869 q 166 863 174 869 q 158 844 158 856 l 158 260 q 178 166 158 210 q 229 90 197 122 q 303 38 261 57 q 390 18 346 18 l 393 18 q 491 39 443 18 q 578 96 539 60 q 640 181 617 132 q 664 285 664 229 l 664 844 q 656 863 664 856 q 638 869 649 869 l 635 869 l 635 878 l 731 878 z "},"V":{"ha":717,"x_min":-3,"x_max":714,"o":"m 615 846 q 631 882 615 869 q 667 894 647 894 q 699 883 685 894 q 714 847 714 871 l 714 842 q 707 806 713 826 q 689 757 701 785 q 674 717 682 738 q 660 676 667 696 q 539 338 600 510 q 419 0 478 165 l 351 0 l 47 842 q 32 860 44 853 q 4 868 19 868 l -3 868 l -3 878 l 164 878 l 164 868 l 158 868 q 132 849 132 868 q 133 842 132 844 l 410 75 l 624 675 q 633 744 633 715 q 625 800 633 781 q 615 839 617 819 l 615 846 z "},"W":{"ha":1139,"x_min":-3,"x_max":1136,"o":"m 1038 847 q 1054 884 1038 871 q 1090 897 1071 897 q 1122 885 1108 897 q 1136 850 1136 874 l 1136 844 q 1129 808 1135 829 q 1111 758 1124 786 q 1097 719 1104 739 q 1082 678 1089 699 q 961 339 1022 513 q 842 0 900 165 l 774 0 l 594 496 q 506 247 550 371 q 419 0 461 122 l 351 0 l 47 842 q 32 860 44 853 q 4 868 19 868 l -3 868 l -3 878 l 164 878 l 164 868 l 158 868 q 132 849 132 868 q 133 842 132 844 q 272 459 204 650 q 410 75 340 268 l 576 546 l 469 842 q 454 860 467 853 q 426 868 442 868 l 419 868 l 419 878 l 586 878 l 586 868 l 581 868 q 554 849 554 868 q 556 842 554 844 l 811 135 l 832 75 l 1046 678 q 1056 747 1056 717 q 1047 801 1056 782 q 1038 840 1039 821 l 1038 847 z "},"X":{"ha":699,"x_min":13,"x_max":718,"o":"m 718 10 l 718 0 l 564 0 l 564 10 l 568 10 q 583 21 583 10 q 578 33 583 25 l 340 404 l 103 33 q 99 21 99 26 q 114 8 99 8 l 117 8 l 117 0 l 13 0 l 13 10 l 22 10 q 45 16 33 10 q 64 33 57 22 l 139 150 l 321 436 l 60 844 q 40 863 53 856 q 17 869 28 869 l 13 869 l 13 878 l 163 878 l 163 869 l 160 869 q 144 857 144 869 q 149 844 144 850 l 365 506 l 582 844 q 588 857 588 853 q 572 869 588 869 l 568 869 l 568 878 l 669 878 l 669 868 l 664 868 q 641 861 653 868 q 622 844 629 854 l 385 474 l 667 33 q 710 10 683 10 l 718 10 z "},"Y":{"ha":578,"x_min":-18,"x_max":640,"o":"m 640 869 l 636 869 q 613 863 625 869 q 593 844 600 856 l 356 474 l 346 460 l 346 33 q 353 16 346 22 q 372 10 361 10 l 375 10 l 375 0 l 246 0 l 246 10 l 250 10 q 269 16 261 10 q 276 33 276 22 l 276 458 l 29 844 q 10 863 22 856 q -14 869 -3 869 l -18 869 l -18 878 l 132 878 l 132 869 l 129 869 q 114 857 114 869 q 118 844 114 850 l 336 504 l 554 844 q 558 857 558 850 q 543 869 558 869 l 540 869 l 540 878 l 640 878 l 640 869 z "},"Z":{"ha":578,"x_min":13,"x_max":579,"o":"m 13 0 l 490 850 l 226 850 q 138 839 171 850 q 89 815 106 828 q 61 782 68 800 l 56 783 l 82 878 l 579 878 l 101 28 l 392 28 q 480 38 447 28 q 531 61 513 49 q 558 96 551 76 l 563 94 l 538 0 l 13 0 z "},"[":{"ha":264,"x_min":0,"x_max":208,"o":"m 58 869 l 58 -74 l 208 -74 l 208 -100 l 0 -100 l 0 897 l 208 897 l 208 869 l 58 869 z "},"\\":{"ha":522,"x_min":19,"x_max":486,"o":"m 482 7 q 486 -12 486 -4 q 475 -39 486 -29 q 449 -49 464 -49 q 427 -42 438 -49 q 410 -21 417 -36 q 394 24 401 -3 q 370 98 386 50 q 324 223 354 146 q 242 421 294 300 q 149 615 188 540 q 86 733 111 689 q 47 801 61 778 q 24 843 32 824 q 19 863 19 853 q 31 888 19 878 q 57 897 42 897 q 78 892 68 897 q 96 871 89 886 q 112 826 104 851 q 136 752 119 800 q 183 627 153 704 q 265 429 213 550 q 358 235 319 310 q 421 117 396 161 q 460 49 446 72 q 482 7 474 25 z "},"]":{"ha":264,"x_min":0,"x_max":208,"o":"m 208 897 l 208 -100 l 0 -100 l 0 -74 l 149 -74 l 149 869 l 0 869 l 0 897 l 208 897 z "},"^":{"ha":378,"x_min":0,"x_max":322,"o":"m 322 585 l 306 557 l 179 764 l 40 538 l 0 603 l 156 857 l 322 585 z "},"_":{"ha":528,"x_min":0,"x_max":472,"o":"m 0 -64 l 0 -24 l 472 -24 l 472 -64 l 0 -64 z "},"`":{"ha":307,"x_min":0,"x_max":251,"o":"m 232 754 q 240 757 235 757 q 249 751 246 757 q 251 738 251 744 q 251 733 251 735 q 250 731 250 732 q 235 708 246 718 q 199 699 224 699 l 190 699 q 125 719 158 700 q 65 762 92 739 q 22 803 39 785 q 3 824 4 822 q 0 831 0 826 q 7 838 0 838 q 9 837 8 838 q 13 836 10 836 q 33 822 13 836 q 84 792 54 808 q 147 761 114 775 q 206 747 181 747 q 232 754 221 747 z "},"a":{"ha":597,"x_min":25,"x_max":572,"o":"m 221 -11 q 139 6 175 -11 q 77 49 103 22 q 38 111 51 76 q 25 182 25 146 q 37 247 25 215 q 74 306 49 279 q 137 353 99 333 q 228 379 175 372 q 282 385 254 383 q 338 386 310 386 l 446 383 q 446 408 446 400 q 447 422 446 415 q 447 435 447 428 q 447 457 447 443 q 436 544 447 508 q 406 603 425 581 q 364 635 388 625 q 315 646 340 646 q 229 615 268 646 q 186 538 190 585 q 168 482 183 496 q 135 467 153 468 l 128 467 q 90 481 104 467 q 75 518 75 494 l 75 521 q 97 581 76 553 q 151 628 118 608 q 224 660 183 649 q 307 672 265 672 q 385 660 347 672 q 451 622 422 649 q 499 552 481 594 q 517 447 517 510 l 517 85 q 520 40 517 61 q 542 19 524 19 l 543 19 q 558 49 554 22 q 565 53 558 53 q 572 47 572 53 l 572 46 q 547 3 565 14 q 508 -8 529 -8 q 477 1 489 -8 q 458 24 465 11 q 449 53 451 38 q 446 83 446 69 l 446 119 q 410 71 428 94 q 367 30 392 47 q 310 1 343 13 q 229 -11 276 -10 l 221 -11 m 254 18 q 331 48 296 19 q 392 121 367 76 q 433 220 418 165 q 447 329 447 275 l 446 354 q 398 356 422 356 q 350 357 374 357 q 297 356 322 357 q 249 350 272 354 q 142 290 175 338 q 108 186 108 242 q 118 124 108 154 q 147 71 128 94 q 191 33 165 47 q 250 18 217 18 l 254 18 z "},"b":{"ha":654,"x_min":32,"x_max":614,"o":"m 346 -10 q 189 46 260 -10 q 160 58 175 58 q 131 40 140 58 q 119 1 121 21 l 85 1 l 85 422 l 82 810 q 77 838 82 825 q 50 851 72 851 l 32 851 l 32 868 q 60 873 50 871 q 76 876 69 875 q 91 877 83 876 q 111 878 99 878 q 149 851 149 878 l 151 571 q 241 643 190 619 q 344 667 292 667 q 443 645 394 667 q 530 581 492 624 q 591 474 568 538 q 614 325 614 410 q 591 178 614 242 q 531 74 568 115 q 444 11 493 32 q 346 -10 396 -10 m 343 7 q 416 26 381 7 q 479 84 451 44 q 524 184 507 124 q 540 326 540 244 q 524 467 540 407 q 480 569 507 528 q 419 631 453 610 q 349 651 385 651 l 344 651 q 260 623 296 651 q 199 549 224 594 q 163 444 175 503 q 150 325 150 386 q 162 208 150 265 q 198 107 174 151 q 258 35 222 63 q 343 7 294 7 z "},"c":{"ha":589,"x_min":36,"x_max":574,"o":"m 325 -10 q 213 17 265 -10 q 121 89 160 43 q 59 197 82 135 q 36 328 36 258 q 57 453 36 393 q 117 561 78 514 q 214 638 157 608 q 344 669 271 667 l 358 669 q 451 656 407 669 q 529 610 494 642 q 558 551 558 582 q 546 516 558 532 q 513 496 533 500 l 506 496 q 483 507 492 496 q 467 535 475 518 q 451 571 460 551 q 430 608 443 590 q 396 637 417 625 q 344 650 375 649 l 329 650 q 227 624 268 650 q 160 557 186 599 q 124 464 135 515 q 113 363 113 413 q 117 300 113 329 q 147 192 125 242 q 200 104 168 142 q 270 45 232 67 q 350 22 308 24 l 353 22 q 455 56 403 22 q 543 161 507 89 q 554 168 546 168 q 567 164 561 168 q 574 154 574 160 l 574 153 q 463 27 522 64 q 325 -10 404 -10 z "},"d":{"ha":668,"x_min":38,"x_max":619,"o":"m 307 -12 q 208 8 257 -12 q 122 72 160 29 q 60 178 83 114 q 38 326 38 242 q 60 475 38 411 q 122 582 83 539 q 208 647 160 625 q 307 668 257 668 q 410 644 360 668 q 500 572 461 621 l 500 807 q 495 836 500 822 q 468 850 490 850 l 450 850 l 450 867 q 478 872 468 869 q 495 874 488 874 q 511 876 503 875 q 532 876 519 876 q 567 850 567 876 l 567 83 q 570 39 567 60 q 590 18 574 18 q 607 47 603 18 q 613 51 607 51 q 619 44 619 51 q 595 1 613 13 q 558 -10 578 -10 q 528 0 540 -10 q 510 23 517 10 q 502 52 504 36 q 500 82 500 68 q 410 11 461 35 q 307 -12 360 -12 m 308 6 q 393 33 357 6 q 453 106 429 61 q 490 208 478 150 q 501 326 501 265 q 489 447 501 388 q 452 551 476 506 q 392 626 428 597 q 307 654 356 654 q 235 633 269 654 q 172 572 200 613 q 128 469 144 531 q 111 326 111 408 q 128 184 111 244 q 172 84 144 124 q 235 25 200 44 q 307 6 269 6 l 308 6 z "},"e":{"ha":607,"x_min":38,"x_max":575,"o":"m 321 -12 q 197 17 250 -12 q 108 94 143 46 q 55 202 72 142 q 38 326 38 263 q 56 452 38 390 q 109 562 74 514 q 198 640 144 610 q 322 669 251 669 q 439 638 392 669 q 515 558 486 606 q 558 454 544 510 q 575 350 572 399 l 108 351 q 124 252 110 308 q 165 145 138 196 q 236 59 193 94 q 342 22 279 24 q 443 55 390 22 q 540 163 496 88 q 550 167 542 167 q 563 163 557 167 q 569 154 569 160 l 569 153 q 458 26 517 64 q 321 -12 400 -12 m 494 381 q 466 488 488 442 q 414 567 444 535 q 347 615 383 599 q 274 631 310 631 q 210 617 240 631 q 157 575 181 603 q 119 506 133 547 q 106 407 106 464 l 107 381 l 494 381 z "},"f":{"ha":372,"x_min":22,"x_max":461,"o":"m 185 640 l 185 33 q 211 10 185 10 l 214 10 l 214 0 l 88 0 l 88 10 l 92 10 q 110 16 103 10 q 118 33 118 22 l 118 640 l 22 640 l 22 668 l 118 668 l 118 735 q 134 798 118 771 q 176 842 150 825 q 235 869 203 860 q 300 878 268 878 q 411 851 365 878 q 461 761 457 825 q 453 729 461 746 q 422 713 446 713 l 419 713 q 383 724 393 713 q 369 751 372 735 q 367 787 367 768 q 364 822 368 806 q 346 850 360 839 q 301 861 332 861 l 300 861 q 256 853 276 861 q 219 830 235 844 q 194 796 203 815 q 185 754 185 776 l 185 668 l 331 668 l 331 640 l 185 640 z "},"g":{"ha":672,"x_min":43,"x_max":617,"o":"m 328 668 q 451 642 392 668 q 465 673 456 654 q 489 710 475 692 q 522 743 503 729 q 565 760 542 757 l 571 760 q 605 748 594 760 q 615 722 615 736 q 607 701 615 707 q 573 688 594 690 q 529 683 551 686 q 488 671 507 679 q 460 638 468 663 q 572 536 529 601 q 614 390 614 471 q 592 281 614 332 q 531 193 569 231 q 440 134 492 156 q 328 113 388 113 q 257 122 292 113 q 192 146 222 131 q 177 117 183 133 q 171 85 171 100 q 179 56 171 69 q 207 36 188 43 q 233 33 218 33 q 318 39 265 33 q 425 44 371 44 q 493 40 460 44 q 553 24 526 36 q 597 -10 579 11 q 617 -64 614 -31 l 617 -78 q 588 -169 617 -129 q 515 -235 560 -208 q 413 -277 469 -262 q 300 -292 356 -292 q 217 -283 257 -292 q 146 -258 178 -275 q 92 -214 114 -240 q 63 -151 69 -187 q 60 -136 61 -144 q 60 -121 60 -128 q 78 -53 60 -85 q 136 -4 96 -22 l 142 -12 q 107 -37 118 -22 q 96 -71 96 -53 q 117 -128 96 -99 q 174 -183 138 -158 q 260 -225 211 -208 q 367 -242 310 -242 q 382 -242 374 -242 q 399 -240 390 -242 q 501 -203 461 -233 q 542 -114 542 -172 q 541 -100 542 -107 q 539 -85 540 -93 q 484 -8 528 -26 q 378 10 440 10 q 303 7 342 10 q 222 3 264 4 l 214 3 q 139 28 158 3 q 119 86 119 54 q 127 137 119 113 q 146 176 135 161 q 71 270 99 215 q 43 390 43 325 q 65 498 43 447 q 126 586 88 549 q 217 646 165 624 q 328 668 269 668 m 533 413 q 505 506 526 463 q 453 580 483 549 q 384 629 422 611 q 306 647 346 647 q 297 647 301 647 q 289 646 293 646 q 220 622 251 642 q 167 572 189 603 q 132 502 144 542 q 119 418 119 463 q 124 368 119 393 q 152 275 131 318 q 204 201 174 232 q 272 151 235 169 q 350 133 310 133 q 359 134 354 133 q 368 135 364 135 q 437 158 406 139 q 490 208 468 178 q 525 278 513 239 q 538 363 538 318 q 533 413 538 388 z "},"h":{"ha":613,"x_min":42,"x_max":569,"o":"m 92 875 q 108 877 100 876 q 124 878 117 878 q 158 851 158 878 l 158 549 q 233 632 185 599 q 343 668 281 665 l 354 668 q 423 658 389 668 q 483 629 457 649 q 524 578 508 610 q 540 503 540 546 l 540 33 q 548 15 540 22 q 567 8 556 8 l 569 8 l 569 0 l 444 0 l 444 10 l 450 10 q 467 17 461 10 q 474 33 474 24 l 474 496 q 462 558 474 532 q 430 603 450 585 q 384 629 410 621 q 331 638 358 638 l 321 638 q 267 624 293 636 q 218 592 240 613 q 180 545 196 572 q 158 486 164 518 l 158 33 q 166 16 158 22 q 185 10 174 10 l 188 10 l 188 0 l 63 0 l 63 10 l 65 10 q 84 17 76 10 q 92 33 92 24 l 92 811 q 87 840 92 826 q 60 853 82 853 l 42 853 l 42 868 l 92 875 l 92 875 z "},"i":{"ha":251,"x_min":43,"x_max":210,"o":"m 168 806 q 155 776 168 788 q 124 764 142 764 q 91 776 104 764 q 78 806 78 789 q 91 835 78 822 q 124 847 104 847 q 155 835 142 847 q 168 806 168 822 m 157 100 l 157 81 q 160 44 157 60 q 178 28 164 28 l 181 28 q 196 56 192 28 q 201 60 196 60 q 210 53 210 60 q 188 11 203 22 q 153 0 172 0 l 149 0 q 119 9 131 0 q 101 32 107 18 q 92 61 94 46 q 90 89 90 76 l 93 599 l 93 614 q 88 640 93 628 q 61 651 82 651 l 43 651 l 43 668 l 93 676 q 108 678 101 678 q 122 679 115 679 q 160 653 160 679 l 157 100 z "},"j":{"ha":293,"x_min":-143,"x_max":210,"o":"m 164 754 q 133 767 146 754 q 119 796 119 779 q 133 825 119 813 q 164 838 146 838 q 197 825 183 838 q 210 796 210 813 q 197 766 210 778 q 164 754 183 754 m 28 -206 q -35 -197 -4 -206 q -89 -174 -65 -189 q -128 -135 -112 -158 q -143 -85 -143 -112 q -135 -52 -143 -69 q -101 -35 -126 -35 q -53 -71 -53 -37 l -53 -87 q -26 -160 -53 -136 q 33 -183 0 -183 q 101 -156 69 -183 q 132 -78 132 -129 q 132 56 132 4 q 133 142 132 108 q 133 197 133 176 q 133 238 133 218 q 133 282 133 258 q 133 345 133 306 q 133 444 133 385 q 133 597 133 504 q 128 627 133 613 q 100 642 124 642 l 82 642 l 82 658 q 106 663 97 661 q 124 667 115 665 q 140 669 132 668 q 161 669 149 669 q 200 642 200 669 l 200 -50 q 185 -121 200 -92 q 146 -169 169 -150 q 91 -197 122 -187 q 28 -206 60 -206 z "},"k":{"ha":569,"x_min":42,"x_max":593,"o":"m 92 874 q 107 876 100 875 q 121 876 114 876 q 158 850 158 876 l 158 339 l 424 635 q 429 647 429 646 q 411 660 429 657 l 407 660 l 407 668 l 536 668 l 536 658 l 526 658 q 498 652 513 658 q 476 635 483 646 l 290 425 l 538 33 q 558 15 544 22 q 585 8 572 8 l 593 8 l 593 0 l 428 0 l 428 8 l 432 8 q 451 22 451 8 q 447 33 451 26 l 238 365 l 158 276 l 158 33 q 166 15 158 22 q 185 8 174 8 l 189 8 l 189 0 l 63 0 l 63 8 l 65 8 q 84 15 76 8 q 92 33 92 22 l 92 810 q 87 837 92 824 q 60 850 82 850 l 42 850 l 42 867 l 92 874 l 92 874 z "},"l":{"ha":246,"x_min":33,"x_max":203,"o":"m 150 90 q 153 47 150 67 q 172 28 157 28 l 175 28 q 190 56 186 28 q 196 60 190 60 q 203 54 203 60 l 203 53 q 181 11 196 22 q 146 0 165 0 l 142 0 q 112 9 124 0 q 94 32 100 18 q 85 61 88 46 q 83 89 83 76 l 83 821 q 78 848 83 835 q 51 861 74 861 l 33 861 l 33 878 l 83 885 q 99 887 92 886 q 113 888 106 888 q 150 861 150 888 l 150 90 z "},"m":{"ha":1001,"x_min":49,"x_max":958,"o":"m 99 665 q 114 667 107 667 q 128 668 121 668 q 165 640 165 668 l 165 549 q 241 633 193 600 q 351 668 289 665 l 360 668 q 421 661 390 668 q 476 638 451 654 q 519 599 501 622 q 544 542 538 575 l 553 558 q 626 635 581 604 q 732 668 672 665 l 743 668 q 812 658 778 668 q 872 628 846 649 q 913 577 897 608 q 929 503 929 546 l 929 33 q 937 15 929 22 q 956 8 944 8 l 958 8 l 958 -1 l 833 -1 l 833 8 l 836 8 q 855 15 847 8 q 863 33 863 22 l 863 494 q 851 558 863 531 q 819 602 839 585 q 773 628 799 619 q 719 636 747 636 l 710 636 q 607 593 654 633 q 547 488 560 553 l 547 33 q 555 15 547 22 q 574 8 563 8 l 578 8 l 578 -1 l 451 0 l 451 8 l 454 8 q 473 15 465 8 q 481 33 481 22 l 481 494 q 469 558 481 531 q 437 602 457 585 q 391 628 417 619 q 338 636 365 636 l 328 636 q 260 616 292 633 q 206 571 228 599 q 165 485 174 533 l 165 33 q 173 15 165 22 q 192 8 181 8 l 194 8 l 194 0 l 69 0 l 69 8 l 72 8 q 91 15 83 8 q 99 33 99 22 l 99 600 q 94 628 99 615 q 67 642 89 642 l 49 642 l 49 657 l 99 665 l 99 665 z "},"n":{"ha":619,"x_min":49,"x_max":578,"o":"m 99 665 q 114 667 107 667 q 128 668 121 668 q 165 640 165 668 l 165 549 q 240 632 192 599 q 351 668 288 665 l 363 668 q 431 658 397 668 q 490 628 464 649 q 531 577 515 608 q 547 503 547 546 l 547 33 q 555 15 547 22 q 574 8 563 8 l 578 8 l 578 0 l 451 0 l 451 8 l 454 8 q 473 15 465 8 q 481 33 481 22 l 481 494 q 469 558 481 531 q 437 602 457 585 q 391 628 417 619 q 338 636 365 636 l 328 636 q 274 623 300 635 q 225 592 247 611 q 187 545 203 572 q 165 486 171 518 l 165 33 q 173 15 165 22 q 192 8 181 8 l 194 8 l 194 0 l 69 0 l 69 8 l 72 8 q 91 15 83 8 q 99 33 99 22 l 99 600 q 94 628 99 615 q 67 642 89 642 l 49 642 l 49 657 l 99 665 l 99 665 z "},"o":{"ha":668,"x_min":31,"x_max":626,"o":"m 328 667 q 444 640 390 667 q 539 568 499 614 q 603 460 579 522 q 626 328 626 399 q 603 195 626 257 q 539 88 579 133 q 444 15 499 42 q 328 -11 390 -11 q 213 15 267 -11 q 118 88 158 42 q 54 195 78 133 q 31 328 31 257 q 54 460 31 399 q 118 568 78 522 q 213 640 158 614 q 328 667 267 667 m 554 356 q 522 471 546 418 q 465 563 499 524 q 390 625 432 603 q 304 647 349 647 q 295 647 300 647 q 285 646 290 647 q 209 617 243 640 q 151 555 175 593 q 113 467 126 517 q 99 363 99 418 q 103 300 99 331 q 135 185 111 238 q 192 92 158 132 q 267 31 225 53 q 353 8 308 8 q 362 8 357 8 q 372 10 367 8 q 448 39 414 15 q 506 101 482 63 q 544 188 531 139 q 558 294 558 238 q 554 356 558 324 z "},"p":{"ha":665,"x_min":46,"x_max":625,"o":"m 163 572 q 253 644 203 621 q 357 667 304 667 q 456 645 407 667 q 542 582 504 624 q 602 478 579 540 q 625 333 625 415 l 625 331 q 602 185 625 247 q 541 83 579 124 q 454 21 503 42 q 356 0 406 0 q 252 23 303 0 q 163 92 201 46 l 163 -261 q 170 -279 163 -272 q 189 -286 178 -286 l 193 -286 l 193 -296 l 67 -296 l 67 -286 l 69 -286 q 88 -279 81 -286 q 96 -261 96 -272 l 96 599 q 91 626 96 613 q 64 640 86 640 l 46 640 l 46 656 l 96 664 q 111 666 104 665 q 125 667 118 667 q 163 639 163 667 l 163 572 m 163 274 q 187 160 168 208 q 232 79 206 111 q 290 32 258 47 q 356 17 322 17 l 357 17 q 428 35 393 17 q 492 93 464 54 q 536 191 519 132 q 553 331 553 250 q 536 471 553 411 q 492 571 519 531 q 428 631 464 611 q 357 651 393 651 q 291 635 324 651 q 232 585 258 618 q 187 503 206 553 q 163 388 168 454 l 163 274 z "},"q":{"ha":671,"x_min":38,"x_max":618,"o":"m 38 331 q 60 477 38 414 q 122 582 83 540 q 208 645 160 624 q 307 667 257 667 q 410 644 360 667 q 500 572 461 621 l 500 639 q 539 667 500 667 q 553 666 546 667 q 568 664 560 665 l 618 656 l 617 640 l 599 640 q 571 626 575 640 q 567 596 567 611 l 567 -232 q 572 -260 567 -247 q 599 -274 576 -274 l 617 -274 l 617 -289 l 568 -297 q 553 -299 560 -299 q 539 -300 546 -300 q 500 -272 500 -300 l 500 92 q 410 23 461 46 q 307 0 360 0 q 208 21 257 0 q 122 83 160 42 q 60 185 83 124 q 38 331 38 247 m 500 388 q 476 503 494 454 q 431 586 457 553 q 372 636 404 619 q 307 653 340 653 q 235 633 269 653 q 172 572 200 613 q 128 472 144 532 q 111 331 111 411 q 128 191 111 250 q 172 93 144 132 q 235 35 200 54 q 307 17 269 17 l 308 17 q 374 33 342 17 q 431 81 406 49 q 476 160 457 113 q 500 274 494 208 l 500 388 z "},"r":{"ha":447,"x_min":49,"x_max":443,"o":"m 339 660 q 389 651 365 660 q 432 618 413 642 q 443 586 443 603 q 428 553 443 567 q 392 539 414 539 l 390 539 q 361 553 374 540 q 338 581 349 565 q 314 608 326 596 q 283 621 301 621 l 278 621 q 233 599 253 618 q 200 553 214 581 q 178 496 186 526 q 165 439 169 465 l 165 32 q 173 15 165 22 q 192 8 181 8 l 196 8 l 196 -1 l 69 -1 l 69 8 l 72 8 q 91 15 83 8 q 99 32 99 22 l 99 599 q 94 627 99 614 q 67 640 89 640 l 49 640 l 49 657 l 99 664 q 115 666 107 665 q 131 667 124 667 q 165 640 165 667 l 165 529 q 189 576 175 553 q 222 617 203 599 q 268 647 242 635 q 328 660 294 658 l 339 660 z "},"s":{"ha":528,"x_min":39,"x_max":493,"o":"m 271 665 q 340 658 306 665 q 403 638 374 651 q 455 600 432 624 q 490 543 478 576 q 493 529 493 532 q 479 503 493 513 q 449 493 465 493 q 420 502 433 493 q 404 531 407 511 q 385 583 400 561 q 349 620 369 606 q 302 642 328 635 q 250 650 276 650 q 200 642 225 650 q 155 619 175 633 q 122 585 135 604 q 110 543 110 565 l 110 542 q 123 496 110 518 q 159 451 136 474 q 210 408 182 429 q 271 365 239 388 q 347 313 308 340 q 415 258 385 286 q 465 200 446 231 q 485 136 485 169 l 485 133 q 465 70 483 97 q 416 25 446 43 q 347 -2 386 7 q 267 -12 308 -11 l 261 -12 q 192 -6 226 -12 q 129 17 158 1 q 77 56 100 32 q 42 111 54 79 q 39 125 39 122 q 53 151 39 142 q 83 161 67 161 q 112 152 99 161 q 128 124 125 143 q 180 36 138 64 q 272 6 222 8 l 283 6 q 332 12 308 6 q 374 30 356 18 q 404 58 393 42 q 417 97 415 75 l 417 104 q 401 162 417 135 q 358 214 385 189 q 297 261 331 239 q 228 307 263 283 q 160 352 193 329 q 101 400 126 375 q 59 453 75 425 q 43 514 43 481 l 43 519 q 63 578 44 551 q 113 625 82 606 q 183 655 143 644 q 264 665 222 665 l 271 665 l 271 665 z "},"t":{"ha":308,"x_min":24,"x_max":294,"o":"m 174 846 l 174 667 l 294 667 l 294 639 l 174 639 l 174 68 q 178 32 174 49 q 197 15 182 15 l 199 15 q 214 44 208 18 q 219 47 214 47 q 226 42 226 47 q 204 0 219 11 q 169 -11 189 -11 l 165 -11 q 135 -2 147 -11 q 117 20 124 7 q 109 49 111 33 q 107 78 107 64 l 107 639 l 24 639 l 24 667 l 107 667 l 107 829 l 174 846 z "},"u":{"ha":628,"x_min":36,"x_max":586,"o":"m 536 0 q 520 -2 528 -1 q 506 -3 513 -3 q 478 3 489 -3 q 468 24 468 8 l 468 107 q 395 24 443 58 q 283 -12 347 -10 l 272 -12 q 204 -3 238 -12 q 144 27 171 7 q 102 78 118 47 q 86 153 86 110 l 86 600 q 81 627 86 614 q 54 640 76 640 l 36 640 l 36 657 l 86 664 q 101 666 94 665 q 115 667 108 667 q 153 640 153 667 l 153 161 q 165 98 153 125 q 196 53 176 71 q 242 28 215 36 q 296 19 268 19 l 306 19 q 360 33 333 21 q 409 64 388 44 q 447 110 431 83 q 468 171 463 138 l 468 600 q 463 627 468 614 q 436 640 458 640 l 418 640 l 418 657 l 468 664 q 483 666 476 665 q 497 667 490 667 q 535 640 535 667 l 535 68 q 539 38 535 53 q 567 24 543 24 l 585 24 l 586 7 l 536 0 l 536 0 z "},"v":{"ha":550,"x_min":-3,"x_max":549,"o":"m 296 121 l 469 632 q 470 635 469 635 q 471 639 471 636 q 447 657 471 657 l 442 657 l 442 665 l 481 665 l 514 667 l 549 667 l 549 657 l 543 657 q 517 650 529 657 q 503 633 506 643 l 288 0 l 258 0 l 43 632 q 28 650 40 643 q 4 657 17 657 l -3 657 l -3 667 l 150 667 l 150 657 l 144 657 q 121 639 121 657 q 122 632 121 635 l 296 121 z "},"w":{"ha":782,"x_min":-3,"x_max":783,"o":"m 296 121 l 374 350 l 278 632 q 263 650 275 643 q 238 657 251 657 l 231 657 l 232 665 l 385 665 l 385 657 l 379 657 q 354 638 354 657 q 355 635 354 636 q 356 632 356 635 l 529 121 l 703 632 q 704 639 704 635 q 681 657 704 657 l 675 657 l 675 665 l 715 665 l 749 667 l 783 667 l 783 657 l 776 657 q 752 650 764 657 q 736 632 740 643 l 521 0 l 493 0 l 390 301 l 288 0 l 258 0 l 43 632 q 28 650 40 643 q 4 657 17 657 l -3 657 l -3 665 l 150 665 l 150 657 l 144 657 q 121 639 121 657 q 122 632 121 635 l 296 121 z "},"x":{"ha":538,"x_min":13,"x_max":544,"o":"m 288 394 l 421 632 q 424 642 424 636 q 404 657 424 657 l 400 657 l 400 665 l 510 665 l 510 657 l 501 657 q 475 650 488 657 q 456 632 463 643 l 304 364 l 490 33 q 510 15 497 22 q 536 8 524 8 l 544 8 l 544 0 l 392 0 l 392 8 l 396 8 q 415 24 415 8 q 413 33 415 29 l 257 308 l 101 33 q 99 24 99 29 q 118 8 99 8 l 122 8 l 122 0 l 13 0 l 13 8 l 22 8 q 48 15 35 8 q 67 33 61 22 l 240 339 l 75 632 q 55 650 68 643 q 29 657 42 657 l 21 657 l 21 665 l 174 665 l 174 657 l 169 657 q 150 642 150 657 q 153 632 150 636 l 288 394 z "},"y":{"ha":544,"x_min":1,"x_max":546,"o":"m 296 128 l 465 631 q 466 633 465 632 q 467 636 467 635 q 460 650 467 644 q 442 656 453 656 l 438 656 l 438 665 l 546 665 l 546 657 l 539 657 q 513 649 525 657 q 499 631 501 642 l 342 163 l 272 -53 q 265 -86 271 -62 q 247 -135 258 -110 q 219 -181 236 -161 q 179 -206 203 -201 q 174 -206 176 -206 q 168 -207 171 -207 q 129 -191 142 -207 q 117 -160 117 -175 q 121 -146 117 -150 q 151 -124 133 -128 q 185 -114 168 -119 q 219 -94 203 -108 q 247 -42 235 -81 l 260 -3 l 49 631 q 34 649 46 642 q 8 656 22 656 l 1 656 l 1 665 l 157 665 l 157 656 l 151 656 q 126 636 126 656 q 127 634 126 635 q 128 631 128 633 l 296 128 z "},"z":{"ha":481,"x_min":21,"x_max":460,"o":"m 460 665 l 113 24 l 307 24 q 351 31 333 24 q 381 50 369 39 q 401 76 394 61 l 421 76 l 421 -1 l 21 -1 l 368 640 l 167 640 q 122 632 140 640 q 93 614 104 624 q 72 588 79 601 l 53 588 l 53 665 l 460 665 z "},"{":{"ha":426,"x_min":0,"x_max":371,"o":"m 328 -60 q 342 -57 339 -57 q 364 -65 357 -57 q 371 -85 371 -74 q 365 -100 371 -93 q 349 -108 360 -107 q 336 -110 342 -110 q 324 -110 331 -110 q 278 -106 300 -110 q 210 -88 242 -101 q 154 -53 178 -75 q 124 -2 132 -32 q 117 64 117 28 q 123 156 117 108 q 129 246 129 203 q 108 338 129 300 q 21 382 88 375 q 5 388 10 383 q 0 400 0 393 q 21 419 0 415 q 75 433 54 422 q 108 463 96 444 q 125 504 121 481 q 129 554 129 528 q 123 646 129 599 q 117 738 117 693 q 124 803 117 774 q 154 854 132 833 q 210 889 178 876 q 278 907 242 901 q 322 911 300 911 q 335 910 329 911 q 349 910 342 910 q 365 901 360 908 q 371 886 371 894 q 364 867 371 875 q 342 858 357 858 q 328 861 339 858 q 254 872 292 872 q 212 867 232 872 q 179 850 192 861 q 160 793 160 832 q 168 728 160 764 q 187 658 176 693 q 206 590 197 622 q 215 535 215 557 l 215 533 q 190 454 214 489 q 122 400 167 419 q 190 347 167 381 q 215 268 214 313 l 215 267 q 206 212 215 244 q 187 144 197 179 q 168 73 176 108 q 160 8 160 38 q 179 -49 160 -31 q 213 -66 193 -61 q 256 -71 232 -71 q 328 -60 292 -71 z "},"|":{"ha":139,"x_min":0,"x_max":83,"o":"m 83 856 q 79 808 83 835 q 70 731 75 781 q 60 599 65 681 q 53 392 54 518 q 58 185 54 265 q 67 53 63 104 q 74 -24 71 3 q 78 -72 78 -51 l 78 -76 q 66 -106 78 -96 q 39 -117 54 -117 q 12 -106 24 -117 q 0 -76 0 -96 l 0 -71 q 3 -24 0 -51 q 13 54 7 4 q 22 185 18 104 q 29 392 26 265 q 25 599 29 518 q 17 731 21 681 q 9 808 13 781 q 6 856 6 835 l 6 860 q 17 891 6 881 q 44 901 29 901 q 72 891 60 901 q 83 860 83 881 l 83 856 z "},"}":{"ha":426,"x_min":0,"x_max":371,"o":"m 350 419 q 371 400 371 415 q 366 388 371 393 q 350 382 361 383 q 263 338 283 375 q 242 246 242 300 q 248 156 242 203 q 254 64 254 108 q 247 -2 254 28 q 217 -53 239 -32 q 161 -88 193 -75 q 93 -106 129 -101 q 46 -110 69 -110 q 33 -110 39 -110 q 21 -108 28 -110 q 5 -100 10 -107 q 0 -85 0 -93 q 7 -65 0 -74 q 29 -57 14 -57 q 43 -60 32 -57 q 115 -71 76 -71 q 158 -66 139 -71 q 192 -49 178 -61 q 211 7 211 -31 q 202 72 211 36 q 183 142 193 107 q 164 210 172 178 q 156 265 156 242 l 156 268 q 181 347 157 313 q 249 400 204 381 q 181 454 204 419 q 156 533 157 489 l 156 536 q 164 591 156 558 q 183 659 172 624 q 202 730 193 694 q 211 794 211 765 q 192 850 211 832 q 159 867 179 861 q 117 872 139 872 q 43 861 79 872 q 29 858 32 858 q 7 867 14 858 q 0 886 0 875 q 5 901 0 894 q 21 910 10 908 q 34 910 28 910 q 47 911 40 911 q 93 907 69 911 q 161 889 129 901 q 217 854 193 876 q 247 803 239 833 q 254 738 254 774 q 248 646 254 693 q 242 554 242 599 q 246 504 242 528 q 263 463 250 481 q 296 433 275 444 q 350 419 317 422 z "},"~":{"ha":542,"x_min":0,"x_max":486,"o":"m 486 407 q 476 332 483 363 q 458 283 469 301 q 430 258 446 265 q 396 250 414 250 q 326 267 364 250 q 248 303 288 283 q 170 340 208 324 q 99 357 132 357 q 53 343 74 357 q 18 297 32 329 l 0 304 q 63 407 29 379 q 132 435 96 435 q 202 417 167 435 q 273 376 238 399 q 342 336 308 354 q 407 318 375 318 l 410 318 q 452 340 436 319 q 469 408 468 360 l 486 407 z "},"":{"ha":56,"x_min":0,"x_max":0,"o":""},"":{"ha":174,"x_min":0,"x_max":118,"o":"m 60 608 q 22 626 38 608 q 7 669 7 644 q 22 713 7 696 q 60 731 38 731 q 96 713 81 731 q 111 669 111 696 q 96 626 111 644 q 60 608 81 608 m 71 565 q 76 354 72 444 q 85 198 81 264 q 97 85 90 132 q 108 6 103 39 q 115 -49 113 -26 q 118 -89 118 -71 l 118 -93 q 100 -137 118 -122 q 60 -151 82 -151 q 18 -137 36 -151 q 0 -93 0 -122 l 0 -90 q 7 -24 0 -62 q 23 85 14 14 q 40 269 32 156 q 50 565 49 383 l 71 565 z "},"":{"ha":593,"x_min":0,"x_max":538,"o":"m 507 174 q 518 181 510 181 q 531 176 525 181 q 538 167 538 172 l 538 165 q 427 39 486 75 q 289 3 368 3 q 165 35 222 3 q 149 -17 156 4 q 138 -56 143 -39 q 129 -85 133 -72 q 121 -107 125 -97 q 82 -135 108 -135 q 56 -125 67 -135 q 44 -99 44 -115 q 49 -81 44 -92 q 74 -29 57 -58 q 124 63 92 0 q 33 181 67 108 q 0 339 0 253 q 21 465 0 404 q 81 573 42 526 q 178 649 121 619 q 308 681 235 678 l 326 681 q 378 676 353 681 q 399 747 393 722 q 414 790 406 772 q 431 813 421 806 q 453 819 442 819 q 479 810 468 819 q 490 783 490 800 q 486 764 490 774 q 467 724 479 746 q 432 661 454 701 q 493 622 464 647 q 522 564 522 594 q 510 527 522 543 q 476 507 497 511 l 469 507 q 449 516 457 507 q 434 540 440 525 q 420 572 428 554 q 403 606 413 589 q 349 497 379 561 q 278 338 318 432 q 223 198 246 258 q 185 93 200 138 q 247 50 214 65 q 314 35 279 35 l 317 35 q 419 68 367 35 q 507 174 471 101 m 156 125 q 200 222 175 167 q 256 347 225 276 q 326 524 300 453 q 367 644 351 596 q 341 656 356 651 q 307 663 326 661 l 294 663 q 192 637 233 663 q 124 569 150 611 q 88 476 99 528 q 76 375 76 425 q 81 313 76 342 q 108 209 88 257 q 156 125 128 161 z "},"":{"ha":601,"x_min":0,"x_max":546,"o":"m 378 549 q 397 588 378 575 q 440 612 417 601 q 483 638 464 622 q 503 686 503 653 q 501 703 503 697 q 438 820 490 774 q 297 867 385 867 l 288 867 q 194 851 232 864 q 133 816 156 838 q 100 765 110 794 q 90 703 90 736 q 111 583 90 646 q 158 460 132 519 l 364 460 l 364 418 l 178 418 q 193 386 185 401 q 208 356 201 371 l 364 356 l 364 314 l 228 314 q 240 286 235 299 q 246 267 244 274 q 248 249 247 258 q 249 232 249 240 q 222 126 249 176 q 144 40 196 75 l 333 40 q 422 55 389 40 q 472 89 454 69 q 500 138 493 110 l 504 136 l 479 0 l 31 0 q 15 18 15 0 q 19 30 15 25 q 31 35 24 35 q 139 76 106 46 q 178 150 172 107 q 178 158 178 154 q 179 168 179 163 q 166 240 179 204 q 133 314 153 275 l 15 314 l 15 356 l 113 356 q 94 387 103 371 q 78 418 86 403 l 15 418 l 15 460 l 56 460 q 17 549 32 504 q 0 638 1 593 l 0 643 q 22 752 0 706 q 83 830 44 799 q 175 876 122 861 q 288 892 228 892 l 292 892 q 463 843 396 892 q 543 708 529 794 q 545 691 544 700 q 546 674 546 682 q 536 610 546 638 q 500 545 525 572 q 439 508 475 518 q 433 508 436 508 q 426 507 429 507 q 391 519 403 507 q 378 546 379 531 l 378 549 z "},"":{"ha":635,"x_min":0,"x_max":579,"o":"m 438 299 q 490 247 468 267 q 526 213 511 226 q 552 189 542 199 q 569 171 563 179 q 579 147 579 160 q 570 126 579 135 q 550 118 561 118 q 522 132 535 118 q 506 151 514 140 q 487 179 499 163 q 458 219 475 196 q 417 276 442 243 q 290 226 363 226 q 164 276 217 226 q 121 219 138 243 q 92 179 104 196 q 73 151 81 163 q 57 132 65 140 q 31 118 44 118 q 9 127 18 118 q 0 147 0 136 q 10 171 0 160 q 27 189 17 179 q 53 213 38 199 q 90 247 68 226 q 142 299 111 267 q 105 365 118 328 q 92 444 92 401 q 105 523 92 486 q 142 589 118 560 q 90 640 111 619 q 53 675 68 661 q 27 699 38 689 q 10 717 17 708 q 0 740 0 728 q 9 760 0 751 q 31 769 18 769 q 57 756 44 769 q 73 736 65 747 q 92 708 81 725 q 121 668 104 692 q 164 611 138 644 q 290 661 218 661 q 415 611 363 661 q 458 668 442 644 q 487 708 475 692 q 506 736 499 725 q 522 756 514 747 q 550 769 535 769 q 570 761 561 769 q 579 740 579 753 q 569 717 579 728 q 552 699 563 708 q 526 675 542 689 q 490 640 511 661 q 438 589 468 619 q 474 523 461 560 q 488 444 488 486 q 438 299 488 360 m 290 269 q 348 283 321 269 q 395 321 375 297 q 427 376 415 344 q 439 444 439 408 q 427 512 439 481 q 395 567 415 543 q 348 604 375 590 q 290 618 321 618 q 231 604 258 618 q 184 567 204 590 q 152 512 164 543 q 140 444 140 481 q 152 376 140 408 q 184 321 164 344 q 231 283 204 297 q 290 269 258 269 z "},"":{"ha":713,"x_min":0,"x_max":657,"o":"m 657 867 l 651 867 q 628 860 640 867 q 610 842 617 853 l 372 474 l 364 460 l 364 356 l 483 356 l 483 314 l 364 314 l 364 196 l 483 196 l 483 154 l 364 154 l 364 33 q 372 15 364 22 q 390 8 379 8 l 393 8 l 393 0 l 264 0 l 264 8 l 267 8 q 285 15 278 8 q 293 33 293 22 l 293 154 l 172 154 l 172 196 l 293 196 l 293 314 l 172 314 l 172 356 l 293 356 l 293 458 l 47 842 q 28 860 40 853 q 4 867 15 867 l 0 867 l 0 875 l 150 875 l 150 867 l 147 867 q 132 854 132 867 q 136 842 132 847 l 353 504 l 569 842 q 575 854 575 850 q 560 867 575 867 l 556 867 l 556 875 l 657 875 l 657 867 z "},"":{"ha":633,"x_min":0,"x_max":578,"o":"m 578 236 q 549 150 575 189 q 578 67 578 110 l 578 61 q 556 -12 576 22 q 501 -74 536 -47 q 420 -116 467 -100 q 318 -133 374 -132 l 307 -133 q 226 -126 260 -133 q 165 -112 192 -119 q 117 -97 138 -104 q 76 -90 96 -90 q 63 -92 67 -90 q 28 -106 35 -96 q 21 -122 21 -115 l 0 -122 l 40 86 l 60 86 l 60 85 q 81 -6 60 32 q 138 -68 103 -44 q 216 -103 172 -92 q 304 -114 260 -114 q 383 -106 344 -114 q 451 -82 421 -97 q 499 -44 481 -67 q 518 7 517 -21 l 518 13 q 489 91 518 54 q 418 160 460 128 q 328 220 376 193 q 243 268 281 247 q 170 311 210 286 q 97 365 131 336 q 42 428 64 394 q 19 500 19 463 l 19 506 q 49 592 22 553 q 27 632 35 611 q 19 675 19 653 l 19 681 q 41 755 21 719 q 96 817 61 790 q 177 859 131 843 q 279 876 224 875 q 353 871 324 876 q 401 858 382 865 q 444 844 413 854 q 503 835 476 835 q 527 840 518 835 q 536 856 536 844 q 533 869 536 858 l 557 869 l 556 669 l 538 669 q 513 755 535 719 q 458 813 492 790 q 381 847 424 836 q 294 857 338 857 q 216 849 254 857 q 147 824 178 840 q 99 785 117 808 q 79 735 81 763 l 79 728 q 99 661 79 692 q 150 605 119 631 q 216 557 181 579 q 282 517 251 535 q 385 456 333 486 q 481 392 438 425 q 551 322 524 358 q 578 242 578 285 l 578 236 m 518 189 q 490 267 518 231 q 419 335 461 303 q 331 393 378 367 q 246 442 283 419 q 158 495 203 465 q 79 558 113 525 l 79 554 q 99 487 79 518 q 149 430 119 456 q 215 383 179 404 q 279 343 250 361 q 409 266 344 304 q 518 185 474 228 l 518 189 z "},"":{"ha":282,"x_min":0,"x_max":226,"o":"m 39 857 q 65 847 54 857 q 76 822 76 838 q 65 797 76 807 q 39 786 54 786 q 11 797 22 786 q 0 822 0 807 q 11 847 0 838 q 39 857 22 857 m 188 857 q 215 847 203 857 q 226 822 226 838 q 215 797 226 807 q 188 786 203 786 q 160 797 172 786 q 149 822 149 807 q 160 847 149 838 q 188 857 172 857 z "},"":{"ha":836,"x_min":38,"x_max":796,"o":"m 622 335 q 633 344 624 344 q 646 335 646 344 l 646 332 q 564 185 621 242 q 404 128 507 128 l 401 128 q 301 151 347 128 q 219 216 254 175 q 163 312 183 257 q 143 429 143 367 q 163 547 143 492 q 219 642 183 601 q 301 707 254 683 q 401 731 347 731 q 471 721 436 731 q 535 692 506 711 q 583 645 564 674 q 610 581 603 617 l 610 574 q 599 549 610 558 q 574 540 588 540 q 551 548 561 540 q 542 575 542 556 q 498 675 540 636 q 389 714 456 714 q 380 713 385 714 q 369 713 375 713 q 307 688 336 710 q 255 631 278 667 q 219 549 232 596 q 206 450 206 503 q 206 431 206 440 q 208 410 207 421 q 233 306 214 353 q 281 223 253 258 q 344 168 308 188 q 419 149 379 149 q 427 149 424 149 q 435 150 431 150 q 551 206 499 157 q 622 335 603 256 m 417 858 q 565 824 496 858 q 685 732 633 790 q 766 595 736 674 q 796 428 796 517 q 766 260 796 339 q 685 124 736 182 q 565 31 633 65 q 417 -3 496 -3 q 269 31 338 -3 q 149 124 200 65 q 67 260 97 182 q 38 428 38 339 q 67 595 38 517 q 149 732 97 674 q 269 824 200 790 q 417 858 338 858 m 417 33 q 549 65 488 33 q 658 149 611 96 q 731 274 704 203 q 757 428 757 346 q 730 581 757 510 q 657 706 703 653 q 549 791 611 760 q 417 822 488 822 q 284 791 346 822 q 176 706 222 760 q 103 581 131 653 q 76 428 76 510 q 103 274 76 346 q 176 149 131 203 q 284 65 222 96 q 417 33 346 33 z "},"":{"ha":349,"x_min":0,"x_max":293,"o":"m 264 492 q 265 470 264 481 q 271 460 265 460 l 271 461 q 274 473 274 468 q 281 481 274 478 l 283 481 q 293 469 293 481 q 254 429 286 429 q 235 436 242 429 q 224 453 228 443 q 218 474 219 463 q 217 496 217 486 q 174 447 197 464 q 111 428 151 429 l 107 428 q 62 439 82 428 q 28 469 42 450 q 8 510 15 488 q 0 558 0 533 q 26 642 0 603 q 108 690 51 681 q 168 694 138 694 q 193 694 181 694 q 217 693 206 693 l 217 732 q 208 802 217 776 q 183 839 199 828 q 154 849 172 849 q 114 831 132 849 q 94 785 96 813 q 85 749 92 764 q 60 733 78 733 l 57 733 q 33 747 42 735 q 25 775 25 758 q 65 849 28 824 q 146 875 101 875 q 190 868 168 875 q 228 848 211 861 q 254 814 244 835 q 264 765 264 793 l 264 492 m 192 526 q 210 587 203 554 q 217 654 217 619 l 217 663 q 194 663 206 663 q 172 664 183 664 q 121 660 146 664 q 69 623 85 651 q 54 561 54 594 q 72 490 54 522 q 121 458 90 458 l 124 458 q 162 478 144 460 q 192 526 179 497 z "},"":{"ha":465,"x_min":0,"x_max":410,"o":"m 71 339 l 226 176 l 206 154 l 0 368 l 192 568 l 242 515 l 71 339 m 239 339 l 394 176 l 374 154 l 168 368 l 360 568 l 410 515 l 239 339 z "},"":{"ha":719,"x_min":0,"x_max":664,"o":"m 664 404 l 664 136 l 618 136 l 618 353 l 0 353 l 0 404 l 664 404 z "},"":{"ha":56,"x_min":0,"x_max":0,"o":""},"":{"ha":836,"x_min":38,"x_max":796,"o":"m 417 858 q 565 824 496 858 q 685 732 633 790 q 766 595 736 674 q 796 428 796 517 q 766 260 796 339 q 685 124 736 182 q 565 31 633 65 q 417 -3 496 -3 q 269 31 338 -3 q 149 124 200 65 q 67 260 97 182 q 38 428 38 339 q 67 595 38 517 q 149 732 97 674 q 269 824 200 790 q 417 858 338 858 m 417 33 q 549 65 488 33 q 658 149 611 96 q 731 274 704 203 q 757 428 757 346 q 730 581 757 510 q 657 706 703 653 q 549 791 611 760 q 417 822 488 822 q 284 791 346 822 q 176 706 222 760 q 103 581 131 653 q 76 428 76 510 q 103 274 76 346 q 176 149 131 203 q 284 65 222 96 q 417 33 346 33 m 650 201 q 658 204 656 204 q 669 193 669 204 q 668 189 669 190 q 622 135 650 149 q 568 122 594 122 l 567 122 q 499 144 532 122 q 438 201 465 167 q 388 278 410 236 q 356 358 367 319 l 303 358 l 303 146 q 321 131 303 131 l 324 131 l 324 124 l 233 124 l 233 131 l 235 131 q 254 146 254 131 l 254 713 q 235 729 254 729 l 233 729 l 233 736 l 476 736 q 562 720 525 736 q 623 677 599 704 q 659 616 647 650 q 671 547 671 582 q 659 478 671 511 q 623 417 647 444 q 562 374 599 390 q 476 358 525 358 l 379 358 q 417 294 393 328 q 470 230 440 260 q 535 181 500 200 q 604 160 569 161 l 607 158 q 650 201 636 158 m 303 371 l 446 371 q 519 386 488 371 q 572 426 551 401 q 603 482 593 450 q 614 547 614 514 q 603 612 614 581 q 572 667 593 643 q 519 707 551 692 q 446 722 488 722 l 306 722 l 303 713 l 303 371 z "},"":{"ha":528,"x_min":0,"x_max":472,"o":"m 0 836 l 0 878 l 472 878 l 472 836 l 0 836 z "},"":{"ha":283,"x_min":0,"x_max":228,"o":"m 114 878 q 195 847 163 878 q 228 772 228 817 q 195 697 228 728 q 114 667 163 667 q 33 697 67 667 q 0 772 0 728 q 33 847 0 817 q 114 878 67 878 m 114 701 q 169 722 146 701 q 192 772 192 743 q 169 824 192 803 q 114 844 146 844 q 60 824 82 844 q 38 772 38 803 q 60 722 38 743 q 114 701 82 701 z "},"":{"ha":451,"x_min":0,"x_max":396,"o":"m 0 139 l 0 181 l 396 181 l 396 139 l 0 139 m 396 401 l 396 360 l 221 360 l 221 197 l 176 197 l 176 360 l 0 360 l 0 401 l 176 401 l 176 564 l 221 564 l 221 401 l 396 401 z "},"":{"ha":325,"x_min":0,"x_max":269,"o":"m 250 415 l 11 415 q 18 465 11 443 q 37 503 25 486 q 66 537 49 521 q 106 571 83 553 q 171 632 140 599 q 210 724 201 665 q 211 740 211 732 q 211 754 211 747 q 201 810 211 789 q 174 843 190 832 q 131 856 154 856 q 74 838 99 856 q 49 796 49 821 l 49 792 q 54 762 50 772 q 63 744 58 751 q 72 728 68 736 q 76 710 76 721 q 69 685 76 694 q 46 675 61 675 q 36 676 39 675 q 3 715 10 681 q 1 728 1 722 q 0 740 0 733 q 6 781 0 760 q 21 818 11 801 q 64 865 36 846 q 133 885 92 885 q 236 841 203 885 q 269 739 269 797 q 255 669 269 699 q 218 616 240 639 q 169 575 196 593 q 117 538 142 557 q 73 498 93 519 q 46 449 53 476 l 169 449 q 213 456 197 449 q 238 474 229 464 q 251 500 247 485 l 251 504 l 265 501 l 250 415 z "},"":{"ha":326,"x_min":0,"x_max":271,"o":"m 131 417 q 74 428 99 417 q 31 465 49 439 q 8 512 15 486 q 0 561 0 538 l 0 563 q 8 576 0 571 q 25 582 15 582 q 38 579 29 582 q 49 569 47 576 q 50 554 50 563 l 50 551 q 51 522 50 540 q 60 486 53 504 q 84 455 68 468 q 129 442 100 442 q 163 451 147 442 q 191 477 179 461 q 209 512 203 493 q 215 550 215 531 q 199 600 215 579 q 144 621 182 621 l 138 621 q 122 627 126 621 q 115 640 117 633 q 120 656 115 649 q 133 663 125 663 l 138 663 q 149 660 146 660 q 170 667 160 660 q 189 685 181 674 q 206 722 200 700 q 213 767 213 743 l 213 772 q 192 836 211 808 q 131 867 174 864 l 128 867 q 74 849 99 867 q 49 803 49 831 l 49 799 q 54 768 50 779 q 63 749 58 757 q 72 735 68 742 q 76 715 76 728 q 44 681 76 681 l 36 681 q 3 719 11 686 q 1 732 1 726 q 0 744 0 738 q 22 826 0 786 q 64 873 38 854 q 129 892 90 892 q 228 854 192 892 q 267 767 265 817 l 267 763 q 254 706 267 735 q 214 653 242 678 q 257 607 243 635 q 271 547 271 579 q 261 501 269 524 q 236 460 253 478 q 192 428 218 440 q 131 417 165 417 z "},"":{"ha":307,"x_min":0,"x_max":251,"o":"m 239 836 q 242 837 242 836 q 244 838 243 838 q 251 831 251 838 q 249 824 251 826 q 230 803 247 822 q 186 762 213 785 q 126 719 160 739 q 61 699 93 700 l 53 699 q 15 708 26 699 q 1 731 4 718 q 0 739 0 733 q 2 751 0 746 q 11 757 4 757 q 19 754 17 757 q 46 747 31 747 q 104 761 71 747 q 167 792 138 775 q 218 822 197 808 q 239 836 239 836 z "},"":{"ha":606,"x_min":0,"x_max":550,"o":"m 500 -7 q 485 -9 492 -8 q 471 -10 478 -10 q 433 18 433 -10 l 433 101 q 359 18 407 51 q 249 -18 311 -15 l 233 -18 q 172 -10 201 -18 q 118 14 142 -3 l 118 -210 l 51 -210 l 50 581 l 50 593 q 45 620 50 607 q 18 633 40 633 l 0 633 l 0 650 l 50 657 q 65 659 58 658 q 79 660 72 660 q 117 633 117 660 q 118 394 118 513 q 118 154 118 275 q 130 91 118 118 q 161 47 142 64 q 207 21 181 29 q 261 13 233 13 l 271 13 q 325 26 299 14 q 374 57 351 38 q 411 103 396 76 q 433 164 426 131 q 433 372 433 268 q 432 581 432 476 l 432 593 q 427 621 432 608 q 400 633 422 633 l 382 633 l 382 650 l 432 657 q 449 659 440 658 q 464 660 457 660 q 499 633 499 660 l 499 514 l 500 71 l 500 58 q 505 30 500 43 q 532 17 510 17 l 550 17 l 550 1 l 500 -7 l 500 -7 z "},"":{"ha":563,"x_min":0,"x_max":507,"o":"m 507 876 l 507 822 l 464 822 l 464 -99 l 394 -99 l 394 822 l 311 822 l 311 -99 l 240 -99 l 240 524 l 143 524 q 81 539 107 524 q 36 579 54 554 q 9 635 18 604 q 0 700 0 667 q 9 765 0 733 q 36 822 18 797 q 81 861 54 846 q 143 876 107 876 l 507 876 z "},"":{"ha":222,"x_min":0,"x_max":167,"o":"m 83 281 q 24 303 49 281 q 0 358 0 326 q 24 413 0 390 q 83 435 49 435 q 142 413 118 435 q 167 358 167 390 q 142 303 167 326 q 83 281 118 281 z "},"":{"ha":268,"x_min":0,"x_max":213,"o":"m 107 -25 q 141 -28 122 -25 q 175 -39 160 -31 q 201 -63 190 -47 q 213 -106 213 -79 l 213 -110 q 201 -155 213 -136 q 169 -185 189 -174 q 121 -201 149 -199 q 104 -203 115 -203 q 69 -197 85 -203 q 26 -175 46 -190 q 0 -135 7 -160 l 17 -131 q 47 -167 24 -154 q 96 -179 69 -179 q 148 -164 124 -179 q 175 -114 172 -149 l 175 -110 q 149 -75 175 -90 q 56 -58 124 -60 l 78 15 l 107 13 l 92 -25 l 107 -25 z "},"":{"ha":133,"x_min":0,"x_max":78,"o":"m 63 443 q 74 436 63 436 l 78 436 l 78 421 l 0 421 l 0 436 l 6 436 q 15 443 15 436 l 15 824 l 1 824 l 1 851 l 6 853 q 26 863 13 853 q 39 882 39 872 l 39 888 l 63 888 l 63 443 z "},"":{"ha":400,"x_min":0,"x_max":344,"o":"m 172 865 q 127 849 149 865 q 89 804 106 832 q 63 738 72 776 q 53 654 53 699 q 63 571 53 610 q 89 504 72 532 q 127 460 106 476 q 172 443 149 443 q 217 460 196 443 q 256 504 239 476 q 281 571 271 532 q 290 654 290 610 q 281 738 290 699 q 256 804 271 776 q 217 849 239 832 q 172 865 196 865 m 0 654 q 13 744 0 703 q 50 818 26 786 q 105 869 74 850 q 172 888 136 888 q 240 869 208 888 q 294 818 271 850 q 331 744 318 786 q 344 654 344 703 q 331 564 344 606 q 294 490 318 522 q 240 440 271 458 q 172 421 208 421 q 105 440 136 421 q 50 490 74 458 q 13 564 26 522 q 0 654 0 606 z "},"":{"ha":465,"x_min":0,"x_max":410,"o":"m 242 392 l 35 178 l 14 199 l 171 361 l 0 539 l 50 590 l 242 392 m 410 392 l 203 178 l 183 199 l 339 361 l 168 539 l 218 590 l 410 392 z "},"":{"ha":538,"x_min":0,"x_max":482,"o":"m 432 46 q 438 38 432 39 q 447 38 443 38 l 447 24 l 369 24 l 369 38 q 380 38 375 38 q 385 46 385 39 l 385 132 l 179 132 q 285 310 232 221 q 390 489 338 399 l 432 489 l 432 172 l 482 172 l 482 132 l 432 132 l 432 46 m 222 435 q 305 633 275 556 q 351 758 335 710 q 374 831 367 806 q 390 876 382 857 q 408 898 397 892 q 429 904 418 904 q 456 894 444 904 q 467 868 467 885 q 463 849 467 858 q 440 806 454 829 q 401 739 426 783 q 338 620 376 694 q 244 426 300 546 q 163 228 192 306 q 117 103 133 151 q 92 29 100 56 q 76 -15 85 3 q 38 -43 64 -43 q 11 -33 22 -43 q 0 -7 0 -24 q 4 13 0 1 q 27 54 13 31 q 67 122 42 78 q 130 241 92 167 q 222 435 168 315 m 136 443 q 147 436 136 436 l 151 436 l 151 421 l 74 421 l 74 436 l 79 436 q 89 443 89 436 l 89 824 l 75 824 l 75 851 l 79 853 q 99 863 86 853 q 113 882 113 872 l 113 888 l 136 888 l 136 443 m 385 426 l 235 172 l 385 172 l 385 426 z "},"":{"ha":622,"x_min":0,"x_max":567,"o":"m 431 492 q 529 453 494 492 q 558 406 549 433 q 567 346 567 378 q 556 285 567 311 q 528 238 546 258 q 489 200 511 217 q 444 167 467 183 q 383 117 411 143 q 343 56 354 92 l 468 56 q 510 64 494 56 q 535 82 526 72 q 546 100 543 92 q 549 108 549 108 l 550 113 l 563 110 l 563 106 l 549 22 l 304 22 l 308 29 q 318 78 310 57 q 339 117 326 100 q 368 149 351 135 q 403 179 385 164 q 468 240 438 207 q 507 332 499 274 q 509 350 508 342 q 510 365 510 358 q 499 419 510 399 q 472 451 488 440 q 432 464 454 461 q 390 456 408 464 q 358 434 371 449 q 346 403 346 419 l 346 400 q 352 368 347 379 q 363 349 357 357 q 371 335 368 342 q 374 318 374 329 l 374 307 q 364 290 372 299 q 344 283 354 283 q 333 285 338 283 q 301 324 308 289 q 299 337 299 331 q 299 350 299 343 q 299 361 299 356 q 300 374 299 367 q 319 426 304 400 q 363 473 335 454 q 431 492 390 492 m 222 435 q 305 633 275 556 q 351 758 335 710 q 374 831 367 806 q 390 876 382 857 q 408 898 397 892 q 429 904 418 904 q 456 894 444 904 q 467 868 467 885 q 463 849 467 858 q 440 806 454 829 q 401 739 426 783 q 338 620 376 694 q 244 426 300 546 q 163 228 192 306 q 117 103 133 151 q 92 29 100 56 q 76 -15 85 3 q 38 -43 64 -43 q 11 -33 22 -43 q 0 -7 0 -24 q 4 13 0 1 q 27 54 13 31 q 67 122 42 78 q 130 241 92 167 q 222 435 168 315 m 136 443 q 139 438 136 440 q 144 436 140 436 l 151 436 l 151 421 l 74 421 l 74 436 l 81 436 q 86 438 85 436 q 89 443 89 440 l 89 824 l 75 824 l 75 851 l 79 853 q 101 865 90 853 q 113 882 113 876 l 113 888 l 136 888 l 136 443 z "},"":{"ha":636,"x_min":0,"x_max":581,"o":"m 125 417 q 69 430 93 417 q 31 464 46 443 q 8 510 15 485 q 0 561 0 536 l 0 563 q 8 576 0 571 q 25 582 15 582 q 38 579 29 582 q 49 569 47 576 q 50 554 50 563 l 50 551 q 51 522 50 540 q 60 486 53 504 q 84 455 68 468 q 129 442 100 442 q 163 451 147 442 q 191 477 179 461 q 209 512 203 493 q 215 550 215 531 q 199 599 215 578 q 144 621 182 621 l 138 621 q 121 628 126 621 q 115 643 115 635 q 121 656 117 650 q 133 663 125 663 l 136 663 q 150 661 142 661 q 189 685 172 661 q 206 722 200 700 q 213 768 213 744 q 194 834 213 804 q 131 867 175 864 l 128 867 q 74 849 99 867 q 49 803 49 831 l 49 799 q 54 768 50 779 q 63 749 58 757 q 72 735 68 742 q 76 715 76 728 q 69 690 76 700 q 46 679 61 679 q 36 681 39 679 q 3 719 11 686 q 1 732 1 726 q 0 744 0 738 q 22 826 0 786 q 64 873 38 854 q 129 892 90 892 q 229 854 192 892 q 267 767 267 817 l 267 761 q 214 653 267 701 q 256 608 242 635 q 269 550 269 581 q 260 501 269 525 q 234 459 251 478 q 191 428 217 440 q 131 417 165 417 l 125 417 m 175 -15 q 136 -43 163 -43 q 111 -33 122 -43 q 100 -7 100 -24 q 104 13 100 1 q 126 54 113 31 q 165 122 140 78 q 228 241 190 167 q 321 435 267 315 q 403 633 374 556 q 450 758 433 710 q 474 831 467 806 q 490 876 482 857 q 529 904 503 904 q 556 894 544 904 q 567 868 567 883 q 563 849 567 858 q 540 806 554 829 q 500 739 525 783 q 437 620 475 694 q 343 426 399 546 q 261 228 290 306 q 215 103 232 151 q 191 29 199 56 q 175 -15 183 3 m 531 46 q 536 39 531 40 q 547 38 542 38 l 547 24 l 468 24 l 468 38 q 478 38 474 38 q 483 46 483 39 l 483 132 l 278 132 q 383 310 331 221 q 489 489 436 399 l 531 489 l 531 172 l 581 172 l 581 132 l 531 132 l 531 46 m 483 426 l 335 172 l 483 172 l 483 426 z "},"":{"ha":549,"x_min":0,"x_max":493,"o":"m 269 657 q 232 675 247 657 q 217 718 217 693 q 232 763 217 744 q 269 781 247 781 q 306 763 290 781 q 321 718 321 744 q 306 675 321 693 q 269 657 290 657 m 396 321 q 435 307 417 321 q 465 269 453 293 q 485 213 478 244 q 493 149 493 182 q 480 60 493 104 q 436 -21 467 15 q 358 -80 406 -57 q 239 -103 310 -103 l 235 -103 q 143 -87 186 -103 q 69 -43 100 -71 q 19 25 38 -15 q 0 114 0 65 l 0 118 q 19 224 0 178 q 65 308 38 269 q 124 380 92 346 q 184 449 157 414 q 230 523 211 483 q 249 613 249 563 l 249 614 l 281 614 l 281 600 q 270 506 281 547 q 244 432 260 465 q 211 370 229 399 q 176 314 193 342 q 117 184 135 242 q 99 82 99 126 q 112 10 99 40 q 147 -41 125 -21 q 197 -71 168 -61 q 256 -81 225 -81 q 322 -69 289 -81 q 381 -34 354 -57 q 423 22 407 -11 q 439 100 439 56 l 439 111 q 425 163 438 144 q 397 194 413 182 q 366 219 381 207 q 346 253 351 232 q 343 274 343 260 q 355 306 343 293 q 394 321 367 319 l 396 321 z "},"":{"ha":724,"x_min":-26,"x_max":744,"o":"m 185 400 l 482 400 l 332 817 l 185 400 m 296 1069 q 311 1054 301 1067 q 326 1036 321 1042 q 363 994 343 1015 q 419 946 383 972 q 428 932 428 939 q 424 922 428 926 q 414 917 418 917 q 406 919 411 917 q 371 948 386 936 q 340 970 356 960 q 308 990 325 981 q 265 1011 290 1000 q 249 1038 249 1019 q 258 1063 249 1050 q 281 1075 268 1075 q 296 1069 289 1075 m 61 51 q 60 43 60 49 q 70 30 60 33 q 92 26 81 26 l 92 17 l -26 17 l -26 25 q 3 31 -11 25 q 25 51 18 36 l 146 394 l 146 400 l 149 400 l 300 829 q 307 857 307 850 q 298 874 307 869 q 269 878 289 878 l 269 893 l 390 893 l 693 51 q 710 33 697 40 q 736 25 722 25 l 744 25 l 744 15 l 578 15 l 578 25 l 583 25 q 610 44 610 25 q 608 51 610 49 l 492 372 l 175 374 l 61 51 z "},"":{"ha":724,"x_min":-26,"x_max":744,"o":"m 185 400 l 482 400 l 332 815 l 185 400 m 372 1035 q 386 1053 376 1040 q 401 1069 396 1065 q 415 1074 407 1074 q 439 1061 429 1074 q 449 1036 449 1049 q 432 1011 449 1019 q 390 990 407 1000 q 357 969 372 979 q 326 947 342 958 q 292 919 311 935 q 283 917 289 917 q 274 921 278 917 q 269 932 269 925 q 278 946 269 939 q 334 992 314 971 q 372 1035 354 1014 m 61 51 q 60 43 60 49 q 70 28 60 32 q 92 25 81 25 l 92 15 l -26 15 l -26 25 q 3 30 -11 25 q 25 50 18 35 l 146 394 l 146 400 l 149 400 l 300 829 q 307 857 307 850 q 298 874 307 869 q 269 878 289 878 l 269 893 l 390 893 l 693 50 q 710 31 697 39 q 736 24 722 24 l 744 24 l 744 15 l 578 15 l 578 24 l 583 24 q 610 43 610 24 q 608 50 610 47 l 492 372 l 175 372 l 61 51 z "},"":{"ha":724,"x_min":-26,"x_max":744,"o":"m 185 399 l 482 399 l 332 815 l 185 399 m 456 943 q 463 929 463 936 q 458 918 463 922 q 451 914 456 914 q 444 917 447 914 q 380 985 400 964 q 344 1006 360 1006 l 343 1006 q 309 983 328 1004 q 246 917 290 961 q 239 914 240 914 q 232 918 233 914 q 228 929 228 922 q 235 943 228 936 q 285 998 265 971 q 326 1058 304 1025 q 339 1069 333 1068 q 346 1072 344 1072 q 351 1069 349 1072 q 364 1058 357 1068 q 406 998 388 1025 q 456 943 425 971 m 61 50 q 60 42 60 47 q 70 28 60 32 q 92 25 81 25 l 92 15 l -26 15 l -26 24 q 3 29 -11 24 q 25 50 18 35 l 146 393 l 146 399 l 149 399 l 300 828 q 307 856 307 849 q 298 872 307 868 q 269 876 289 876 l 269 893 l 390 892 l 693 50 q 710 31 697 39 q 736 24 722 24 l 744 24 l 744 14 l 578 14 l 578 24 l 583 24 q 610 43 610 24 q 608 50 610 47 l 492 372 l 175 372 l 61 50 z "},"":{"ha":724,"x_min":-26,"x_max":744,"o":"m 185 399 l 482 399 l 332 814 l 185 399 m 61 50 q 60 42 60 47 q 70 27 60 31 q 92 24 81 24 l 92 14 l -26 14 l -26 24 q 3 28 -11 24 q 25 49 18 33 l 146 393 l 146 399 l 149 399 l 300 828 q 307 856 307 849 q 298 872 307 868 q 269 876 289 876 l 269 892 l 390 892 l 693 49 q 710 30 697 38 q 736 22 722 22 l 744 22 l 744 14 l 578 14 l 578 24 l 583 24 q 610 42 610 24 q 608 49 610 46 l 492 371 l 175 371 l 61 50 m 211 957 q 249 1026 229 1007 q 292 1046 269 1046 q 334 1033 313 1046 q 377 1006 356 1021 q 420 978 399 990 q 461 965 442 965 l 463 965 q 488 981 478 967 q 499 1028 499 994 l 510 1028 q 492 942 507 965 q 454 919 478 919 q 411 931 435 919 q 363 956 388 943 q 315 981 339 969 q 271 993 292 993 q 242 984 256 993 q 221 951 229 975 l 211 957 z "},"":{"ha":724,"x_min":-26,"x_max":744,"o":"m 185 397 l 482 397 l 332 814 l 185 397 m 315 981 q 303 952 315 964 q 275 940 292 940 q 247 952 258 940 q 235 981 235 964 q 247 1009 235 997 q 275 1021 258 1021 q 303 1009 292 1021 q 315 981 315 997 m 460 981 q 448 952 460 964 q 419 940 436 940 q 391 952 403 940 q 379 981 379 964 q 391 1009 379 997 q 419 1021 403 1021 q 448 1009 436 1021 q 460 981 460 997 m 61 49 q 60 40 60 46 q 70 27 60 31 q 92 24 81 24 l 92 14 l -26 14 l -26 22 q 3 28 -11 22 q 25 49 18 33 l 146 392 l 146 397 l 149 397 l 300 826 q 307 856 307 847 q 298 872 307 868 q 269 875 289 875 l 269 892 l 390 892 l 693 49 q 710 30 697 38 q 736 22 722 22 l 744 22 l 744 13 l 578 13 l 578 22 l 583 22 q 610 42 610 22 q 608 49 610 46 l 492 371 l 175 371 l 61 49 z "},"":{"ha":724,"x_min":-26,"x_max":744,"o":"m 185 397 l 482 397 l 332 813 l 185 397 m 335 915 q 367 928 354 915 q 381 961 381 942 q 367 994 381 981 q 335 1007 354 1007 q 302 994 315 1007 q 289 961 289 981 q 302 928 289 942 q 335 915 315 915 m 410 961 q 395 917 410 936 q 358 890 381 897 l 390 890 l 693 47 q 710 29 697 36 q 736 22 722 22 l 744 22 l 744 13 l 578 13 l 578 22 l 583 22 q 610 40 610 22 q 608 47 610 44 l 492 369 l 175 369 l 61 49 q 60 40 60 46 q 70 26 60 29 q 92 22 81 22 l 92 13 l -26 13 l -26 22 q 3 27 -11 22 q 25 47 18 32 l 146 392 l 146 397 l 149 397 l 300 826 q 307 854 307 847 q 298 871 307 867 q 269 875 289 875 l 269 890 l 311 890 q 275 917 289 897 q 261 961 261 936 q 283 1015 261 993 q 335 1036 304 1036 q 388 1015 367 1036 q 410 961 410 993 z "},"":{"ha":839,"x_min":-26,"x_max":822,"o":"m 92 13 l -26 13 l -26 21 q 3 26 -11 21 q 25 47 18 32 l 146 390 l 146 396 l 149 396 l 300 825 q 307 854 307 846 q 298 870 307 867 q 269 874 289 874 l 269 890 q 528 890 400 890 q 788 889 657 889 l 819 794 l 813 794 q 778 828 803 813 q 715 851 756 840 q 607 861 675 861 l 403 861 l 403 856 l 401 485 l 583 485 q 621 497 601 485 q 640 524 640 508 l 640 544 l 656 544 l 656 399 l 640 399 l 640 417 q 621 445 640 433 q 583 457 601 457 l 401 457 l 401 46 l 403 40 l 651 40 q 740 51 707 40 q 790 74 772 61 q 818 107 811 89 l 822 107 l 797 11 l 301 13 l 301 21 l 306 21 q 324 28 317 21 q 332 46 332 35 l 332 369 l 175 369 l 61 47 q 60 39 60 44 q 70 26 60 29 q 92 22 81 22 l 92 13 m 332 396 l 332 813 l 185 396 l 332 396 z "},"":{"ha":786,"x_min":19,"x_max":768,"o":"m 454 33 q 545 60 501 38 q 626 118 589 82 q 690 202 663 154 q 733 308 718 250 q 750 322 738 322 q 768 306 768 322 l 768 303 q 721 183 750 238 q 649 88 692 128 q 549 24 606 47 q 417 0 492 1 l 410 -21 q 419 -20 414 -21 q 431 -19 425 -19 q 469 -23 449 -19 q 506 -37 489 -26 q 534 -65 522 -47 q 546 -111 546 -82 l 546 -112 q 508 -192 546 -165 q 424 -219 469 -219 q 351 -201 385 -219 q 306 -143 317 -182 l 324 -139 q 358 -180 332 -165 q 414 -194 385 -194 q 472 -177 446 -194 q 503 -121 499 -160 l 503 -117 q 474 -76 503 -93 q 368 -58 444 -58 l 385 0 q 242 41 308 4 q 126 138 175 78 q 48 279 76 199 q 19 450 19 360 q 50 624 19 543 q 133 767 81 706 q 255 863 185 828 q 404 899 325 899 q 509 884 457 899 q 603 840 561 869 q 676 769 646 811 q 714 674 706 728 q 715 669 714 671 q 715 664 715 667 q 698 626 715 640 q 661 613 681 613 q 628 625 643 613 q 614 665 614 638 q 595 748 613 710 q 547 814 578 786 q 476 857 517 842 q 386 872 435 872 q 372 872 379 872 q 358 871 365 872 q 265 834 310 867 q 188 749 221 801 q 134 627 154 696 q 114 481 114 558 q 114 451 114 465 q 117 421 114 436 q 154 266 126 338 q 224 142 182 194 q 319 61 265 90 q 432 32 372 32 q 442 32 438 32 q 454 33 447 32 z "},"":{"ha":597,"x_min":60,"x_max":581,"o":"m 160 39 l 410 39 q 497 49 465 39 q 547 72 529 60 q 575 106 567 88 l 581 106 l 554 10 l 60 11 l 60 19 l 63 19 q 81 26 74 19 q 89 44 89 33 l 90 856 q 83 872 90 865 q 64 879 75 879 l 60 879 l 60 889 l 544 888 l 578 793 l 571 793 q 536 826 561 811 q 474 849 514 839 q 365 860 433 860 l 161 860 q 160 854 160 858 l 160 485 l 343 485 q 380 496 361 485 q 399 522 399 507 l 399 543 l 414 543 q 413 470 413 507 q 413 397 413 433 l 397 397 l 397 415 q 378 444 397 432 q 340 456 360 456 l 160 456 l 160 39 m 206 1057 q 228 1069 215 1069 q 242 1064 236 1069 q 258 1049 247 1061 q 272 1031 268 1036 q 310 988 289 1010 q 367 942 331 967 q 374 929 374 936 q 369 917 374 921 q 358 913 365 913 q 351 914 354 913 q 317 942 332 931 q 286 965 301 954 q 253 985 271 975 q 213 1006 236 994 q 194 1032 194 1014 q 206 1057 194 1046 z "},"":{"ha":597,"x_min":60,"x_max":581,"o":"m 160 39 l 410 38 q 497 48 465 38 q 547 71 529 58 q 575 106 567 86 l 581 104 l 554 10 l 60 10 l 60 19 l 63 19 q 81 26 74 19 q 89 44 89 33 l 90 854 q 83 872 90 865 q 64 879 75 879 l 60 879 l 60 888 l 544 888 l 578 793 l 571 792 q 536 825 561 810 q 474 849 514 838 q 365 860 433 860 l 161 860 q 160 854 160 858 l 160 483 l 340 483 q 378 494 358 483 q 399 522 399 506 l 399 543 l 414 543 q 413 469 413 507 q 413 396 413 432 l 397 397 l 397 415 q 378 444 397 432 q 340 456 360 456 l 160 456 l 160 39 m 364 1064 q 378 1069 369 1069 q 400 1057 390 1069 q 410 1031 410 1044 q 393 1006 410 1014 q 351 985 368 994 q 318 965 333 975 q 288 942 303 954 q 254 914 272 931 q 246 911 249 911 q 236 917 242 911 q 232 928 232 921 q 239 940 232 935 q 295 988 275 967 q 333 1031 315 1010 q 348 1048 338 1036 q 364 1064 358 1060 z "},"":{"ha":597,"x_min":60,"x_max":581,"o":"m 160 38 l 410 38 q 497 48 465 38 q 547 71 529 58 q 575 106 567 86 l 581 104 l 554 10 l 60 10 l 60 19 l 63 19 q 89 43 89 19 l 90 854 q 83 872 90 865 q 64 879 75 879 l 60 879 l 60 888 l 544 888 l 578 793 l 571 792 q 536 825 561 810 q 474 849 514 838 q 365 860 433 860 l 161 860 q 160 854 160 857 l 160 483 l 340 483 q 378 494 358 483 q 399 522 399 506 l 399 542 l 414 542 q 413 469 413 506 q 413 396 413 432 l 397 396 l 397 414 q 378 443 397 431 q 340 456 360 456 l 160 456 l 160 38 m 360 1064 q 402 1002 383 1029 q 453 949 421 975 q 458 935 458 943 q 456 924 458 929 q 447 919 451 919 q 440 921 443 919 q 376 989 396 968 q 342 1010 357 1010 l 340 1010 q 306 988 325 1010 q 242 921 286 967 q 236 919 240 919 q 228 924 229 919 q 225 935 225 929 q 231 949 225 943 q 281 1002 261 975 q 324 1064 300 1029 q 335 1075 326 1069 q 342 1076 338 1076 q 349 1075 347 1076 q 360 1064 357 1069 z "},"":{"ha":597,"x_min":60,"x_max":581,"o":"m 160 38 l 410 38 q 497 48 465 38 q 547 71 529 58 q 575 104 567 86 l 581 104 l 554 8 l 60 10 l 60 18 l 63 18 q 81 25 74 18 q 89 43 89 32 l 90 853 q 83 871 90 864 q 64 878 75 878 l 60 878 l 60 888 l 544 886 l 578 792 l 571 792 q 536 825 561 810 q 474 848 514 838 q 365 858 433 858 l 161 858 q 160 853 160 857 l 160 483 l 340 482 q 378 494 358 482 q 399 521 399 506 l 399 542 l 414 542 q 413 469 413 506 q 413 396 413 432 l 397 396 l 397 414 q 378 442 397 431 q 340 454 360 454 l 160 454 l 160 38 m 314 976 q 302 948 314 960 q 274 936 290 936 q 244 948 256 936 q 232 976 232 960 q 244 1005 232 993 q 274 1017 256 1017 q 302 1005 290 1017 q 314 976 314 993 m 418 936 q 388 948 400 936 q 376 976 376 960 q 388 1005 376 993 q 418 1017 400 1017 q 447 1005 435 1017 q 458 976 458 993 q 447 948 458 960 q 418 936 435 936 z "},"":{"ha":265,"x_min":38,"x_max":217,"o":"m 161 43 q 169 25 161 32 q 188 18 176 18 l 190 18 l 190 8 l 61 8 l 61 18 l 64 18 q 83 25 75 18 q 90 43 90 32 l 92 853 q 84 871 92 864 q 65 878 76 878 l 63 878 l 63 886 l 192 886 l 192 878 l 189 878 q 169 871 178 878 q 161 853 161 864 l 161 43 m 47 1056 q 69 1068 57 1068 q 85 1063 78 1068 q 100 1047 90 1060 q 114 1029 110 1035 q 152 987 132 1008 q 208 939 172 965 q 217 925 217 932 q 213 915 217 919 q 203 910 207 910 q 194 913 200 910 q 160 941 175 929 q 129 963 144 953 q 97 983 114 974 q 54 1004 79 993 q 38 1031 38 1013 q 47 1056 38 1043 z "},"":{"ha":281,"x_min":60,"x_max":239,"o":"m 183 42 q 191 25 183 32 q 210 18 199 18 l 213 18 l 213 8 l 83 8 l 83 18 l 86 18 q 106 25 97 18 q 114 42 114 32 l 114 853 q 106 871 114 864 q 88 878 99 878 l 85 878 l 85 886 l 214 886 l 214 878 l 211 878 q 192 871 200 878 q 183 853 183 864 l 183 42 m 192 1063 q 207 1068 199 1068 q 229 1056 219 1068 q 239 1029 239 1043 q 222 1004 239 1013 q 180 983 197 993 q 147 963 163 974 q 117 941 132 953 q 82 913 101 929 q 74 910 76 910 q 64 915 69 910 q 60 925 60 919 q 68 939 60 932 q 124 987 104 965 q 161 1029 144 1008 q 176 1047 165 1035 q 192 1063 186 1058 z "},"":{"ha":296,"x_min":28,"x_max":261,"o":"m 179 42 q 187 24 179 31 q 206 18 194 18 l 208 18 l 208 8 l 79 8 l 79 18 l 82 18 q 101 25 93 18 q 110 42 110 32 l 110 853 q 102 871 110 864 q 83 878 94 878 l 81 878 l 81 886 l 210 886 l 210 878 l 207 878 q 188 871 196 878 q 179 853 179 864 l 179 42 m 163 1063 q 206 1001 186 1028 q 256 947 225 974 q 261 933 261 942 q 258 922 261 928 q 250 918 256 918 q 244 919 246 918 q 180 988 200 967 q 144 1008 160 1008 l 143 1008 q 109 987 128 1008 q 46 921 90 965 q 39 918 43 918 q 31 922 35 918 q 28 933 28 928 q 33 947 28 942 q 84 1001 65 975 q 126 1063 103 1028 q 139 1074 132 1071 q 146 1075 142 1075 q 151 1074 150 1075 q 163 1063 160 1068 z "},"":{"ha":306,"x_min":38,"x_max":264,"o":"m 185 42 q 192 24 185 31 q 211 17 200 17 l 214 17 l 214 8 l 85 8 l 85 17 l 88 17 q 107 24 99 17 q 115 42 115 31 l 115 853 q 108 869 115 863 q 89 876 100 876 l 86 876 l 86 886 l 215 886 l 215 876 l 213 876 q 193 869 201 876 q 185 853 185 863 l 185 42 m 119 975 q 107 947 119 958 q 78 935 94 935 q 49 947 61 935 q 38 975 38 958 q 49 1005 38 993 q 78 1017 61 1017 q 107 1005 94 1017 q 119 975 119 993 m 222 935 q 194 947 206 935 q 182 975 182 958 q 194 1005 182 993 q 222 1017 206 1017 q 252 1004 240 1017 q 264 975 264 992 q 251 947 264 958 q 222 935 239 935 z "},"":{"ha":818,"x_min":60,"x_max":769,"o":"m 390 36 q 521 71 465 36 q 613 163 576 106 q 667 292 650 219 q 685 442 685 365 l 685 451 q 667 601 685 528 q 613 731 649 674 q 522 822 576 788 q 390 857 467 857 l 214 857 q 195 850 203 857 q 188 833 188 843 l 188 717 l 186 414 l 350 414 l 350 343 l 186 343 l 186 61 q 194 43 186 50 q 213 36 201 36 l 390 36 m 60 415 l 117 415 l 117 853 q 109 869 117 863 q 90 876 101 876 l 88 876 l 88 886 l 424 886 q 574 849 510 886 q 682 752 639 813 q 747 614 725 692 q 769 456 768 536 l 769 447 q 748 287 769 365 q 684 147 726 208 q 577 47 642 85 q 426 8 513 8 l 86 8 l 86 17 l 90 17 q 109 24 101 17 q 117 42 117 31 l 117 343 l 60 343 l 60 415 z "},"":{"ha":769,"x_min":60,"x_max":721,"o":"m 169 885 l 656 139 l 657 851 q 649 869 657 863 q 631 875 642 875 l 628 875 l 628 885 l 721 885 l 721 875 l 718 875 q 699 869 707 875 q 690 851 690 863 l 690 7 l 658 7 l 124 831 l 124 40 q 131 24 124 31 q 150 17 139 17 l 153 17 l 153 7 l 60 7 l 60 17 l 63 17 q 81 24 74 17 q 89 40 89 31 l 90 851 q 83 869 90 863 q 64 876 75 876 l 60 876 l 60 885 l 169 885 m 257 958 q 296 1029 275 1010 q 339 1049 317 1049 q 381 1036 360 1049 q 425 1008 403 1024 q 468 981 447 993 q 508 968 489 968 l 510 968 q 535 983 525 969 q 546 1031 544 996 l 556 1029 q 538 944 553 967 q 500 921 524 921 q 457 933 481 921 q 409 958 433 944 q 361 984 385 972 q 318 996 338 996 q 290 987 303 996 q 268 954 276 978 l 257 958 z "},"":{"ha":874,"x_min":19,"x_max":825,"o":"m 825 442 q 793 267 825 349 q 707 124 761 185 q 579 27 653 63 q 422 -8 506 -8 q 265 27 339 -8 q 138 124 192 63 q 51 267 83 185 q 19 442 19 349 q 51 617 19 535 q 138 760 83 699 q 265 856 192 821 q 422 892 339 892 q 579 856 506 892 q 707 758 653 819 q 793 616 761 697 q 825 442 825 535 m 381 1060 q 396 1044 386 1057 q 410 1026 406 1032 q 448 984 428 1006 q 504 938 468 963 q 513 924 513 931 q 508 913 513 917 q 497 908 504 908 q 490 910 493 908 q 456 938 471 926 q 425 960 440 950 q 392 981 410 971 q 350 1001 375 990 q 333 1028 333 1010 q 343 1053 333 1040 q 365 1065 353 1065 q 381 1060 374 1065 m 469 31 q 581 68 529 36 q 669 151 632 100 q 726 268 706 201 q 747 410 747 335 q 743 471 747 439 q 702 622 733 551 q 624 743 671 692 q 519 824 578 794 q 397 853 461 853 q 386 853 392 853 q 374 851 381 853 q 263 815 314 846 q 176 733 213 783 q 118 615 139 682 q 97 474 97 549 q 101 413 97 443 q 142 261 111 331 q 221 140 174 192 q 326 58 268 88 q 447 29 385 29 q 458 30 453 29 q 469 31 464 31 z "},"":{"ha":874,"x_min":19,"x_max":825,"o":"m 825 440 q 794 266 825 347 q 708 124 763 185 q 581 27 654 63 q 425 -8 508 -8 l 422 -8 q 265 27 339 -8 q 138 124 192 63 q 51 267 83 185 q 19 442 19 349 q 51 616 19 535 q 138 758 83 697 q 265 855 192 819 q 422 890 339 890 q 579 855 506 890 q 707 758 653 819 q 793 615 761 697 q 825 440 825 533 m 476 1026 q 491 1044 481 1032 q 507 1060 501 1056 q 521 1065 513 1065 q 543 1053 533 1065 q 553 1026 553 1040 q 536 1001 553 1010 q 494 980 511 990 q 461 959 476 969 q 431 937 446 949 q 397 910 415 925 q 389 907 392 907 q 379 913 385 907 q 375 924 375 917 q 382 936 375 931 q 438 984 418 963 q 476 1026 458 1006 m 469 31 q 581 68 529 36 q 669 151 632 100 q 726 267 706 201 q 747 408 747 333 q 743 469 747 438 q 702 620 733 550 q 624 742 671 690 q 518 824 576 794 q 396 853 460 853 q 385 852 390 853 q 374 851 379 851 q 263 814 314 846 q 176 731 213 782 q 118 614 139 681 q 97 472 97 547 q 101 411 97 442 q 142 260 111 329 q 220 139 174 190 q 325 58 267 88 q 446 29 383 29 q 458 29 453 29 q 469 31 463 29 z "},"":{"ha":874,"x_min":19,"x_max":825,"o":"m 825 440 q 793 265 825 347 q 707 122 761 183 q 579 26 653 61 q 422 -10 506 -10 q 265 26 339 -10 q 138 122 192 61 q 51 265 83 183 q 19 440 19 347 q 51 615 19 533 q 138 758 83 697 q 265 855 192 819 q 422 890 339 890 q 579 855 506 890 q 707 758 653 819 q 793 615 761 697 q 825 440 825 533 m 533 933 q 539 921 539 928 q 536 910 539 915 q 529 904 533 904 q 522 907 528 904 q 458 975 478 954 q 422 996 438 996 l 421 996 q 387 974 406 994 q 324 907 368 953 q 317 904 318 904 q 308 910 314 904 q 306 919 306 915 q 311 933 306 928 q 362 988 343 961 q 404 1050 381 1015 q 415 1060 410 1058 q 422 1063 421 1063 q 429 1060 426 1063 q 440 1050 435 1058 q 483 988 464 1015 q 533 933 503 961 m 469 31 q 581 67 529 36 q 669 149 632 99 q 726 267 706 200 q 747 408 747 333 q 743 469 747 438 q 702 620 733 550 q 624 742 671 690 q 519 822 578 793 q 397 851 461 851 q 386 851 392 851 q 374 850 381 851 q 263 813 314 844 q 176 731 213 782 q 118 614 139 681 q 97 472 97 547 q 101 411 97 442 q 142 260 111 329 q 220 139 174 190 q 325 58 267 88 q 446 29 383 29 q 458 29 453 29 q 469 31 463 29 z "},"":{"ha":874,"x_min":19,"x_max":825,"o":"m 825 439 q 794 265 825 346 q 708 122 763 183 q 581 26 654 61 q 425 -10 508 -10 l 422 -10 q 265 26 339 -10 q 138 122 192 61 q 51 265 83 183 q 19 440 19 347 q 51 615 19 533 q 138 757 83 696 q 265 853 192 818 q 422 889 339 889 q 579 853 506 889 q 707 757 653 818 q 793 614 761 696 q 825 439 825 532 m 274 957 q 312 1026 292 1007 q 354 1046 332 1046 q 397 1033 375 1046 q 440 1006 418 1021 q 483 978 461 990 q 524 965 504 965 l 525 965 q 551 981 540 967 q 561 1028 561 994 l 572 1028 q 555 942 569 965 q 517 919 540 919 q 474 931 497 919 q 426 956 450 943 q 378 981 401 969 q 333 993 354 993 q 305 984 318 993 q 283 951 292 975 l 274 957 m 469 29 q 581 67 529 35 q 669 149 632 99 q 726 266 706 200 q 747 407 747 332 q 743 468 747 436 q 702 619 733 549 q 624 741 671 689 q 518 822 576 793 q 396 851 460 851 q 385 851 390 851 q 374 850 379 850 q 263 813 314 844 q 176 730 213 781 q 118 613 139 679 q 97 471 97 546 q 101 410 97 440 q 142 258 111 328 q 220 138 174 189 q 325 57 267 86 q 446 28 383 28 q 458 28 453 28 q 469 29 463 28 z "},"":{"ha":874,"x_min":19,"x_max":825,"o":"m 825 439 q 793 264 825 346 q 707 121 761 182 q 579 24 653 60 q 422 -11 506 -11 q 265 24 339 -11 q 138 121 192 60 q 51 264 83 182 q 19 439 19 346 q 51 614 19 532 q 138 757 83 696 q 265 853 192 818 q 422 889 339 889 q 579 853 506 889 q 707 757 653 818 q 793 614 761 696 q 825 439 825 532 m 390 971 q 378 942 390 954 q 350 931 367 931 q 322 942 333 931 q 310 971 310 954 q 322 1000 310 988 q 350 1013 333 1013 q 378 1000 367 1013 q 390 971 390 988 m 535 971 q 523 942 535 954 q 494 931 511 931 q 466 942 478 931 q 454 971 454 954 q 466 999 454 988 q 494 1011 478 1011 q 523 999 511 1011 q 535 971 535 988 m 469 29 q 581 66 529 35 q 669 148 632 97 q 726 265 706 199 q 747 407 747 332 q 743 468 747 436 q 702 619 733 549 q 624 740 671 689 q 519 821 578 792 q 397 850 461 850 q 386 850 392 850 q 374 849 381 850 q 263 812 314 843 q 176 730 213 781 q 118 613 139 679 q 97 471 97 546 q 101 410 97 440 q 142 258 111 328 q 220 138 174 189 q 325 57 267 86 q 446 28 383 28 q 458 28 453 28 q 469 29 463 28 z "},"":{"ha":413,"x_min":0,"x_max":357,"o":"m 357 297 l 321 257 l 178 414 l 36 257 l 0 297 l 142 454 l 0 611 l 36 650 l 178 494 l 321 650 l 357 611 l 215 454 l 357 297 z "},"":{"ha":881,"x_min":26,"x_max":832,"o":"m 832 438 q 800 263 832 344 q 714 120 768 181 q 586 24 660 60 q 429 -11 513 -11 q 319 6 371 -11 q 221 53 267 22 q 212 34 217 42 q 203 19 207 26 q 165 -3 189 -3 q 138 8 150 -3 q 126 33 126 18 q 135 57 126 44 q 149 75 142 65 q 167 97 156 85 q 64 247 101 160 q 26 439 26 335 q 58 613 26 532 q 144 756 90 694 q 272 852 199 817 q 429 888 346 888 q 540 871 488 888 q 636 824 592 854 q 656 857 646 844 q 693 879 669 879 q 719 869 708 879 q 731 844 731 860 q 722 819 731 832 q 710 801 717 810 q 692 779 703 792 q 794 628 757 717 q 832 438 832 540 m 750 467 q 714 607 742 542 q 646 722 686 672 q 564 614 614 682 q 439 432 514 546 q 317 233 360 308 q 251 113 274 157 q 347 49 296 72 q 454 26 399 26 q 465 27 460 26 q 476 28 471 28 q 588 65 536 33 q 676 148 639 97 q 733 265 713 199 q 754 406 754 331 q 750 467 754 435 m 213 154 q 294 263 244 194 q 418 444 343 332 q 540 644 497 568 q 607 764 583 719 q 510 827 563 804 q 403 850 458 850 q 392 849 397 850 q 381 849 386 849 q 270 811 321 843 q 183 728 219 779 q 125 611 146 678 q 104 469 104 544 q 108 408 104 439 q 144 269 117 333 q 213 154 172 204 z "},"":{"ha":779,"x_min":54,"x_max":726,"o":"m 153 263 q 172 169 153 213 q 224 92 192 125 q 299 40 257 60 q 385 21 340 21 l 388 21 q 485 42 438 21 q 572 99 533 63 q 635 183 611 135 q 660 288 660 232 l 660 846 q 652 864 660 857 q 633 871 644 871 l 631 871 l 631 881 l 726 881 l 726 871 l 724 871 q 705 864 713 871 q 697 846 697 857 l 697 289 q 671 168 697 224 q 601 72 644 113 q 503 9 558 32 q 390 -14 447 -14 l 388 -14 q 276 9 331 -14 q 178 73 221 32 q 109 169 135 114 q 83 290 83 225 l 83 847 q 57 871 83 871 l 54 871 l 54 881 l 183 881 l 183 871 l 181 871 q 162 864 169 871 q 154 847 154 857 l 153 263 m 311 1049 q 333 1061 321 1061 q 349 1056 342 1061 q 364 1040 354 1053 q 378 1022 374 1028 q 416 980 396 1001 q 472 933 436 958 q 481 919 481 926 q 476 908 481 913 q 465 904 472 904 q 458 906 461 904 q 424 934 439 922 q 393 956 408 946 q 360 976 378 967 q 318 997 343 986 q 301 1024 301 1006 q 311 1049 301 1036 z "},"":{"ha":779,"x_min":54,"x_max":726,"o":"m 153 261 q 172 167 153 211 q 224 91 192 124 q 299 40 257 58 q 385 19 340 21 l 388 19 q 485 40 438 19 q 572 97 533 61 q 635 182 611 133 q 660 286 660 231 l 660 846 q 652 864 660 857 q 633 871 644 871 l 631 871 l 631 879 l 726 879 l 726 871 l 724 871 q 705 864 713 871 q 697 846 697 857 l 697 289 q 671 168 697 224 q 601 72 644 113 q 503 8 558 31 q 390 -15 447 -15 l 388 -15 q 276 8 331 -15 q 178 72 221 32 q 109 168 135 113 q 83 289 83 224 l 83 846 q 76 864 83 857 q 57 871 68 871 l 54 871 l 54 879 l 183 879 l 183 871 l 181 871 q 162 864 169 871 q 154 846 154 857 l 153 261 m 506 1056 q 519 1061 511 1061 q 542 1049 532 1061 q 553 1022 553 1038 q 535 997 553 1006 q 492 976 510 986 q 460 956 475 967 q 429 934 444 946 q 396 906 414 922 q 388 903 390 903 q 378 908 383 903 q 374 919 374 913 q 381 932 374 926 q 438 980 417 958 q 475 1022 458 1001 q 490 1040 479 1028 q 506 1056 500 1051 z "},"":{"ha":779,"x_min":54,"x_max":726,"o":"m 153 261 q 172 167 153 211 q 224 91 192 124 q 299 39 257 58 q 385 19 340 19 l 388 19 q 485 40 438 19 q 572 97 533 61 q 635 182 611 133 q 660 286 660 231 l 660 846 q 652 863 660 856 q 633 869 644 869 l 631 869 l 631 879 l 726 879 l 726 869 l 724 869 q 705 863 713 869 q 697 846 697 856 l 697 288 q 671 167 697 222 q 601 71 644 111 q 503 8 558 31 q 390 -15 447 -15 l 388 -15 q 276 8 331 -15 q 178 72 221 31 q 109 168 135 113 q 83 289 83 224 l 83 846 q 76 864 83 857 q 57 871 68 871 l 54 871 l 54 879 l 183 879 l 183 869 l 181 869 q 154 846 154 869 l 153 261 m 408 1046 q 451 984 432 1011 q 501 929 471 957 q 507 917 507 924 q 504 906 507 911 q 497 900 501 900 q 490 903 496 900 q 426 971 446 950 q 390 992 406 992 l 389 992 q 355 969 374 990 q 292 903 336 949 q 285 900 286 900 q 276 906 282 900 q 274 915 274 911 q 279 931 274 925 q 330 984 311 957 q 372 1046 349 1011 q 385 1056 378 1054 q 392 1058 390 1058 q 397 1056 394 1058 q 408 1046 403 1054 z "},"":{"ha":779,"x_min":54,"x_max":726,"o":"m 153 261 q 172 167 153 211 q 224 91 192 124 q 299 39 257 58 q 385 19 340 19 l 389 19 q 487 40 439 19 q 573 97 535 61 q 635 181 611 133 q 660 285 660 229 l 660 844 q 652 863 660 856 q 633 869 644 869 l 631 869 l 631 878 l 726 878 l 726 869 l 724 869 q 705 863 713 869 q 697 844 697 856 l 697 288 q 671 166 697 222 q 601 69 644 110 q 501 6 557 29 q 388 -17 446 -17 q 276 7 331 -17 q 178 71 221 31 q 109 167 135 111 q 83 288 83 222 l 83 844 q 76 863 83 856 q 57 869 68 869 l 54 869 l 54 879 l 183 879 l 183 869 l 181 869 q 162 863 169 869 q 154 844 154 856 l 153 261 m 358 968 q 347 940 358 951 q 318 928 335 928 q 290 940 301 928 q 278 968 278 951 q 290 997 278 985 q 318 1008 301 1008 q 347 997 335 1008 q 358 968 358 985 m 463 928 q 434 940 446 928 q 422 968 422 951 q 434 997 422 985 q 463 1008 446 1008 q 492 997 479 1008 q 504 968 504 985 q 491 940 503 951 q 463 928 479 928 z "},"":{"ha":574,"x_min":-18,"x_max":640,"o":"m 346 460 l 346 33 q 353 15 346 22 q 372 8 361 8 l 375 8 l 375 0 l 246 0 l 246 8 l 249 8 q 267 15 260 8 q 275 33 275 22 l 275 458 l 29 844 q 10 863 22 856 q -14 869 -3 869 l -18 869 l -18 878 l 132 878 l 132 869 l 129 869 q 114 857 114 869 q 118 844 114 850 l 335 504 l 554 844 q 558 857 558 850 q 543 869 558 869 l 540 869 l 540 878 l 640 878 l 640 868 l 636 868 q 613 861 625 868 q 593 844 600 854 l 356 474 l 346 460 m 354 1054 q 368 1058 360 1058 q 392 1046 379 1058 q 401 1021 401 1033 q 383 996 401 1004 q 342 974 360 985 q 310 953 325 964 q 279 931 294 943 q 244 904 264 919 q 236 901 239 901 q 226 906 231 901 q 222 918 222 910 q 229 931 222 925 q 286 977 265 956 q 324 1019 307 999 q 338 1038 328 1026 q 354 1054 349 1050 z "},"":{"ha":719,"x_min":60,"x_max":688,"o":"m 160 33 q 167 15 160 22 q 186 8 175 8 l 189 8 l 189 -1 l 60 -1 l 60 8 l 63 8 q 81 15 74 8 q 89 33 89 22 l 90 843 q 83 861 90 854 q 64 868 75 868 l 60 868 l 60 876 l 160 876 l 160 774 l 408 774 q 531 751 478 774 q 618 690 583 728 q 670 603 653 651 q 688 503 688 554 q 670 404 688 453 q 618 317 653 356 q 531 256 583 279 q 408 232 478 232 l 160 232 l 160 33 m 160 740 l 160 251 l 365 251 q 470 273 425 251 q 546 330 515 294 q 591 410 576 365 q 606 503 606 456 q 591 595 606 550 q 547 676 576 640 q 472 733 517 711 q 367 754 426 754 l 165 754 l 160 740 z "},"":{"ha":713,"x_min":78,"x_max":681,"o":"m 244 42 q 308 22 272 29 q 374 14 343 14 l 381 14 q 469 39 431 14 q 535 103 508 64 q 574 189 561 142 q 588 281 588 236 l 588 290 q 571 374 586 332 q 528 448 556 415 q 463 501 501 481 q 376 522 424 521 q 341 532 351 524 q 331 551 331 540 q 339 572 331 563 q 360 586 347 582 q 447 642 417 601 q 476 726 476 682 q 438 813 476 775 q 317 854 400 851 l 314 854 q 252 841 282 854 q 199 802 222 828 q 161 738 175 776 q 147 651 147 700 q 148 480 147 560 q 149 322 149 400 q 149 163 149 243 q 149 -8 149 83 l 78 -8 l 78 661 q 100 769 78 728 q 159 834 122 811 q 242 865 196 857 q 335 874 288 874 q 420 858 379 874 q 493 816 461 842 q 544 758 525 790 q 564 693 564 726 l 564 688 q 549 628 561 657 q 511 576 536 600 q 489 543 489 554 q 508 522 489 529 q 551 499 528 514 q 649 397 618 460 q 681 268 681 335 l 681 256 q 657 158 678 206 q 599 74 636 111 q 508 14 561 36 q 385 -8 454 -8 q 310 -6 344 -8 q 235 17 275 -3 l 244 42 z "},"":{"ha":600,"x_min":25,"x_max":572,"o":"m 263 847 q 277 832 268 843 q 290 817 286 821 q 324 778 306 797 q 375 735 343 758 q 382 722 382 731 q 379 713 382 718 q 371 708 375 708 q 363 711 368 708 q 332 736 346 725 q 304 757 318 747 q 274 775 290 767 q 236 793 258 783 q 221 817 221 800 q 229 840 221 829 q 250 851 238 851 q 263 847 256 851 m 517 76 q 520 32 517 53 q 540 11 524 11 l 543 11 q 558 40 554 14 q 565 44 558 44 q 572 39 572 44 l 572 38 q 549 -5 565 7 q 513 -17 532 -17 l 508 -17 q 477 -7 489 -17 q 458 16 465 3 q 449 45 451 29 q 446 75 446 61 l 446 111 q 410 62 428 85 q 367 21 392 39 q 310 -8 343 3 q 229 -21 276 -19 l 221 -21 q 139 -4 175 -21 q 77 40 103 13 q 38 102 51 67 q 25 174 25 138 q 37 239 25 207 q 73 297 49 271 q 135 343 97 324 q 226 369 174 363 q 288 375 257 374 q 351 376 319 376 q 399 376 375 376 q 446 375 422 375 l 446 422 q 447 435 446 429 q 447 449 447 442 q 435 536 447 500 q 405 594 424 572 q 363 627 386 617 q 314 638 339 638 q 268 629 290 638 q 228 606 246 621 q 199 572 211 592 q 186 529 188 553 q 167 474 182 488 q 135 457 153 460 l 129 457 q 90 471 104 457 q 75 508 75 485 l 75 511 q 97 571 76 543 q 150 619 117 599 q 224 652 183 640 q 308 664 265 664 q 385 652 347 664 q 451 613 422 640 q 499 543 481 586 q 517 439 517 500 l 517 76 m 446 346 q 397 347 422 346 q 349 347 372 347 q 297 346 322 347 q 247 340 271 344 q 140 280 174 328 q 107 178 107 232 q 117 116 107 146 q 145 63 126 86 q 190 24 164 39 q 249 10 217 10 l 254 10 q 331 40 296 11 q 392 113 367 68 q 433 212 418 157 q 447 321 447 267 q 447 333 447 328 q 446 346 446 339 z "},"":{"ha":600,"x_min":25,"x_max":572,"o":"m 319 817 q 333 833 324 822 q 346 847 342 844 q 358 851 351 851 q 379 840 371 851 q 389 817 389 828 q 374 794 389 801 q 335 775 351 783 q 306 757 319 767 q 278 736 292 747 q 247 711 264 725 q 240 710 244 710 q 231 714 235 710 q 228 724 228 719 q 235 736 228 731 q 285 778 267 760 q 319 817 304 797 m 517 76 q 520 32 517 53 q 542 11 524 11 l 543 11 q 558 40 554 14 q 565 44 558 44 q 572 39 572 44 l 572 38 q 547 -6 565 6 q 508 -17 529 -17 q 477 -7 489 -17 q 458 16 465 3 q 449 45 451 29 q 446 75 446 61 l 446 111 q 410 63 428 86 q 367 22 392 39 q 310 -7 343 4 q 229 -19 276 -18 l 219 -19 q 138 -3 174 -19 q 76 41 101 14 q 38 103 51 68 q 25 174 25 138 q 37 239 25 207 q 73 298 49 271 q 135 344 97 325 q 226 371 174 364 q 281 376 254 375 q 336 378 308 378 q 392 377 364 378 q 446 375 419 376 l 446 422 q 447 435 446 429 q 447 449 447 442 q 435 536 447 500 q 405 594 424 572 q 363 627 386 617 q 314 638 339 638 q 268 629 290 638 q 228 606 246 621 q 199 572 211 592 q 186 529 188 553 q 167 474 182 488 q 135 457 153 460 l 129 457 q 90 472 104 457 q 75 510 75 486 l 75 513 q 97 571 76 543 q 149 619 117 599 q 224 652 182 640 q 307 664 265 664 q 385 652 347 664 q 451 613 422 640 q 499 543 481 586 q 517 439 517 500 l 517 76 m 254 10 q 331 40 296 11 q 392 113 367 68 q 433 212 418 157 q 447 321 447 267 q 447 333 447 328 q 446 346 446 339 q 397 348 422 347 q 349 349 372 349 q 297 347 322 349 q 247 342 271 346 q 140 281 174 329 q 107 179 107 233 q 117 117 107 147 q 145 63 126 86 q 190 24 164 39 q 250 10 217 10 l 254 10 z "},"":{"ha":600,"x_min":25,"x_max":572,"o":"m 410 729 q 415 717 415 724 q 413 707 415 713 q 404 703 410 703 q 399 704 400 703 q 340 766 358 747 q 308 785 322 785 l 307 785 q 277 765 294 785 q 219 704 260 746 q 214 703 218 703 q 206 707 207 703 q 203 717 203 713 q 208 729 203 724 q 254 778 236 753 q 293 833 272 803 q 303 843 297 842 q 310 846 308 846 q 315 843 313 846 q 325 833 321 842 q 364 778 346 803 q 410 729 382 753 m 517 76 q 520 33 517 53 q 540 13 524 13 l 543 13 q 558 42 554 13 q 565 44 558 44 q 572 40 572 44 l 572 39 q 547 -6 565 6 q 508 -17 529 -17 q 477 -6 489 -15 q 458 17 465 3 q 449 46 451 31 q 446 75 446 61 l 446 113 q 410 63 428 86 q 367 22 392 40 q 310 -7 343 4 q 229 -19 276 -18 l 221 -19 q 139 -3 175 -19 q 77 41 103 14 q 38 103 51 68 q 25 175 25 139 q 37 240 25 208 q 73 299 49 272 q 135 344 97 325 q 226 371 174 364 q 281 376 254 375 q 336 378 308 378 q 392 377 364 378 q 446 375 419 376 l 446 422 q 447 435 446 429 q 447 449 447 442 q 435 536 447 500 q 405 594 424 572 q 363 627 386 617 q 314 638 339 638 q 268 629 290 638 q 228 606 246 621 q 199 572 211 592 q 186 529 188 553 q 167 474 182 488 q 135 458 153 460 l 128 458 q 90 472 104 458 q 75 510 75 486 l 75 513 q 97 572 76 544 q 149 620 117 600 q 224 652 182 640 q 307 664 265 664 q 385 652 347 664 q 451 614 422 640 q 499 544 481 588 q 517 440 517 501 l 517 76 m 446 347 q 401 348 424 347 q 357 349 379 349 q 300 347 328 349 q 247 342 272 346 q 140 281 174 329 q 107 179 107 233 q 117 117 107 147 q 145 63 126 86 q 190 24 164 39 q 250 10 217 10 l 254 10 q 331 40 296 11 q 392 113 367 68 q 433 213 418 157 q 447 322 447 268 q 447 335 447 329 q 446 347 446 340 z "},"":{"ha":600,"x_min":25,"x_max":572,"o":"m 183 744 q 215 802 199 786 q 250 818 232 818 q 286 808 268 818 q 322 785 304 797 q 356 763 339 774 q 389 753 374 753 l 390 753 q 411 765 403 754 q 421 804 419 776 l 429 804 q 414 733 426 753 q 382 714 401 714 q 347 723 367 714 q 308 744 328 732 q 269 765 289 756 q 233 774 250 774 q 209 767 219 774 q 192 740 199 760 l 183 744 m 517 76 q 520 33 517 53 q 540 13 524 13 l 543 13 q 558 42 554 13 q 565 46 558 46 q 572 40 572 46 l 572 39 q 549 -3 565 8 q 513 -15 532 -15 l 508 -15 q 477 -6 489 -15 q 458 17 465 4 q 449 47 451 31 q 446 76 446 63 l 446 113 q 410 63 428 86 q 367 22 392 40 q 310 -7 343 4 q 229 -19 276 -18 l 221 -19 q 139 -3 175 -19 q 77 41 103 14 q 38 103 51 68 q 25 175 25 139 q 37 240 25 208 q 73 299 49 272 q 135 344 97 325 q 226 371 174 364 q 284 376 254 375 q 344 378 314 378 q 396 377 371 378 q 446 376 421 376 l 446 424 q 447 437 446 431 q 447 450 447 443 q 435 538 447 501 q 405 596 424 574 q 363 628 386 618 q 314 639 339 639 q 268 631 290 639 q 228 608 246 622 q 199 574 211 593 q 186 531 188 554 q 167 474 182 488 q 135 458 153 460 l 128 458 q 90 472 104 458 q 75 510 75 486 l 75 513 q 97 572 76 544 q 149 620 117 600 q 224 652 182 640 q 307 664 265 664 q 385 652 347 664 q 451 614 422 640 q 499 544 481 588 q 517 440 517 501 l 517 76 m 446 347 q 397 348 422 347 q 349 349 372 349 q 297 347 322 349 q 247 342 271 346 q 140 281 174 329 q 107 179 107 233 q 117 117 107 147 q 145 63 126 86 q 190 24 164 39 q 250 10 217 10 l 254 10 q 331 40 296 11 q 392 113 367 68 q 433 213 418 157 q 447 322 447 268 q 447 335 447 329 q 446 347 446 340 z "},"":{"ha":600,"x_min":25,"x_max":572,"o":"m 411 781 q 400 754 411 765 q 372 743 389 743 l 369 743 q 344 754 354 743 q 333 781 335 765 q 345 808 333 797 q 372 819 357 819 q 400 808 389 819 q 411 781 411 797 m 517 78 q 520 33 517 54 q 540 13 524 13 l 543 13 q 558 42 554 15 q 565 46 558 46 q 572 40 572 46 l 572 39 q 549 -3 565 8 q 513 -15 532 -15 l 508 -15 q 477 -6 489 -15 q 458 17 465 4 q 449 47 451 31 q 446 76 446 63 l 446 113 q 410 63 428 86 q 367 22 392 40 q 310 -7 343 4 q 229 -19 276 -18 l 221 -19 q 139 -3 175 -19 q 77 41 103 14 q 38 103 51 68 q 25 175 25 139 q 37 240 25 208 q 73 299 49 272 q 135 346 97 326 q 226 372 174 365 q 284 376 254 375 q 344 378 314 378 q 396 377 371 378 q 446 376 421 376 l 446 424 q 447 437 446 431 q 447 450 447 443 q 435 538 447 501 q 405 596 424 574 q 363 628 386 618 q 314 639 339 639 q 268 631 290 639 q 228 608 246 622 q 199 574 211 593 q 186 531 188 554 q 167 475 182 489 q 135 458 153 461 l 129 458 q 90 472 104 458 q 75 510 75 486 l 75 513 q 97 572 76 544 q 150 621 117 600 q 224 653 183 642 q 308 665 265 665 q 385 653 347 665 q 451 615 422 642 q 499 544 481 588 q 517 440 517 501 l 517 78 m 446 347 q 395 349 421 349 q 343 350 369 350 q 294 349 318 350 q 247 343 271 347 q 140 282 172 329 q 107 179 107 235 q 117 117 107 147 q 145 64 126 88 q 190 26 164 40 q 249 11 217 11 l 254 11 q 331 41 296 13 q 392 114 367 69 q 433 213 418 158 q 447 322 447 268 q 447 335 447 329 q 446 347 446 340 m 235 742 q 208 753 219 742 q 196 781 196 765 q 208 808 196 797 q 235 819 219 819 q 263 808 251 819 q 274 781 274 797 q 263 753 274 765 q 235 742 251 742 z "},"":{"ha":597,"x_min":25,"x_max":572,"o":"m 311 696 q 347 710 332 696 q 361 746 361 725 q 347 782 361 767 q 311 797 332 797 q 275 782 290 797 q 260 746 260 767 q 275 710 260 725 q 311 696 290 696 m 517 78 q 520 33 517 54 q 542 13 524 13 l 543 13 q 558 42 554 15 q 565 46 558 46 q 572 40 572 46 l 572 39 q 547 -4 565 7 q 508 -15 529 -15 q 477 -6 489 -15 q 458 17 465 4 q 449 47 451 31 q 446 76 446 63 l 446 113 q 410 64 428 88 q 367 23 392 40 q 310 -6 343 6 q 229 -18 276 -17 l 221 -18 q 139 -1 175 -18 q 77 42 103 15 q 38 104 51 69 q 25 175 25 139 q 37 240 25 208 q 73 299 49 272 q 135 346 97 326 q 226 372 174 365 q 281 378 254 376 q 336 379 308 379 q 392 378 364 379 q 446 376 419 378 l 446 424 q 447 437 446 431 q 447 450 447 443 q 435 538 447 501 q 405 596 424 574 q 363 628 386 618 q 314 639 339 639 q 268 631 290 639 q 228 608 246 622 q 199 574 211 593 q 186 531 188 554 q 167 475 182 489 q 135 460 153 461 l 126 460 q 75 511 75 460 l 75 514 q 97 572 76 544 q 149 621 117 600 q 224 653 182 642 q 307 665 265 665 q 385 653 347 665 q 451 615 422 642 q 499 544 481 588 q 517 440 517 501 l 517 78 m 446 347 q 397 349 422 349 q 349 350 372 350 q 297 349 322 350 q 247 343 271 347 q 140 283 174 331 q 107 181 107 235 q 117 118 107 149 q 145 64 126 88 q 190 26 164 40 q 250 11 217 11 l 254 11 q 331 41 296 13 q 392 114 367 69 q 433 213 418 158 q 447 322 447 268 q 447 335 447 329 q 446 347 446 340 m 385 746 q 363 694 385 715 q 311 672 342 672 l 308 672 q 257 694 278 672 q 236 746 236 715 q 258 799 236 778 q 311 821 279 821 q 363 799 342 821 q 385 746 385 778 z "},"":{"ha":996,"x_min":28,"x_max":965,"o":"m 213 -18 q 135 -1 169 -18 q 77 42 101 15 q 40 104 53 69 q 28 175 28 139 q 39 240 28 208 q 74 299 50 272 q 133 346 97 326 q 219 372 169 365 q 274 378 246 376 q 331 379 303 379 q 378 378 354 379 q 426 378 403 378 l 426 449 q 416 537 426 500 q 388 596 406 574 q 347 628 369 618 q 301 639 325 639 q 220 608 257 639 q 179 531 183 578 q 163 475 176 489 q 132 460 149 461 l 125 460 q 88 474 101 460 q 75 511 75 488 l 75 514 q 95 577 76 550 q 144 623 114 604 q 211 651 174 642 q 288 661 249 661 q 353 654 321 661 q 413 633 386 647 q 460 595 440 618 q 488 542 479 572 q 579 630 524 596 q 711 664 635 664 q 828 632 781 664 q 906 552 876 600 q 949 449 935 504 q 965 344 963 393 l 499 344 q 514 247 500 303 q 556 140 528 190 q 626 53 583 89 q 731 17 669 18 q 833 49 781 17 q 931 157 886 82 q 939 161 932 161 q 952 158 946 161 q 958 149 958 154 l 958 147 q 848 20 906 58 q 711 -18 790 -18 q 553 32 615 -18 q 460 157 492 82 q 415 94 436 125 q 368 40 394 64 q 307 -1 342 15 q 221 -18 272 -17 l 213 -18 m 883 374 q 855 482 876 435 q 803 560 833 529 q 736 608 772 592 q 664 624 700 624 q 601 610 631 624 q 547 569 571 597 q 510 499 524 542 q 496 400 496 457 q 497 387 496 393 q 497 374 497 381 l 883 374 m 244 11 q 317 41 283 13 q 376 114 351 69 q 414 214 400 158 q 428 324 428 269 q 427 336 428 331 q 426 349 426 342 q 381 349 403 349 q 335 350 358 350 q 285 349 310 350 q 239 343 261 347 q 137 283 168 331 q 106 179 106 235 q 115 117 106 147 q 142 64 125 88 q 185 26 160 40 q 240 11 210 11 l 244 11 z "},"":{"ha":579,"x_min":24,"x_max":561,"o":"m 24 321 q 44 447 24 386 q 104 555 65 508 q 200 631 143 601 q 331 664 257 661 l 344 664 q 438 650 393 664 q 517 604 482 636 q 546 546 546 576 q 533 510 546 526 q 499 490 521 494 q 494 490 496 490 q 492 489 493 489 q 461 513 471 489 q 438 565 451 536 q 401 617 425 593 q 331 644 378 642 l 318 644 q 215 619 257 644 q 148 551 174 593 q 111 458 122 510 q 100 357 100 407 q 104 294 100 324 q 134 185 113 236 q 188 98 156 135 q 258 40 219 61 q 339 17 297 18 l 342 17 q 442 50 390 17 q 531 156 494 83 q 542 163 533 163 q 555 158 549 163 q 561 149 561 154 l 561 147 q 456 24 513 61 q 325 -15 400 -12 l 319 -29 l 333 -29 q 360 -31 346 -29 q 387 -40 375 -33 q 407 -60 399 -47 q 415 -93 415 -72 l 415 -96 q 394 -147 415 -128 q 343 -169 372 -167 q 336 -170 340 -169 q 329 -171 332 -171 q 278 -157 301 -171 q 247 -117 254 -143 l 260 -112 q 284 -142 265 -132 q 324 -153 303 -153 q 364 -140 346 -153 q 385 -100 382 -128 l 385 -96 q 364 -69 385 -81 q 290 -57 343 -57 l 303 -15 q 194 15 244 -12 q 105 87 143 42 q 45 192 67 132 q 24 321 24 253 z "},"":{"ha":596,"x_min":28,"x_max":565,"o":"m 99 346 q 114 248 100 304 q 156 140 128 192 q 226 53 183 89 q 332 18 269 18 l 335 18 q 435 51 383 18 q 531 157 486 83 q 540 163 532 163 q 553 158 547 163 q 560 149 560 154 l 560 147 q 449 21 507 60 q 313 -18 392 -18 q 188 11 242 -18 q 99 88 135 40 q 46 197 64 136 q 28 322 28 258 q 45 448 28 386 q 98 558 63 510 q 187 635 133 606 q 311 665 240 665 q 429 633 382 665 q 506 553 476 601 q 549 450 535 506 q 565 346 563 394 l 99 346 m 283 850 q 298 836 289 847 q 311 819 307 825 q 345 781 326 800 q 396 739 364 763 q 403 726 403 733 q 400 717 403 722 q 390 713 396 713 q 383 714 386 713 q 353 739 367 728 q 325 760 339 750 q 295 778 311 769 q 257 797 279 786 q 242 821 242 804 q 250 843 242 832 q 271 854 258 854 q 283 850 276 854 m 485 375 q 456 483 478 436 q 404 562 435 531 q 337 609 374 593 q 264 625 300 625 q 201 612 231 625 q 147 571 171 599 q 110 501 124 543 q 96 401 96 458 q 97 388 96 394 q 97 375 97 382 l 485 375 z "},"":{"ha":596,"x_min":28,"x_max":565,"o":"m 99 346 q 114 248 100 304 q 156 141 128 192 q 226 55 183 90 q 332 18 269 19 l 335 18 q 435 51 383 18 q 531 157 486 83 q 540 163 532 163 q 553 158 547 163 q 560 149 560 154 l 560 147 q 449 21 507 60 q 313 -18 392 -18 q 188 11 242 -18 q 99 88 135 40 q 46 198 64 136 q 28 324 28 260 q 45 449 28 388 q 98 559 63 511 q 187 636 133 607 q 311 665 240 665 q 429 633 382 665 q 506 553 476 601 q 549 450 535 506 q 565 346 563 394 l 99 346 m 308 819 q 321 836 311 825 q 335 850 331 847 q 349 854 340 854 q 368 843 360 854 q 378 821 378 831 q 363 797 378 806 q 324 778 340 786 q 294 760 308 769 q 267 739 281 750 q 236 714 253 728 q 229 713 233 713 q 219 717 224 713 q 215 726 215 721 q 222 739 215 732 q 274 781 256 763 q 308 819 293 800 m 485 375 q 456 483 478 436 q 404 562 435 531 q 337 609 374 593 q 264 625 300 625 q 201 612 231 625 q 147 571 171 599 q 110 501 124 543 q 96 401 96 458 q 97 388 96 394 q 97 375 97 382 l 485 375 z "},"":{"ha":596,"x_min":28,"x_max":565,"o":"m 99 346 q 114 248 100 304 q 156 141 128 192 q 226 55 183 90 q 332 18 269 19 q 433 51 381 18 q 531 158 486 83 q 540 163 532 163 q 553 159 547 163 q 560 150 560 156 l 560 149 q 449 22 507 60 q 313 -17 392 -17 l 311 -17 q 187 13 240 -17 q 98 90 133 42 q 45 199 63 138 q 28 324 28 260 q 45 449 28 388 q 98 559 63 511 q 187 636 133 607 q 311 665 240 665 q 429 633 382 665 q 506 553 476 601 q 549 450 535 506 q 565 346 563 394 l 99 346 m 397 738 q 403 725 403 732 q 400 715 403 721 q 392 711 397 711 q 386 713 388 711 q 328 774 346 756 q 296 793 310 793 l 294 793 q 265 774 282 793 q 207 713 247 754 q 201 711 206 711 q 193 715 194 711 q 190 725 190 721 q 196 738 190 732 q 242 786 224 761 q 281 842 260 811 q 290 851 286 850 q 297 854 296 854 q 303 851 300 854 q 313 842 307 850 q 351 786 333 811 q 397 738 369 761 m 485 376 q 456 484 478 438 q 404 563 435 531 q 337 610 374 594 q 264 626 300 626 q 201 613 231 626 q 147 571 171 599 q 110 501 124 543 q 96 401 96 458 q 97 388 96 394 q 97 375 97 382 l 485 376 z "},"":{"ha":596,"x_min":28,"x_max":565,"o":"m 99 347 q 114 248 100 304 q 156 141 128 192 q 226 55 183 90 q 332 18 269 19 q 433 51 381 18 q 531 158 486 83 q 540 163 532 163 q 553 159 547 163 q 560 150 560 156 l 560 149 q 449 22 507 60 q 313 -17 392 -17 q 188 13 242 -17 q 99 90 135 42 q 46 199 64 138 q 28 324 28 260 q 45 449 28 388 q 98 559 63 511 q 187 636 133 607 q 311 665 240 665 q 429 634 382 665 q 506 555 476 603 q 549 451 535 507 q 565 347 563 396 l 99 347 m 267 783 q 255 756 267 768 q 228 744 243 744 q 201 756 213 744 q 189 783 189 768 q 201 811 189 800 q 228 822 213 822 q 255 811 243 822 q 267 783 267 800 m 404 783 q 392 757 404 768 q 365 746 381 746 q 338 757 350 746 q 326 783 326 768 q 338 811 326 800 q 365 822 350 822 q 392 811 381 822 q 404 783 404 800 m 485 376 q 456 484 478 438 q 404 563 435 531 q 337 610 374 594 q 264 626 300 626 q 201 613 231 626 q 147 571 171 599 q 110 501 124 543 q 96 403 96 460 q 97 390 96 396 q 97 376 97 383 l 485 376 z "},"":{"ha":264,"x_min":50,"x_max":217,"o":"m 164 76 q 167 33 164 53 q 186 14 171 14 l 189 14 q 204 42 200 14 q 210 46 204 46 q 217 40 217 46 l 217 39 q 192 -3 210 7 q 156 -14 175 -14 q 126 -5 138 -14 q 108 18 114 4 q 99 47 101 32 q 97 76 97 63 l 100 585 l 100 600 q 94 626 100 614 q 68 638 89 638 l 50 638 l 50 654 l 100 663 q 115 665 108 664 q 129 665 122 665 q 167 639 167 665 l 164 86 l 164 76 m 61 844 q 82 856 69 856 q 94 851 88 856 q 109 837 100 849 q 122 821 118 825 q 156 783 138 801 q 207 740 175 764 q 214 728 214 735 q 211 718 214 724 q 200 714 207 714 q 194 715 196 714 q 163 740 176 729 q 135 761 149 751 q 106 779 122 771 q 68 799 90 788 q 53 822 53 806 q 61 844 53 833 z "},"":{"ha":258,"x_min":40,"x_max":207,"o":"m 154 76 q 158 33 154 53 q 176 14 161 14 l 179 14 q 194 42 190 14 q 200 46 194 46 q 207 40 207 46 l 207 39 q 183 -3 200 7 q 146 -14 165 -14 q 116 -5 128 -14 q 98 18 104 4 q 90 47 92 32 q 88 76 88 63 l 90 585 l 90 600 q 85 627 90 615 q 58 639 79 639 l 40 639 l 40 654 l 90 663 q 106 665 99 664 q 119 665 113 665 q 157 640 157 665 l 154 86 l 154 76 m 163 851 q 175 856 168 856 q 196 844 188 856 q 204 822 204 833 q 189 799 204 806 q 151 779 167 788 q 121 761 135 771 q 93 740 107 751 q 63 715 79 729 q 57 714 61 714 q 46 718 50 714 q 43 728 43 724 q 50 740 43 735 q 101 783 82 764 q 135 821 119 801 q 148 838 139 826 q 163 851 157 849 z "},"":{"ha":288,"x_min":40,"x_max":253,"o":"m 178 67 q 181 30 178 46 q 200 14 185 14 l 201 14 q 217 43 213 17 q 222 46 217 46 q 231 40 231 46 q 208 -1 224 10 q 174 -12 192 -12 l 169 -12 q 140 -3 151 -12 q 122 19 128 6 q 113 47 115 32 q 111 76 111 63 l 114 586 l 114 594 q 109 624 114 610 q 81 639 104 639 l 63 639 l 63 654 l 113 663 q 128 665 121 664 q 142 665 135 665 q 181 639 181 665 l 178 86 l 178 67 m 163 843 q 201 787 183 811 q 247 739 219 763 q 253 726 253 733 q 250 715 253 721 q 243 711 246 711 q 236 714 242 711 q 178 776 196 757 q 146 794 160 794 l 144 794 q 113 774 131 793 q 56 714 96 756 q 50 711 53 711 q 43 715 44 711 q 40 725 40 721 q 46 738 40 733 q 92 787 74 763 q 129 843 110 811 q 140 853 135 851 q 147 854 143 854 q 153 853 151 854 q 163 843 157 850 z "},"":{"ha":292,"x_min":50,"x_max":265,"o":"m 189 67 q 192 30 189 46 q 211 14 196 14 l 213 14 q 228 43 224 17 q 233 46 228 46 q 242 40 242 46 q 219 -1 235 10 q 185 -12 204 -12 l 181 -12 q 151 -3 163 -12 q 133 19 139 6 q 124 47 126 32 q 122 76 122 63 l 125 586 l 125 594 q 121 624 125 610 q 93 639 117 639 l 74 639 l 74 656 l 124 663 q 140 665 132 664 q 154 665 147 665 q 181 660 171 665 q 192 639 192 654 l 189 86 l 189 67 m 128 785 q 116 757 128 768 q 89 746 104 746 q 62 757 74 746 q 50 785 50 768 q 61 812 50 800 q 89 824 72 824 q 116 812 104 824 q 128 785 128 800 m 226 746 q 199 757 211 746 q 188 785 188 768 q 199 812 188 800 q 226 824 211 824 q 253 812 242 824 q 265 785 265 800 q 253 758 265 769 q 226 746 242 746 z "},"":{"ha":660,"x_min":28,"x_max":629,"o":"m 217 861 q 289 876 254 876 q 415 829 356 876 l 468 896 l 483 883 l 431 818 q 510 726 474 781 q 574 608 547 672 q 615 473 600 543 q 629 335 629 403 q 613 203 629 265 q 559 94 596 142 q 465 17 522 46 q 325 -12 407 -11 l 318 -12 q 204 15 257 -12 q 113 88 151 42 q 51 195 74 133 q 28 326 28 257 q 51 459 28 397 q 115 567 75 521 q 210 639 156 613 q 325 665 264 665 q 415 650 372 665 q 493 607 457 635 q 447 699 472 658 q 393 769 421 739 l 338 699 l 322 711 l 379 783 q 308 836 343 819 q 246 853 274 853 q 219 849 229 853 l 217 861 m 554 322 q 531 442 550 383 q 480 545 511 500 q 405 618 449 590 q 307 646 361 646 q 294 646 300 646 q 282 644 289 646 q 206 615 240 639 q 148 553 172 592 q 110 466 124 515 q 96 361 96 417 q 100 299 96 329 q 132 183 108 236 q 189 90 156 129 q 263 29 222 51 q 349 7 304 7 q 369 8 363 7 q 453 39 418 14 q 510 102 488 64 q 544 188 533 140 q 556 286 556 235 q 556 303 556 294 q 554 322 556 313 z "},"":{"ha":615,"x_min":43,"x_max":572,"o":"m 160 546 q 234 630 186 596 q 346 667 282 664 l 357 667 q 425 657 392 667 q 484 627 458 647 q 526 576 510 607 q 542 501 542 544 l 543 32 q 551 14 543 21 q 569 7 558 7 l 572 7 l 572 -1 l 446 -1 l 446 7 l 450 7 q 469 14 461 7 q 476 32 476 21 l 475 493 q 463 556 475 529 q 431 601 451 583 q 385 626 411 618 q 332 635 360 635 l 322 635 q 268 622 294 633 q 219 590 242 610 q 181 544 197 571 q 160 483 165 517 l 161 32 q 169 14 161 21 q 188 7 176 7 l 190 7 l 190 -1 q 127 -3 158 -3 q 64 -3 96 -3 l 64 7 l 68 7 q 87 14 79 7 q 94 32 94 21 l 93 586 l 93 599 q 88 627 93 614 q 61 640 83 640 l 43 640 l 43 656 l 93 663 q 110 665 101 664 q 125 665 118 665 q 160 639 160 665 l 160 546 m 224 750 q 255 808 239 792 q 290 824 271 824 q 325 813 307 824 q 361 790 343 803 q 397 767 379 778 q 429 757 414 757 l 431 757 q 451 769 443 758 q 460 808 460 781 l 468 808 q 453 738 465 757 q 422 719 442 719 q 388 728 407 719 q 349 749 368 738 q 310 770 329 761 q 274 779 290 779 q 249 772 260 779 q 232 746 239 765 l 224 750 z "},"":{"ha":651,"x_min":24,"x_max":619,"o":"m 321 667 q 438 640 383 667 q 532 568 492 614 q 596 460 572 522 q 619 328 619 399 q 596 195 619 257 q 532 88 572 133 q 438 15 492 42 q 321 -12 383 -12 q 206 15 260 -12 q 111 88 151 42 q 47 195 71 133 q 24 326 24 257 q 47 459 24 397 q 111 567 71 521 q 206 640 151 613 q 321 667 260 667 m 282 853 q 297 839 288 850 q 310 822 306 828 q 344 784 325 803 q 394 742 363 765 q 401 729 401 736 q 399 719 401 725 q 389 715 394 715 q 382 717 385 715 q 351 742 365 731 q 324 763 338 753 q 294 781 310 772 q 256 800 278 789 q 240 824 240 807 q 249 846 240 835 q 269 857 257 857 q 282 853 275 857 m 547 356 q 515 471 539 418 q 458 563 492 524 q 383 625 425 603 q 297 647 342 647 q 288 647 293 647 q 278 646 283 647 q 202 617 236 640 q 144 555 168 593 q 106 467 119 517 q 92 363 92 418 q 96 300 92 331 q 127 184 104 238 q 183 92 150 131 q 258 31 217 53 q 343 8 299 8 q 365 10 358 8 q 441 39 407 15 q 499 101 475 63 q 538 188 524 139 q 551 293 551 238 q 547 356 551 324 z "},"":{"ha":651,"x_min":24,"x_max":619,"o":"m 321 667 q 438 640 383 667 q 532 568 492 614 q 596 460 572 522 q 619 328 619 399 q 596 195 619 257 q 532 88 572 133 q 438 15 492 42 q 321 -11 383 -11 q 206 15 260 -11 q 111 88 151 42 q 47 195 71 133 q 24 328 24 257 q 47 460 24 399 q 111 568 71 522 q 206 640 151 614 q 321 667 260 667 m 332 822 q 345 839 336 828 q 360 853 354 850 q 374 857 365 857 q 393 847 383 857 q 401 824 401 836 q 386 800 401 807 q 348 781 364 789 q 319 763 332 772 q 292 742 306 753 q 260 718 278 732 q 253 715 254 715 q 244 719 246 715 q 240 729 240 724 q 247 742 240 738 q 298 784 279 765 q 332 822 317 803 m 547 356 q 515 471 539 418 q 458 563 492 524 q 383 625 425 603 q 297 647 342 647 q 288 647 293 647 q 278 646 283 647 q 202 617 236 640 q 144 555 168 593 q 106 467 119 517 q 92 363 92 418 q 96 300 92 331 q 128 184 104 238 q 185 92 151 131 q 259 31 218 53 q 344 8 300 8 q 365 10 358 8 q 441 39 407 15 q 499 101 475 63 q 538 188 524 139 q 551 293 551 238 q 547 356 551 324 z "},"":{"ha":656,"x_min":28,"x_max":624,"o":"m 325 667 q 442 640 388 667 q 536 568 496 614 q 600 460 576 522 q 624 328 624 399 q 600 195 624 257 q 536 88 576 133 q 442 15 496 42 q 325 -11 388 -11 q 210 15 264 -11 q 115 88 156 42 q 51 195 75 133 q 28 328 28 257 q 51 460 28 399 q 115 568 75 522 q 210 640 156 614 q 325 667 264 667 m 425 735 q 431 724 431 731 q 428 713 431 718 q 422 708 425 708 q 415 711 421 708 q 357 772 375 753 q 325 792 339 792 l 324 792 q 292 771 310 790 q 235 711 275 751 q 229 708 232 708 q 222 713 224 708 q 219 722 219 718 q 225 735 219 731 q 270 784 253 760 q 308 840 288 808 q 319 850 314 849 q 325 851 322 851 q 331 850 329 851 q 342 840 336 849 q 380 784 363 808 q 425 735 397 760 m 551 356 q 519 472 543 418 q 463 564 496 525 q 388 625 429 603 q 303 647 346 647 q 282 646 289 647 q 206 617 240 640 q 148 555 172 593 q 110 467 124 517 q 96 363 96 418 q 100 300 96 331 q 132 185 108 238 q 189 92 156 132 q 264 31 222 53 q 350 8 306 8 q 359 8 354 8 q 369 10 364 8 q 445 39 411 15 q 503 101 479 63 q 542 188 528 139 q 556 293 556 238 q 551 356 556 324 z "},"":{"ha":656,"x_min":28,"x_max":624,"o":"m 325 668 q 442 641 388 668 q 536 568 496 614 q 600 460 576 522 q 624 329 624 399 q 600 197 624 258 q 536 89 576 135 q 442 16 496 43 q 325 -11 388 -11 q 210 15 264 -11 q 115 88 156 42 q 51 195 75 133 q 28 328 28 257 q 51 460 28 399 q 115 568 75 522 q 210 641 156 614 q 325 668 264 668 m 203 751 q 234 809 218 793 q 269 825 250 825 q 304 815 286 825 q 340 792 322 804 q 374 770 357 781 q 408 760 392 760 l 410 760 q 431 771 422 760 q 439 810 439 782 l 447 810 q 433 740 444 758 q 401 721 421 721 q 367 730 386 721 q 328 751 347 739 q 289 772 308 763 q 253 781 269 781 q 228 774 239 781 q 211 747 218 767 l 203 751 m 551 356 q 519 472 543 418 q 463 564 496 525 q 388 625 429 603 q 304 647 347 647 q 282 646 289 647 q 206 617 240 640 q 148 555 172 593 q 110 467 124 517 q 96 363 96 418 q 100 300 96 331 q 132 185 108 238 q 189 92 156 132 q 264 31 222 53 q 350 8 306 8 q 359 8 354 8 q 369 10 364 8 q 445 39 411 15 q 503 101 479 63 q 542 188 528 139 q 556 293 556 238 q 551 356 556 324 z "},"":{"ha":656,"x_min":28,"x_max":624,"o":"m 325 668 q 442 642 388 668 q 536 569 496 615 q 600 462 576 524 q 624 329 624 400 q 600 197 624 258 q 536 89 576 135 q 442 17 496 43 q 325 -10 388 -10 q 210 17 264 -10 q 115 89 156 43 q 51 197 75 135 q 28 329 28 258 q 51 460 28 399 q 115 568 75 522 q 210 641 156 614 q 325 668 264 668 m 294 788 q 283 760 294 772 q 257 749 272 749 q 229 760 240 749 q 218 788 218 772 q 229 815 218 803 q 257 826 240 826 q 283 815 272 826 q 294 788 294 803 m 433 788 q 422 760 433 772 q 394 749 410 749 q 367 760 378 749 q 356 788 356 772 q 367 815 356 803 q 394 826 378 826 q 422 815 410 826 q 433 788 433 803 m 551 357 q 519 472 543 419 q 463 565 496 525 q 388 626 429 604 q 301 649 346 649 q 292 649 297 649 q 282 647 288 649 q 206 618 240 642 q 148 556 172 594 q 110 469 124 518 q 96 364 96 419 q 100 301 96 332 q 132 185 108 239 q 189 93 156 132 q 263 32 222 54 q 349 10 304 10 q 369 11 363 10 q 445 40 411 17 q 503 102 479 64 q 542 190 528 140 q 556 294 556 239 q 551 357 556 325 z "},"":{"ha":600,"x_min":0,"x_max":544,"o":"m 272 374 q 310 356 294 374 q 325 314 325 339 q 310 273 325 290 q 272 256 294 256 q 235 273 250 256 q 221 314 221 290 q 235 356 221 339 q 272 374 250 374 m 272 518 q 235 535 250 518 q 221 576 221 551 q 235 617 221 600 q 272 635 250 635 q 310 617 294 635 q 325 576 325 600 q 310 535 325 551 q 272 518 294 518 m 0 424 l 0 465 l 544 465 l 544 424 l 0 424 z "},"":{"ha":690,"x_min":39,"x_max":635,"o":"m 336 668 q 419 655 381 668 q 493 618 458 642 q 526 681 515 658 q 547 719 536 703 q 563 735 554 731 q 581 739 572 739 q 605 730 594 739 q 615 707 615 721 q 608 685 615 694 q 581 647 597 667 q 532 586 564 626 q 607 473 579 539 q 635 329 635 407 q 611 197 635 258 q 547 89 588 135 q 453 17 507 43 q 336 -10 399 -10 q 179 42 250 -10 q 148 -22 158 0 q 126 -60 138 -44 q 92 -81 111 -81 q 67 -72 78 -81 q 57 -47 57 -62 q 64 -25 57 -36 q 92 13 75 -8 q 142 74 110 33 q 67 185 94 119 q 39 329 39 251 q 63 462 39 400 q 126 569 86 524 q 221 642 167 615 q 336 668 275 668 m 494 538 q 431 449 467 501 q 346 324 394 397 q 261 187 294 244 q 204 88 228 129 q 277 31 238 51 q 360 10 317 10 q 381 11 374 10 q 456 40 422 17 q 515 102 490 64 q 553 190 539 140 q 567 294 567 239 q 563 357 567 325 q 494 538 547 463 m 111 301 q 135 203 118 249 q 178 121 153 158 q 326 335 232 193 q 411 473 378 415 q 468 571 444 531 q 397 628 436 607 q 314 649 357 649 q 293 647 300 649 q 217 618 251 642 q 159 556 183 594 q 121 469 135 518 q 107 364 107 419 q 111 301 107 332 z "},"":{"ha":622,"x_min":25,"x_max":575,"o":"m 458 111 q 384 27 432 61 q 274 -10 336 -7 l 263 -10 q 193 0 226 -10 q 134 30 160 10 q 92 81 108 50 q 76 156 76 113 l 75 590 l 75 603 q 70 630 75 617 q 43 643 65 643 l 25 643 l 25 660 l 75 667 q 90 669 83 668 q 104 669 97 669 q 142 643 142 669 q 143 403 143 522 q 143 164 143 285 q 155 101 143 128 q 186 56 167 74 q 232 31 206 39 q 286 22 258 22 l 296 22 q 350 35 324 24 q 399 67 376 47 q 436 113 421 86 q 458 174 451 140 q 458 382 458 278 q 457 590 457 486 l 457 603 q 452 630 457 617 q 425 643 447 643 l 407 643 l 407 660 l 457 667 q 472 669 465 668 q 486 669 479 669 q 524 643 524 669 l 525 79 l 525 67 q 530 40 525 53 q 557 26 535 26 l 575 26 l 575 11 l 525 3 q 510 1 517 1 q 496 0 503 0 q 458 26 458 0 l 458 111 m 228 849 q 249 860 236 860 q 261 856 254 860 q 276 841 267 853 q 289 825 285 829 q 323 787 304 806 q 374 744 342 768 q 381 732 381 738 q 376 722 381 726 q 367 718 374 718 q 361 719 363 718 q 329 744 343 733 q 302 765 315 756 q 273 783 289 775 q 235 803 257 792 q 219 826 219 810 q 228 849 219 838 z "},"":{"ha":622,"x_min":25,"x_max":575,"o":"m 458 111 q 384 28 432 61 q 274 -8 336 -6 l 263 -8 q 193 1 226 -8 q 134 31 160 11 q 92 81 108 50 q 76 156 76 113 l 75 590 l 75 603 q 70 630 75 617 q 43 643 65 643 l 25 643 l 25 660 l 75 667 q 90 669 83 668 q 104 669 97 669 q 142 643 142 669 q 143 403 143 522 q 143 164 143 285 q 155 101 143 128 q 186 56 167 74 q 232 31 206 39 q 286 22 258 22 l 296 22 q 350 35 324 24 q 399 67 376 47 q 436 113 421 86 q 458 174 451 140 q 458 382 458 278 q 457 590 457 486 l 457 603 q 452 631 457 618 q 425 643 447 643 l 407 643 l 407 660 l 457 667 q 474 669 465 668 q 489 669 482 669 q 524 643 524 669 l 525 81 l 525 68 q 530 40 525 53 q 557 26 535 26 l 575 26 l 575 11 l 525 3 q 510 1 517 1 q 496 0 503 0 q 458 28 458 0 l 458 111 m 338 856 q 351 860 343 860 q 372 849 364 860 q 381 826 381 838 q 365 803 381 810 q 327 783 343 792 q 297 765 311 775 q 269 744 283 756 q 239 719 256 733 q 232 718 236 718 q 222 722 226 718 q 219 732 219 728 q 226 744 219 739 q 277 787 258 768 q 311 825 296 806 q 324 842 315 831 q 338 856 333 853 z "},"":{"ha":622,"x_min":25,"x_max":575,"o":"m 458 111 q 384 28 432 61 q 274 -8 336 -6 l 263 -8 q 193 1 226 -8 q 134 31 160 11 q 92 81 108 50 q 76 157 76 113 l 75 590 l 75 603 q 70 631 75 618 q 43 643 65 643 l 25 643 l 25 660 l 75 668 q 90 670 83 669 q 104 671 97 671 q 142 643 142 671 q 143 403 143 522 q 143 164 143 285 q 155 101 143 128 q 187 57 167 75 q 233 31 207 39 q 286 22 258 22 l 296 22 q 399 67 351 26 q 458 174 446 108 q 458 382 458 278 q 457 590 457 486 l 457 603 q 452 631 457 618 q 425 643 447 643 l 407 643 l 407 660 l 457 668 q 472 670 465 669 q 486 671 479 671 q 524 643 524 671 l 525 81 l 525 68 q 530 40 525 53 q 557 26 535 26 l 575 26 l 575 11 l 525 4 q 508 2 517 3 q 493 1 500 1 q 458 28 458 1 l 458 111 m 317 843 q 355 786 338 811 q 400 738 372 761 q 406 725 406 733 q 403 715 406 721 q 396 711 400 711 q 390 714 393 711 q 331 776 349 757 q 299 794 313 794 q 267 774 285 793 q 210 714 250 754 q 204 711 204 711 q 197 715 199 711 q 194 725 194 721 q 200 738 194 733 q 245 786 228 761 q 283 843 263 811 q 294 853 286 847 q 300 854 296 854 q 306 853 304 854 q 317 843 314 847 z "},"":{"ha":622,"x_min":25,"x_max":575,"o":"m 458 111 q 384 28 432 63 q 274 -8 336 -6 l 263 -8 q 193 1 226 -8 q 134 31 160 11 q 92 83 108 51 q 76 157 76 114 l 75 590 l 75 603 q 70 631 75 618 q 43 643 65 643 l 25 643 l 25 660 l 75 668 q 90 670 83 669 q 104 671 97 671 q 142 643 142 671 q 143 404 143 522 q 143 165 143 286 q 155 102 143 129 q 186 58 167 75 q 232 32 206 40 q 286 24 258 24 l 296 24 q 350 37 324 25 q 399 68 376 49 q 436 115 421 88 q 458 175 451 142 q 458 383 458 279 q 457 590 457 486 l 457 603 q 452 631 457 618 q 425 644 447 644 l 407 644 l 407 660 l 457 668 q 472 670 465 669 q 486 671 479 671 q 524 644 524 671 l 525 81 l 525 68 q 530 41 525 54 q 557 28 535 28 l 575 28 l 575 11 l 525 4 q 510 2 517 3 q 496 1 503 1 q 458 28 458 1 l 458 111 m 269 789 q 258 762 269 774 q 231 750 247 750 q 203 762 215 750 q 192 789 192 774 q 203 817 192 806 q 231 828 215 828 q 258 817 247 828 q 269 789 269 806 m 365 751 q 340 763 350 751 q 329 789 329 774 q 341 817 329 806 q 368 828 353 828 q 396 817 385 828 q 407 789 407 806 q 396 763 407 774 q 368 751 385 751 l 365 751 z "},"":{"ha":532,"x_min":-14,"x_max":531,"o":"m 450 635 q 451 638 450 636 q 451 640 451 639 q 444 655 451 649 q 426 661 438 661 l 421 661 l 421 669 l 461 669 l 494 671 l 531 671 l 531 661 l 524 661 q 498 654 510 661 q 483 636 486 647 l 326 167 l 258 -49 q 250 -82 256 -58 q 233 -131 244 -106 q 204 -177 221 -157 q 165 -201 188 -197 q 160 -202 163 -201 q 154 -203 157 -203 q 115 -187 128 -203 q 103 -156 103 -171 q 107 -142 103 -146 q 136 -119 119 -124 q 170 -110 153 -115 q 204 -90 188 -104 q 233 -37 221 -75 l 246 1 l 33 635 q 19 653 31 646 q -7 660 7 660 l -14 660 l -14 669 l 142 669 l 142 660 l 136 660 q 111 640 111 660 q 112 638 111 639 q 113 635 113 638 l 282 132 l 450 635 m 297 857 q 310 861 303 861 q 331 850 322 861 q 339 828 339 839 q 324 804 339 811 q 285 785 301 793 q 256 767 269 776 q 228 746 242 757 q 197 721 214 735 q 190 719 194 719 q 181 724 185 719 q 178 733 178 729 q 185 746 178 740 q 235 788 217 769 q 269 826 254 807 q 283 843 274 832 q 297 857 292 854 z "},"":{"ha":658,"x_min":46,"x_max":626,"o":"m 164 576 q 253 648 203 625 q 357 671 304 671 q 456 649 407 671 q 542 586 504 628 q 603 481 581 544 q 626 335 626 418 q 603 190 626 251 q 542 87 581 128 q 456 25 504 46 q 357 4 407 4 q 253 27 304 4 q 164 96 203 50 l 164 -257 q 172 -275 164 -268 q 190 -282 179 -282 l 193 -282 l 193 -292 l 68 -292 l 68 -282 l 71 -282 q 90 -275 82 -282 q 97 -257 97 -268 l 96 799 l 96 811 q 91 840 96 826 q 64 853 86 853 l 46 853 l 46 868 l 96 876 q 111 878 104 878 q 125 879 118 879 q 163 853 163 879 l 164 576 m 164 278 q 188 164 169 213 q 232 83 206 115 q 290 36 258 51 q 356 21 322 21 q 428 40 393 21 q 492 97 464 58 q 536 195 519 136 q 553 335 553 254 q 536 476 553 415 q 492 576 519 536 q 428 637 464 617 q 357 657 393 657 q 292 640 324 657 q 233 590 260 624 q 188 508 207 557 q 164 392 169 458 l 164 278 z "},"":{"ha":536,"x_min":-10,"x_max":535,"o":"m 454 635 q 455 638 454 638 q 456 642 456 639 q 449 656 456 650 q 431 661 442 661 l 425 661 l 425 671 l 535 671 l 535 661 l 528 661 q 502 654 514 661 q 488 636 490 647 l 331 167 l 263 -49 q 254 -82 260 -58 q 237 -131 249 -106 q 208 -177 225 -157 q 169 -201 192 -197 q 164 -202 167 -201 q 158 -203 161 -203 q 119 -187 132 -203 q 107 -156 107 -171 q 111 -142 107 -146 q 140 -119 124 -124 q 174 -110 157 -115 q 208 -90 192 -104 q 238 -37 225 -75 l 250 1 l 38 635 q 23 653 35 646 q -3 661 11 661 l -10 661 l -10 669 l 146 669 l 146 661 l 140 661 q 115 642 115 661 q 116 638 115 639 q 117 635 117 638 l 286 132 l 454 635 m 232 790 q 221 763 232 774 q 193 751 210 751 q 167 763 178 751 q 156 790 156 774 q 167 817 156 806 q 193 829 178 829 q 221 817 210 829 q 232 790 232 806 m 332 751 q 304 763 315 751 q 293 790 293 774 q 304 817 293 806 q 331 829 315 829 q 358 817 347 829 q 369 790 369 806 q 358 763 369 775 q 332 751 347 751 z "},"":{"ha":240,"x_min":40,"x_max":207,"o":"m 154 86 l 154 76 q 158 33 154 53 q 178 14 161 14 l 179 14 q 194 43 190 17 q 200 46 194 46 q 207 42 207 46 l 207 40 q 185 -1 200 10 q 150 -12 169 -12 l 146 -12 q 116 -3 128 -12 q 98 19 104 6 q 90 47 92 32 q 88 76 88 63 l 90 586 l 90 600 q 85 627 90 615 q 58 639 79 639 l 40 639 l 40 656 l 90 663 q 106 665 99 664 q 121 665 114 665 q 157 640 157 665 l 154 86 z "},"":{"ha":1263,"x_min":19,"x_max":1246,"o":"m 754 179 q 613 36 700 89 q 422 -17 526 -17 q 265 19 339 -17 q 138 115 192 54 q 51 258 83 176 q 19 433 19 340 q 51 608 19 526 q 138 751 83 690 q 265 847 192 811 q 422 882 339 882 q 613 828 526 882 q 754 686 700 775 l 754 842 q 747 860 754 853 q 728 867 739 867 l 725 867 l 725 875 l 1210 875 l 1242 781 l 1235 779 q 1201 813 1226 797 q 1140 836 1181 825 q 1031 847 1099 847 l 825 847 l 825 471 l 1006 471 q 1043 482 1024 471 q 1063 510 1063 493 l 1063 529 l 1078 529 l 1078 383 l 1063 383 l 1063 401 q 1043 431 1063 418 q 1006 443 1024 443 l 825 443 l 825 424 l 824 147 l 824 31 q 824 28 824 29 q 825 25 825 28 l 1074 25 q 1162 35 1129 25 q 1213 58 1194 46 q 1240 93 1233 74 l 1246 92 l 1219 -3 l 725 -3 l 725 7 l 728 7 q 747 14 739 7 q 754 31 754 21 l 754 179 m 469 22 q 581 60 529 28 q 669 142 632 92 q 726 259 706 193 q 747 400 747 325 q 743 461 747 429 q 702 613 733 543 q 624 735 671 683 q 518 815 576 786 q 396 844 460 844 q 385 844 390 844 q 374 843 379 843 q 263 806 314 838 q 176 723 213 774 q 118 606 139 672 q 97 465 97 540 q 101 404 97 435 q 142 252 111 322 q 221 131 174 182 q 326 50 268 79 q 447 21 385 21 q 458 22 453 21 q 469 22 464 22 z "},"":{"ha":1119,"x_min":24,"x_max":1089,"o":"m 321 672 q 475 623 406 672 q 583 494 544 574 q 677 623 615 572 q 835 674 739 674 q 953 642 906 674 q 1029 562 1000 610 q 1072 458 1058 514 q 1089 354 1086 403 l 622 354 q 638 256 624 313 q 679 149 651 200 q 750 63 707 99 q 856 26 793 28 l 858 26 q 958 59 907 26 q 1054 165 1010 92 q 1064 171 1056 171 q 1077 167 1071 171 q 1083 157 1083 163 l 1083 156 q 973 29 1031 68 q 836 -10 915 -10 q 677 41 740 -10 q 582 169 614 92 q 475 42 544 90 q 321 -7 406 -7 q 206 19 260 -7 q 111 92 151 46 q 47 199 71 138 q 24 332 24 261 q 47 465 24 403 q 111 572 71 526 q 206 645 151 618 q 321 672 260 672 m 1008 383 q 980 492 1001 444 q 928 570 958 539 q 860 617 897 601 q 788 633 824 633 q 724 620 754 633 q 671 579 694 607 q 633 509 647 551 q 619 410 619 467 q 620 397 619 403 q 621 383 621 390 l 1008 383 m 547 360 q 515 476 539 422 q 458 568 492 529 q 384 629 425 607 q 300 651 343 651 q 278 650 285 651 q 202 621 236 644 q 144 559 168 597 q 106 472 119 521 q 92 367 92 422 q 96 304 92 335 q 128 189 104 242 q 185 97 151 136 q 260 35 218 57 q 346 13 301 13 q 355 13 350 13 q 365 14 360 13 q 441 43 407 19 q 499 105 475 67 q 538 192 524 143 q 551 297 551 242 q 547 360 551 328 z "},"":{"ha":663,"x_min":38,"x_max":615,"o":"m 575 658 q 551 751 572 713 q 495 813 529 789 q 418 849 461 838 q 332 860 375 860 q 253 851 292 860 q 185 825 215 842 q 137 784 156 808 q 117 731 118 760 l 117 725 q 137 653 117 686 q 187 592 157 619 q 251 541 217 564 q 317 499 286 518 q 422 432 368 465 q 518 363 475 399 q 588 288 561 328 q 615 201 615 247 l 615 196 q 594 117 614 154 q 539 51 574 79 q 458 6 504 22 q 356 -12 411 -11 l 346 -12 q 264 -6 299 -12 q 202 10 229 1 q 154 26 175 19 q 114 33 133 33 q 100 32 104 33 q 65 17 72 28 q 58 -1 58 6 l 38 -1 l 78 222 l 97 222 l 97 221 q 118 124 97 164 q 174 58 139 83 q 252 20 208 32 q 340 8 296 8 q 419 17 381 8 q 488 43 457 26 q 536 84 518 60 q 556 138 554 108 l 556 143 q 528 226 556 188 q 459 299 500 265 q 372 361 418 333 q 290 411 326 389 q 215 459 256 432 q 139 519 174 486 q 81 588 104 551 q 57 665 57 625 l 57 672 q 79 751 58 714 q 135 817 100 789 q 216 863 169 846 q 318 881 263 879 l 329 881 q 394 875 368 881 q 440 863 421 869 q 483 847 451 858 q 542 836 514 836 q 565 841 556 836 q 575 860 575 846 q 572 874 575 863 l 594 874 l 593 658 l 575 658 m 447 1047 q 397 994 417 1021 q 354 932 378 967 q 343 921 351 926 q 340 920 342 921 q 336 919 339 919 q 333 920 333 919 q 329 921 332 921 q 318 932 321 926 q 275 994 294 967 q 225 1047 256 1021 q 219 1061 219 1053 q 222 1072 219 1067 q 231 1076 224 1076 q 236 1075 235 1076 q 300 1008 281 1029 q 335 986 319 988 l 336 986 q 371 1007 351 986 q 436 1075 390 1028 q 442 1076 438 1076 q 450 1072 447 1076 q 453 1061 453 1067 q 447 1047 453 1053 z "},"":{"ha":518,"x_min":33,"x_max":488,"o":"m 485 549 q 488 535 488 538 q 474 508 488 518 q 443 499 460 499 q 415 508 428 499 q 399 536 401 517 q 379 589 394 567 q 343 626 364 611 q 297 647 322 640 q 244 654 271 654 l 242 654 q 192 646 217 654 q 148 623 168 638 q 115 589 128 608 q 103 547 103 569 l 103 546 q 116 500 103 522 q 152 456 129 478 q 204 414 175 435 q 265 371 233 393 q 341 319 303 346 q 410 264 379 292 q 460 205 440 236 q 479 140 479 174 l 479 138 q 459 75 478 101 q 410 31 440 49 q 342 3 381 13 q 261 -7 303 -6 l 251 -7 q 183 0 217 -7 q 122 22 150 7 q 71 61 93 38 q 36 117 49 85 q 33 131 33 128 q 47 157 33 147 q 78 167 61 167 q 106 157 93 167 q 122 128 119 147 q 174 42 132 69 q 267 11 217 14 l 278 11 q 326 17 303 11 q 369 35 350 24 q 399 63 388 46 q 411 101 410 81 l 411 108 q 395 167 411 139 q 352 219 379 194 q 291 266 325 243 q 222 313 257 289 q 154 357 188 335 q 95 404 121 379 q 53 458 69 429 q 38 518 38 486 l 38 524 q 58 583 39 556 q 107 629 76 610 q 177 660 138 649 q 258 671 217 671 l 265 671 q 334 663 300 669 q 397 642 368 657 q 449 605 426 628 q 485 549 472 582 m 361 829 q 315 781 333 806 q 276 724 297 756 q 267 714 272 718 q 264 713 265 714 q 261 713 263 713 q 258 713 258 713 q 254 714 257 714 q 244 724 249 718 q 206 780 224 756 q 160 829 188 804 q 154 842 154 833 q 157 851 154 846 q 164 856 158 856 q 171 853 165 856 q 228 793 211 813 q 258 772 246 774 q 290 791 272 772 q 350 853 308 810 q 357 856 356 856 q 364 851 360 856 q 367 842 367 846 q 361 829 367 833 z "},"":{"ha":574,"x_min":-18,"x_max":640,"o":"m 346 458 l 346 33 q 353 15 346 22 q 372 8 361 8 l 375 8 l 375 0 l 246 0 l 246 8 l 249 8 q 267 15 260 8 q 275 33 275 22 l 275 458 l 29 844 q 10 861 22 854 q -14 868 -3 868 l -18 868 l -18 878 l 132 878 l 132 868 l 129 868 q 114 857 114 868 q 118 844 114 850 l 335 503 l 554 843 q 558 856 558 849 q 543 868 558 868 l 540 868 l 540 878 q 590 877 572 878 q 640 876 608 876 l 640 868 l 636 868 q 613 861 625 868 q 593 843 600 854 l 356 472 l 346 458 m 279 967 q 267 938 279 950 q 239 926 256 926 q 210 938 222 926 q 199 967 199 950 q 210 995 199 983 q 239 1007 222 1007 q 267 995 256 1007 q 279 967 279 983 m 383 926 q 355 938 367 926 q 343 967 343 950 q 355 995 343 983 q 383 1007 367 1007 q 412 995 400 1007 q 424 967 424 983 q 412 938 424 950 q 383 926 400 926 z "},"":{"ha":474,"x_min":22,"x_max":460,"o":"m 114 31 l 308 31 q 352 38 335 31 q 381 57 369 46 q 401 83 393 68 l 422 83 l 422 7 l 22 7 l 369 649 l 168 649 q 123 640 140 649 q 94 622 106 632 q 74 596 81 610 l 53 596 l 53 672 l 460 672 l 114 31 m 342 829 q 296 781 314 806 q 257 725 278 757 q 247 715 251 717 q 244 715 246 715 q 242 714 243 714 q 238 715 239 714 q 235 715 238 715 q 225 725 231 717 q 186 781 204 757 q 140 829 168 806 q 135 842 135 835 q 138 851 135 846 q 146 856 139 856 q 151 854 150 856 q 209 794 192 813 q 239 774 226 775 l 240 774 q 272 792 254 774 q 331 854 290 811 q 338 857 336 857 q 344 853 340 857 q 347 843 347 847 q 342 829 347 835 z "},"":{"ha":251,"x_min":0,"x_max":196,"o":"m 196 717 l 163 717 l 121 783 l 81 717 l 0 717 l 97 876 l 196 717 z "},"":{"ha":389,"x_min":0,"x_max":333,"o":"m 333 857 q 314 760 331 786 q 271 735 297 735 q 223 748 249 735 q 170 776 197 761 q 117 805 143 792 q 68 818 90 818 q 36 808 50 818 q 13 772 22 797 l 0 778 q 42 856 19 835 q 90 878 65 878 q 138 864 114 878 q 187 833 163 850 q 235 801 211 815 q 279 788 258 788 l 281 788 q 310 804 299 789 q 322 857 321 819 l 333 857 z "},"":{"ha":451,"x_min":0,"x_max":396,"o":"m 0 313 l 0 354 l 396 354 l 396 313 l 0 313 z "},"":{"ha":635,"x_min":0,"x_max":579,"o":"m 0 313 l 0 354 l 579 354 l 579 313 l 0 313 z "},"":{"ha":150,"x_min":0,"x_max":94,"o":"m 11 788 q 51 810 33 810 q 83 792 71 810 q 94 753 94 775 q 80 708 94 725 q 46 690 65 690 q 11 716 22 690 q 0 774 0 742 q 13 842 0 810 q 50 874 26 874 l 53 874 q 68 858 68 871 q 64 850 68 854 q 53 846 60 846 l 50 846 q 26 834 40 846 q 11 788 13 822 z "},"":{"ha":150,"x_min":0,"x_max":94,"o":"m 49 874 q 83 847 72 874 q 94 789 94 821 q 81 722 94 753 q 44 690 68 690 l 43 690 q 28 706 28 693 q 31 714 28 710 q 42 718 35 718 l 46 718 q 69 731 56 718 q 85 776 82 743 q 43 754 63 754 q 12 772 24 754 q 0 811 0 789 q 15 856 0 839 q 49 874 29 874 z "},"":{"ha":150,"x_min":0,"x_max":94,"o":"m 49 119 q 83 93 72 119 q 94 35 94 67 q 81 -33 94 -1 q 44 -64 68 -64 l 43 -64 q 28 -49 28 -61 q 31 -40 28 -44 q 42 -36 35 -36 l 46 -36 q 69 -24 56 -36 q 85 22 82 -11 q 43 0 63 0 q 12 17 24 0 q 0 57 0 35 q 15 102 0 85 q 49 119 29 119 z "},"":{"ha":256,"x_min":0,"x_max":200,"o":"m 11 788 q 51 810 33 810 q 83 792 71 810 q 94 753 94 775 q 80 708 94 725 q 46 690 65 690 q 11 716 22 690 q 0 774 0 742 q 13 842 0 810 q 50 874 26 874 l 53 874 q 68 858 68 871 q 64 850 68 854 q 53 846 60 846 l 50 846 q 26 834 40 846 q 11 788 13 822 m 115 788 q 157 810 138 810 q 188 792 176 810 q 200 753 200 775 q 185 708 200 725 q 151 690 171 690 q 117 717 128 690 q 106 775 106 743 q 119 842 106 811 q 156 874 132 874 l 157 874 q 172 858 172 871 q 169 850 172 854 q 158 846 165 846 l 156 846 q 132 834 146 846 q 115 788 118 822 z "},"":{"ha":256,"x_min":0,"x_max":200,"o":"m 49 874 q 83 847 72 874 q 94 789 94 821 q 81 722 94 753 q 44 690 68 690 l 43 690 q 28 706 28 693 q 31 714 28 710 q 42 718 35 718 l 46 718 q 69 731 56 718 q 85 776 82 743 q 43 754 63 754 q 12 772 24 754 q 0 811 0 789 q 15 856 0 839 q 49 874 29 874 m 154 874 q 189 848 178 874 q 200 790 200 822 q 187 722 200 754 q 150 690 174 690 l 147 690 q 132 706 132 693 q 136 714 132 710 q 147 718 140 718 l 151 718 q 174 731 161 718 q 190 776 188 743 q 149 754 168 754 q 117 772 129 754 q 106 811 106 789 q 120 856 106 839 q 154 874 135 874 z "},"":{"ha":256,"x_min":0,"x_max":200,"o":"m 49 119 q 83 93 72 119 q 94 35 94 67 q 81 -33 94 -1 q 44 -64 68 -64 l 43 -64 q 28 -49 28 -61 q 31 -40 28 -44 q 42 -36 35 -36 l 46 -36 q 69 -24 56 -36 q 85 22 82 -11 q 43 0 63 0 q 12 17 24 0 q 0 57 0 35 q 15 102 0 85 q 49 119 29 119 m 154 119 q 189 93 178 119 q 200 35 200 67 q 187 -33 200 -1 q 150 -64 174 -64 l 149 -64 q 133 -49 133 -61 q 137 -40 133 -44 q 147 -36 140 -36 l 151 -36 q 175 -24 161 -36 q 190 22 189 -11 q 149 0 168 0 q 117 17 129 0 q 106 57 106 35 q 120 102 106 85 q 154 119 135 119 z "},"":{"ha":607,"x_min":0,"x_max":551,"o":"m 517 283 q 542 265 533 283 q 551 226 551 247 q 543 191 551 207 q 517 175 535 175 l 514 175 q 491 181 504 175 q 453 193 478 186 q 391 207 429 200 q 293 217 353 214 q 301 115 297 157 q 308 44 304 74 q 313 -5 311 15 q 315 -42 315 -25 l 315 -50 q 302 -87 315 -75 q 274 -100 289 -100 q 245 -87 258 -100 q 232 -49 232 -75 l 232 -43 q 235 -6 232 -26 q 241 44 238 14 q 249 115 244 74 q 257 217 253 157 q 159 207 197 214 q 97 193 121 200 q 60 181 74 186 q 38 175 47 175 l 35 175 q 8 190 17 175 q 0 225 0 206 q 9 265 0 247 q 35 283 18 283 l 38 283 q 60 277 47 283 q 97 263 74 271 q 159 248 121 256 q 258 238 197 240 q 265 363 263 293 q 268 525 267 433 q 166 516 206 522 q 101 502 126 510 q 63 489 76 494 q 39 483 49 483 l 35 483 q 8 499 17 483 q 0 533 0 514 q 9 574 0 556 q 35 592 18 592 l 38 592 q 60 585 47 592 q 99 571 74 579 q 164 555 124 563 q 268 546 204 547 q 260 680 267 628 q 248 764 254 732 q 237 814 242 796 q 232 844 232 832 l 232 849 q 246 881 232 869 q 276 893 260 893 q 303 883 292 893 q 315 849 315 872 l 315 844 q 311 813 315 831 q 301 763 307 794 q 290 678 296 731 q 283 546 285 626 q 386 555 346 547 q 451 571 426 563 q 490 585 476 579 q 514 592 503 592 l 517 592 q 542 574 533 592 q 551 535 551 556 q 543 499 551 515 q 517 483 535 483 l 513 483 q 488 489 501 483 q 450 502 475 494 q 385 516 425 510 q 283 525 346 522 q 287 363 285 433 q 292 238 289 293 q 390 248 351 240 q 453 263 429 256 q 491 277 478 271 q 514 283 504 283 l 517 283 z "},"":{"ha":607,"x_min":0,"x_max":551,"o":"m 517 592 q 542 574 533 592 q 551 535 551 556 q 543 499 551 515 q 517 483 535 483 l 513 483 q 488 489 501 483 q 450 502 475 494 q 385 516 425 510 q 283 525 346 522 q 290 270 285 369 q 301 110 296 171 q 311 15 307 49 q 315 -44 315 -19 l 315 -50 q 302 -87 315 -75 q 274 -100 289 -100 q 245 -87 258 -100 q 232 -49 232 -75 l 232 -44 q 237 14 232 -19 q 248 109 242 47 q 260 269 254 171 q 268 525 267 368 q 166 516 206 522 q 101 502 126 510 q 63 489 76 494 q 39 483 49 483 l 35 483 q 8 499 17 483 q 0 533 0 514 q 9 574 0 556 q 35 592 18 592 l 38 592 q 60 585 47 592 q 99 571 74 579 q 164 555 124 563 q 268 546 204 547 q 260 680 267 628 q 248 764 254 732 q 237 814 242 796 q 232 844 232 832 l 232 849 q 246 881 232 869 q 276 893 260 893 q 303 883 292 893 q 315 849 315 872 l 315 844 q 311 813 315 831 q 301 763 307 794 q 290 678 296 731 q 283 546 285 626 q 386 555 346 547 q 451 571 426 563 q 490 585 476 579 q 514 592 503 592 l 517 592 z "},"":{"ha":290,"x_min":0,"x_max":235,"o":"m 118 249 q 35 281 69 249 q 0 358 0 313 q 35 435 0 403 q 118 467 69 467 q 163 458 142 467 q 201 435 185 450 q 226 401 217 421 q 235 358 235 381 q 201 281 235 313 q 118 249 167 249 z "},"":{"ha":535,"x_min":0,"x_max":479,"o":"m 51 -4 q 15 13 31 -4 q 0 54 0 31 q 15 95 0 78 q 51 113 31 113 q 89 95 74 113 q 104 54 104 78 q 89 13 104 31 q 51 -4 74 -4 m 247 -4 q 211 13 226 -4 q 196 54 196 31 q 211 95 196 78 q 247 113 226 113 q 285 95 269 113 q 300 54 300 78 q 285 13 300 31 q 247 -4 269 -4 m 426 -4 q 390 13 406 -4 q 375 54 375 31 q 390 95 375 78 q 426 113 406 113 q 464 95 449 113 q 479 54 479 78 q 464 13 479 31 q 426 -4 449 -4 z "},"":{"ha":297,"x_min":0,"x_max":242,"o":"m 71 354 l 226 139 l 206 111 l 0 393 l 192 657 l 242 589 l 71 354 z "},"":{"ha":297,"x_min":0,"x_max":242,"o":"m 242 393 l 35 111 l 14 139 l 171 354 l 0 589 l 50 657 l 242 393 z "},"":{"ha":658,"x_min":0,"x_max":603,"o":"m 528 831 q 544 848 535 843 q 565 853 554 853 q 592 843 581 853 q 603 818 603 833 q 594 793 603 806 q 565 756 583 776 q 515 694 547 735 q 434 585 483 653 q 311 406 385 517 q 199 221 240 293 q 133 103 157 149 q 98 34 110 58 q 75 -7 86 10 q 58 -24 68 -19 q 38 -29 47 -29 q 11 -20 22 -29 q 0 4 0 -11 q 8 29 0 17 q 38 69 19 47 q 87 131 56 90 q 167 239 118 171 q 290 418 217 307 q 403 603 361 531 q 469 720 444 675 q 505 790 493 765 q 528 831 517 814 z "},"":{"ha":579,"x_min":0,"x_max":524,"o":"m 524 783 l 518 782 q 490 815 511 800 q 440 839 472 828 q 351 850 407 850 l 147 850 q 147 847 147 847 q 146 844 146 846 l 146 474 l 328 474 q 365 485 346 474 q 385 513 385 496 l 385 532 l 403 532 l 403 386 l 385 386 l 385 404 q 365 433 385 421 q 328 446 346 446 l 146 446 l 146 196 l 314 196 l 314 154 l 146 154 l 146 33 q 153 15 146 22 q 172 8 161 8 l 176 8 l 176 0 l 47 0 l 47 8 l 50 8 q 69 15 61 8 q 76 33 76 22 l 76 154 l 0 154 l 0 196 l 76 196 l 76 844 q 69 862 76 856 q 50 868 61 868 l 47 868 l 47 878 l 497 878 l 524 783 z "},"":{"ha":601,"x_min":0,"x_max":546,"o":"m 378 549 q 397 588 378 575 q 440 612 417 601 q 483 638 464 622 q 503 686 503 653 q 501 703 503 697 q 438 820 490 774 q 297 867 385 867 l 288 867 q 194 851 232 864 q 133 816 156 838 q 100 765 110 794 q 90 701 90 735 q 102 615 90 660 q 131 524 114 569 q 169 435 149 478 q 208 356 190 392 l 364 356 l 364 314 l 228 314 q 239 286 235 299 q 246 267 243 274 q 248 249 247 258 q 249 232 249 240 q 222 126 249 176 q 144 40 196 75 l 333 40 q 422 55 389 40 q 472 89 454 69 q 500 138 493 110 l 504 136 l 479 0 l 31 0 q 15 18 15 0 q 19 30 15 25 q 31 35 24 35 q 139 76 106 46 q 178 150 172 107 q 178 158 178 154 q 179 168 179 163 q 166 240 179 204 q 133 314 153 275 l 15 314 l 15 356 l 113 356 q 38 496 74 425 q 0 638 1 567 l 0 643 q 22 752 0 706 q 83 830 44 799 q 175 876 122 861 q 288 892 228 892 l 292 892 q 463 843 396 892 q 543 708 529 794 q 545 691 544 700 q 546 674 546 682 q 536 610 546 638 q 500 545 525 572 q 439 508 475 518 q 433 508 436 508 q 426 507 429 507 q 391 519 403 507 q 378 546 379 531 l 378 549 z "},"":{"ha":736,"x_min":15,"x_max":726,"o":"m 446 25 q 578 77 518 25 q 676 217 639 129 l 726 165 q 605 40 678 86 q 446 -7 532 -7 q 322 21 381 -7 q 216 97 263 49 q 138 213 169 146 q 93 357 106 279 l 15 357 l 15 399 l 89 399 q 87 422 88 410 q 86 446 86 435 q 87 471 86 458 q 89 494 88 483 l 15 494 l 15 536 l 93 536 q 138 680 106 614 q 217 794 169 746 q 322 871 264 843 q 446 899 381 899 q 605 852 532 899 q 726 726 678 806 l 676 676 q 578 816 639 764 q 446 868 518 868 q 351 843 396 868 q 272 774 307 818 q 211 668 236 729 q 176 536 186 607 l 407 536 l 407 494 l 172 494 q 170 471 171 483 q 169 446 169 458 q 170 422 169 435 q 172 399 171 410 l 407 399 l 407 357 l 176 357 q 211 225 186 286 q 272 119 236 164 q 351 50 307 75 q 446 25 396 25 z "},"":{"ha":863,"x_min":0,"x_max":807,"o":"m 338 850 l 353 796 l 342 794 l 340 797 q 326 814 336 807 q 301 826 318 821 q 256 831 283 831 l 201 831 l 201 399 q 204 393 201 394 q 211 390 206 390 l 217 390 l 217 378 l 139 378 l 139 390 l 146 390 q 153 393 150 390 q 156 399 156 396 l 156 831 l 96 831 q 51 826 68 831 q 25 814 33 821 q 11 797 14 807 l 11 794 l 0 796 l 15 853 l 338 853 l 338 850 m 794 838 q 790 832 790 835 l 790 399 q 794 393 790 394 q 801 390 796 390 l 807 390 l 807 378 l 729 378 l 729 390 l 735 390 q 743 393 740 390 q 746 399 746 396 l 746 778 l 613 394 l 574 394 l 425 779 l 425 399 q 429 393 425 394 q 436 390 431 390 l 442 390 l 442 378 l 383 378 l 383 390 l 389 390 q 396 393 394 390 q 400 399 400 394 l 400 832 q 396 838 400 835 q 389 840 394 840 l 383 840 l 383 853 l 449 853 l 601 453 l 739 840 l 738 842 l 743 851 l 744 853 l 807 853 l 807 840 l 801 840 q 794 838 796 840 z "},"":{"ha":451,"x_min":0,"x_max":396,"o":"m 0 493 l 0 535 l 396 535 l 396 493 l 0 493 z "},"":{"ha":542,"x_min":0,"x_max":486,"o":"m 486 594 q 476 519 483 550 q 458 471 469 489 q 430 445 446 453 q 396 438 414 438 q 326 454 364 438 q 248 491 288 471 q 170 528 208 511 q 99 544 132 544 q 53 531 74 544 q 18 485 32 517 l 0 492 q 63 594 29 565 q 132 622 96 622 q 202 604 167 622 q 273 564 238 586 q 342 524 308 542 q 407 506 375 506 l 410 506 q 452 527 436 507 q 469 596 468 547 l 486 594 m 410 333 q 452 355 436 335 q 469 424 468 375 l 486 422 q 476 347 483 378 q 458 299 469 317 q 430 273 446 281 q 396 265 414 265 q 326 282 364 265 q 248 319 288 299 q 170 356 208 339 q 99 372 132 372 q 53 358 74 372 q 18 313 32 344 l 0 319 q 63 422 29 393 q 132 450 96 450 q 202 432 167 450 q 273 392 238 414 q 342 351 308 369 q 407 333 375 333 l 410 333 z "},"":{"ha":486,"x_min":0,"x_max":431,"o":"m 17 0 l 17 42 l 414 42 l 414 0 l 17 0 m 365 110 l 0 335 l 354 553 l 431 506 l 115 311 l 403 133 l 365 110 z "},"":{"ha":486,"x_min":0,"x_max":431,"o":"m 315 311 l 0 506 l 76 553 l 431 335 l 65 110 l 26 133 l 315 311 m 17 0 l 17 42 l 414 42 l 414 0 l 17 0 z "},"":{"ha":1179,"x_min":0,"x_max":1124,"o":"m 713 549 q 786 632 739 599 q 897 668 833 665 l 908 668 q 977 658 943 668 q 1037 629 1011 649 q 1078 578 1063 610 q 1094 504 1094 547 l 1094 33 q 1102 17 1094 24 q 1121 10 1110 10 l 1124 10 l 1124 0 l 999 0 l 999 10 l 1001 10 q 1020 17 1013 10 q 1028 33 1028 24 l 1028 496 q 1016 559 1028 532 q 984 603 1004 586 q 938 629 964 621 q 885 638 913 638 l 875 638 q 821 624 847 636 q 772 593 794 613 q 734 547 750 574 q 713 486 718 519 l 713 33 q 720 17 713 24 q 739 10 728 10 l 742 10 l 742 0 l 617 0 l 617 10 l 619 10 q 638 17 631 10 q 646 33 646 24 l 646 565 q 612 663 643 635 q 543 692 581 690 q 476 675 507 692 q 435 636 446 658 q 534 545 497 606 q 571 392 571 485 q 549 284 571 335 q 488 196 526 233 q 397 136 449 158 q 285 114 344 114 q 149 149 211 114 q 134 119 140 136 q 128 86 128 103 q 136 58 128 71 q 164 38 144 44 q 190 35 175 35 q 275 41 222 35 q 383 47 328 47 q 451 43 418 47 q 510 26 485 39 q 553 -8 536 14 q 574 -62 571 -29 l 574 -76 q 545 -167 574 -128 q 472 -234 517 -207 q 370 -276 426 -261 q 257 -290 314 -290 q 176 -282 215 -290 q 104 -256 136 -274 q 50 -212 72 -239 q 19 -150 28 -186 q 17 -135 18 -143 q 17 -121 17 -128 q 35 -53 17 -85 q 93 -3 53 -21 l 99 -11 q 64 -36 75 -21 q 53 -69 53 -51 q 74 -127 53 -97 q 131 -182 94 -157 q 215 -223 167 -207 q 321 -239 264 -239 q 338 -239 329 -239 q 356 -237 347 -239 q 458 -201 418 -232 q 499 -112 499 -171 q 498 -99 499 -106 q 496 -83 497 -92 q 441 -7 485 -25 q 335 11 397 11 q 260 8 299 11 q 179 4 221 6 l 171 4 q 96 30 115 4 q 76 88 76 56 q 84 138 76 114 q 103 178 92 163 q 28 272 56 217 q 0 392 0 326 q 22 501 0 450 q 83 589 44 551 q 174 648 122 626 q 285 669 226 669 q 400 651 350 669 q 462 700 418 682 q 554 718 506 718 q 612 711 583 718 q 663 690 640 704 q 699 653 685 676 q 713 596 713 629 l 713 549 m 490 414 q 462 507 483 464 q 410 581 440 550 q 342 631 379 613 q 264 649 304 649 q 255 648 260 649 q 246 647 250 647 q 177 624 208 643 q 124 574 146 604 q 89 503 101 543 q 76 419 76 464 q 81 369 76 394 q 109 276 88 319 q 161 202 131 233 q 229 153 192 171 q 307 135 267 135 q 316 135 311 135 q 325 136 321 136 q 394 160 363 140 q 447 210 425 179 q 482 280 469 240 q 494 364 494 319 q 490 414 494 389 z "},"":{"ha":1561,"x_min":0,"x_max":1506,"o":"m 149 149 q 134 119 140 136 q 128 86 128 103 q 136 58 128 71 q 164 38 144 44 q 190 35 175 35 q 275 41 222 35 q 383 47 328 47 q 451 43 418 47 q 510 26 485 39 q 553 -8 536 14 q 574 -62 571 -29 l 574 -76 q 545 -167 574 -128 q 472 -234 517 -207 q 370 -276 426 -261 q 257 -290 314 -290 q 176 -282 215 -290 q 104 -256 136 -274 q 50 -212 72 -239 q 19 -150 28 -186 q 17 -135 18 -143 q 17 -121 17 -128 q 35 -53 17 -85 q 93 -3 53 -21 l 99 -11 q 64 -36 75 -21 q 53 -69 53 -51 q 74 -127 53 -97 q 131 -182 94 -157 q 215 -223 167 -207 q 321 -239 264 -239 q 338 -239 329 -239 q 356 -237 347 -239 q 458 -201 418 -232 q 499 -112 499 -171 q 498 -99 499 -106 q 496 -83 497 -92 q 441 -7 485 -25 q 335 11 397 11 q 260 8 299 11 q 179 4 221 6 l 171 4 q 96 30 115 4 q 76 88 76 56 q 84 138 76 114 q 103 178 92 163 q 28 272 56 217 q 0 392 0 326 q 22 501 0 450 q 83 589 44 551 q 174 648 122 626 q 285 669 226 669 q 400 651 350 669 q 462 700 418 682 q 554 718 506 718 q 612 711 583 718 q 663 690 640 704 q 699 653 685 676 q 713 596 713 629 l 713 549 q 787 633 739 601 q 897 668 835 665 l 910 668 q 1024 638 972 668 q 1090 542 1076 608 l 1100 560 q 1172 635 1126 606 q 1279 668 1218 665 l 1290 668 q 1359 658 1325 668 q 1419 629 1393 649 q 1460 578 1444 610 q 1476 504 1476 547 l 1476 33 q 1484 17 1476 24 q 1503 10 1492 10 l 1506 10 l 1506 0 l 1379 0 l 1379 10 l 1383 10 q 1402 17 1394 10 q 1410 33 1410 24 l 1410 496 q 1398 559 1410 532 q 1366 603 1386 586 q 1320 629 1346 621 q 1267 638 1294 638 l 1257 638 q 1203 624 1229 636 q 1154 593 1176 613 q 1116 547 1132 574 q 1094 488 1100 519 l 1094 33 q 1102 17 1094 24 q 1121 10 1110 10 l 1124 10 l 1124 0 l 999 0 l 999 10 l 1001 10 q 1020 17 1013 10 q 1028 33 1028 24 l 1028 496 q 1016 559 1028 532 q 984 603 1004 586 q 938 629 964 621 q 885 638 913 638 l 875 638 q 806 617 838 635 q 751 572 775 600 q 713 488 722 535 l 713 33 q 720 17 713 24 q 739 10 728 10 l 742 10 l 742 0 l 617 0 l 617 10 l 619 10 q 638 17 631 10 q 646 33 646 24 q 646 81 646 44 q 647 167 646 117 q 647 275 647 217 q 647 389 647 333 q 647 492 647 444 q 646 568 647 540 q 636 626 646 603 q 612 663 626 649 q 579 685 597 678 q 543 692 561 692 q 476 675 507 692 q 435 636 446 658 q 534 545 497 606 q 571 392 571 485 q 549 284 571 335 q 488 196 526 233 q 397 136 449 158 q 285 114 344 114 q 149 149 211 114 m 490 414 q 462 507 483 464 q 410 581 440 550 q 342 631 379 613 q 264 649 304 649 q 255 648 260 649 q 246 647 250 647 q 177 624 208 643 q 124 574 146 604 q 89 503 101 543 q 76 419 76 464 q 81 369 76 394 q 109 276 88 319 q 161 202 131 233 q 229 153 192 171 q 307 135 267 135 q 316 135 311 135 q 325 136 321 136 q 394 160 363 140 q 447 210 425 179 q 482 280 469 240 q 494 364 494 319 q 490 414 494 389 z "},"":{"ha":1200,"x_min":0,"x_max":1144,"o":"m 1028 111 q 953 28 1001 61 q 843 -8 906 -6 l 832 -8 q 763 1 796 -8 q 703 31 729 11 q 662 81 678 50 q 646 157 646 113 l 646 565 q 612 663 643 635 q 543 692 581 690 q 476 675 507 692 q 435 636 446 658 q 526 557 490 608 q 569 428 563 506 q 570 410 569 418 q 571 392 571 401 q 549 284 571 335 q 488 196 526 233 q 397 136 449 158 q 285 114 344 114 q 149 149 211 114 q 134 119 140 136 q 128 86 128 103 q 136 58 128 71 q 164 38 144 44 q 190 35 175 35 q 275 41 222 35 q 383 47 328 47 q 451 43 418 47 q 510 26 485 39 q 553 -8 536 14 q 574 -62 571 -29 l 574 -76 q 545 -167 574 -128 q 472 -234 517 -207 q 370 -276 426 -261 q 257 -290 314 -290 q 176 -282 215 -290 q 104 -256 136 -274 q 50 -212 72 -239 q 19 -150 28 -186 q 17 -135 18 -143 q 17 -121 17 -128 q 35 -53 17 -85 q 93 -3 53 -21 l 99 -11 q 64 -36 75 -21 q 53 -69 53 -51 q 74 -127 53 -97 q 131 -182 94 -157 q 215 -223 167 -207 q 321 -239 264 -239 q 338 -239 329 -239 q 356 -237 347 -239 q 458 -201 418 -232 q 499 -112 499 -171 q 498 -99 499 -106 q 496 -83 497 -92 q 441 -7 485 -25 q 335 11 397 11 q 260 8 299 11 q 179 4 221 6 l 171 4 q 96 30 115 4 q 76 88 76 56 q 84 138 76 114 q 103 178 92 163 q 28 272 56 217 q 0 392 0 326 q 22 501 0 450 q 83 589 44 551 q 174 648 122 626 q 285 669 226 669 q 400 651 350 669 q 462 700 418 682 q 554 718 506 718 q 612 711 583 718 q 663 690 640 704 q 699 653 685 676 q 713 596 713 629 l 713 165 q 724 103 713 129 q 756 58 736 76 q 800 32 775 40 q 853 24 825 24 l 865 24 q 919 37 893 25 q 968 68 946 49 q 1006 115 990 88 q 1028 174 1021 142 l 1028 599 q 1023 628 1028 614 q 994 643 1018 643 l 976 643 l 976 660 l 1026 668 q 1042 670 1035 669 q 1056 671 1049 671 q 1094 643 1094 671 l 1094 68 q 1099 40 1094 53 q 1126 26 1104 26 l 1144 26 l 1144 11 l 1094 4 q 1078 2 1086 3 q 1063 1 1069 1 q 1028 28 1028 1 l 1028 111 m 490 414 q 462 507 483 464 q 410 581 440 550 q 342 631 379 613 q 264 649 304 649 q 255 648 260 649 q 246 647 250 647 q 177 624 208 643 q 124 574 146 604 q 89 503 101 543 q 76 419 76 464 q 81 369 76 394 q 109 276 88 319 q 161 202 131 233 q 229 153 192 171 q 307 135 267 135 q 316 135 311 135 q 325 136 321 136 q 394 160 363 140 q 447 210 425 179 q 482 280 469 240 q 494 364 494 319 q 490 414 494 389 z "},"":{"ha":818,"x_min":0,"x_max":801,"o":"m 257 -290 q 163 -279 207 -290 q 86 -246 118 -268 q 35 -192 54 -224 q 17 -121 17 -161 q 35 -53 17 -85 q 93 -3 53 -21 l 99 -11 q 64 -36 75 -21 q 53 -69 53 -51 q 74 -127 53 -97 q 131 -182 94 -157 q 215 -223 167 -207 q 321 -239 264 -239 q 388 -232 356 -239 q 444 -210 419 -225 q 484 -172 469 -196 q 499 -112 499 -147 q 498 -99 499 -106 q 496 -83 497 -92 q 441 -7 485 -25 q 335 11 397 11 q 256 8 294 11 q 171 4 217 6 q 96 30 115 4 q 76 88 76 56 q 84 138 76 114 q 103 178 92 163 q 28 272 56 217 q 0 392 0 326 q 22 501 0 450 q 83 589 44 551 q 174 648 122 626 q 285 669 226 669 q 401 651 349 669 q 432 687 413 669 q 483 717 451 704 q 530 728 504 724 q 588 733 556 733 q 646 724 617 733 q 699 698 675 715 q 737 655 722 681 q 751 597 751 629 l 749 306 l 749 72 q 752 35 749 51 q 769 19 756 19 q 781 25 776 19 q 788 47 785 31 q 793 51 788 51 q 801 44 801 51 q 779 3 794 14 q 744 -8 764 -8 q 694 22 706 -7 q 682 81 682 50 l 682 333 l 685 586 q 674 637 685 615 q 647 673 663 658 q 612 696 631 688 q 575 704 593 704 l 571 704 q 477 682 508 704 q 435 636 446 660 q 534 545 497 606 q 571 392 571 485 q 549 284 571 335 q 488 196 526 233 q 397 136 449 158 q 285 114 344 114 q 149 149 211 114 q 134 119 140 136 q 128 86 128 103 q 129 68 128 78 q 137 51 131 58 q 156 40 143 44 q 190 35 168 35 q 275 41 222 35 q 383 47 328 47 q 460 42 425 47 q 519 23 494 36 q 558 -15 544 10 q 574 -76 572 -39 q 545 -167 574 -128 q 472 -234 517 -207 q 370 -276 426 -261 q 257 -290 314 -290 m 700 761 q 663 778 678 761 q 647 819 647 796 q 663 860 647 843 q 700 878 678 878 q 738 860 722 878 q 753 819 753 843 q 738 778 753 796 q 700 761 722 761 m 307 135 q 443 202 392 140 q 494 364 494 264 q 476 469 494 418 q 427 560 458 521 q 354 624 396 600 q 264 649 313 649 q 128 581 179 643 q 76 419 76 519 q 94 314 76 365 q 142 223 111 263 q 216 159 174 183 q 307 135 258 135 z "},"":{"ha":606,"x_min":0,"x_max":636,"o":"m 114 72 q 117 35 114 51 q 136 19 121 19 l 139 19 q 154 47 147 19 q 160 51 154 51 q 167 44 167 51 q 144 3 160 14 q 110 -8 129 -8 l 106 -8 q 76 1 88 -8 q 58 24 64 10 q 49 53 51 38 q 47 81 47 68 l 50 590 l 50 606 q 44 631 50 619 q 18 643 39 643 l 0 643 l 0 660 l 50 668 q 65 670 58 669 q 79 671 72 671 q 117 644 117 671 l 114 92 l 114 72 m 360 532 q 383 578 369 556 q 417 620 397 601 q 463 651 436 639 q 522 664 489 663 l 529 664 q 581 654 556 664 q 625 621 606 644 q 636 590 636 608 q 622 557 636 571 q 585 543 607 543 l 583 543 q 555 556 567 543 q 531 584 543 569 q 507 611 519 599 q 476 624 494 624 l 471 624 q 426 602 446 621 q 393 556 407 583 q 372 499 379 529 q 360 443 364 468 l 360 36 q 367 18 360 25 q 386 11 375 11 l 389 11 l 389 1 l 264 1 l 264 11 l 267 11 q 285 18 278 11 q 293 36 293 25 l 293 572 l 290 781 q 262 845 290 821 q 199 869 233 869 q 140 845 167 869 q 110 764 113 821 q 99 729 108 744 q 64 714 89 714 l 58 714 q 26 730 33 717 q 18 758 18 743 l 18 764 q 35 817 19 794 q 76 853 51 839 q 131 876 100 868 q 193 883 161 883 q 253 876 224 883 q 306 856 283 869 q 343 821 329 842 q 357 774 357 800 l 360 532 z "},"":{"ha":894,"x_min":0,"x_max":839,"o":"m 114 72 q 117 35 114 51 q 136 19 121 19 l 139 19 q 154 47 147 19 q 160 51 154 51 q 167 44 167 51 q 144 3 160 14 q 110 -8 129 -8 l 106 -8 q 76 1 88 -8 q 58 24 64 10 q 49 53 51 38 q 47 81 47 68 l 50 590 l 50 606 q 44 631 50 619 q 18 643 39 643 l 0 643 l 0 660 l 50 668 q 65 670 58 669 q 79 671 72 671 q 117 644 117 671 l 114 92 l 114 72 m 376 571 q 466 644 415 619 q 569 668 517 668 q 668 647 619 668 q 755 582 717 625 q 816 475 793 539 q 839 326 839 411 q 816 180 839 243 q 756 75 793 117 q 669 13 718 33 q 571 -8 621 -8 q 489 6 529 -8 q 414 47 449 19 q 385 60 397 60 q 356 40 365 60 q 344 1 346 21 l 310 1 q 306 781 310 390 q 277 845 306 821 q 214 869 249 869 q 155 845 182 869 q 125 764 128 821 q 114 729 124 744 q 79 714 104 714 l 74 714 q 41 730 49 717 q 33 758 33 743 l 33 764 q 51 817 35 794 q 91 853 67 839 q 146 876 115 868 q 208 883 176 883 q 269 876 239 883 q 322 856 299 869 q 358 821 344 842 q 372 774 372 800 q 375 672 374 722 q 376 571 376 622 m 569 8 q 642 28 607 8 q 704 86 676 47 q 749 185 732 125 q 765 326 765 244 q 749 468 765 407 q 705 569 732 529 q 643 631 678 610 q 572 653 608 651 l 569 653 q 485 624 521 653 q 424 550 449 596 q 388 446 400 504 q 375 326 375 388 q 387 210 375 267 q 422 108 399 153 q 483 35 446 63 q 568 8 519 8 l 569 8 z "},"":{"ha":907,"x_min":0,"x_max":851,"o":"m 0 326 q 23 476 0 411 q 84 583 46 540 q 171 649 122 626 q 269 671 219 671 q 372 647 322 671 q 461 575 422 624 q 463 674 463 625 q 464 774 464 724 q 478 821 464 800 q 516 856 493 842 q 568 876 539 869 q 629 883 597 883 q 692 876 661 883 q 747 853 722 868 q 787 817 771 839 q 804 764 803 794 l 804 758 q 797 730 804 743 q 763 714 789 717 l 757 714 q 723 729 732 714 q 713 764 714 744 q 683 845 710 821 q 624 869 656 869 q 560 846 589 869 q 532 782 532 822 l 529 94 l 529 85 q 533 40 529 61 q 553 19 536 19 l 554 19 q 569 49 565 22 q 575 53 569 53 q 582 47 582 53 l 582 46 q 560 3 575 15 q 525 -8 544 -8 l 521 -8 q 491 1 503 -8 q 473 24 479 10 q 465 53 467 38 q 463 83 463 69 q 373 13 424 36 q 268 -11 322 -11 q 170 10 218 -11 q 84 73 122 31 q 23 178 46 115 q 0 326 0 242 m 799 82 q 802 39 799 58 q 821 19 806 19 l 824 19 q 839 47 835 19 q 844 51 839 51 q 851 46 851 51 l 851 44 q 829 3 844 14 q 794 -8 814 -8 l 790 -8 q 760 1 772 -8 q 742 24 749 10 q 734 53 736 38 q 732 81 732 68 l 736 590 l 736 599 q 731 628 736 614 q 703 643 726 643 l 685 643 l 685 660 l 735 668 q 750 670 743 669 q 764 671 757 671 q 803 643 803 671 l 799 92 l 799 82 m 271 7 q 356 35 319 7 q 417 107 393 63 q 453 209 442 151 q 465 326 465 267 q 453 447 465 388 q 416 552 440 506 q 355 627 392 599 q 269 656 318 656 q 197 635 232 656 q 135 573 163 614 q 90 470 107 532 q 74 326 74 408 q 90 185 74 244 q 135 85 107 125 q 197 26 163 46 q 269 7 232 7 l 271 7 z "},"":{"ha":1019,"x_min":0,"x_max":1032,"o":"m 257 -290 q 176 -282 215 -290 q 104 -256 136 -274 q 50 -212 72 -239 q 19 -150 28 -186 q 17 -135 18 -143 q 17 -121 17 -128 q 35 -53 17 -85 q 93 -3 53 -21 l 99 -11 q 64 -36 75 -21 q 53 -69 53 -51 q 74 -127 53 -97 q 131 -182 94 -157 q 215 -223 167 -207 q 321 -239 264 -239 q 338 -239 329 -239 q 356 -237 347 -239 q 458 -201 418 -232 q 499 -112 499 -171 q 498 -99 499 -106 q 496 -83 497 -92 q 441 -7 485 -25 q 335 11 397 11 q 260 8 299 11 q 179 4 221 6 q 98 27 119 4 q 76 88 76 50 q 84 138 76 114 q 103 178 92 163 q 28 272 56 217 q 0 392 0 326 q 22 501 0 450 q 83 589 44 551 q 174 648 122 626 q 285 669 226 669 q 400 651 350 669 q 458 704 417 681 q 574 728 500 728 l 585 728 q 644 719 614 728 q 699 695 675 711 q 740 654 724 679 q 756 596 756 629 l 756 532 q 778 578 765 556 q 812 620 792 601 q 858 651 832 639 q 918 664 883 663 q 974 656 947 664 q 1021 621 1000 647 q 1032 590 1032 608 q 1017 557 1032 571 q 981 543 1003 543 q 951 556 964 543 q 927 583 939 568 q 903 611 915 599 q 872 624 890 624 q 824 605 844 624 q 790 559 804 586 q 768 500 776 532 q 756 443 760 468 l 756 36 q 763 18 756 25 q 782 11 771 11 l 785 11 l 785 1 l 658 1 l 658 11 q 680 17 671 11 q 689 36 689 24 l 689 572 q 679 630 689 606 q 653 670 669 654 q 618 694 638 686 q 581 703 599 703 l 576 703 q 518 697 543 703 q 476 680 493 690 q 450 658 460 669 q 435 636 440 646 q 534 545 497 606 q 571 392 571 485 q 549 284 571 335 q 488 196 526 233 q 397 136 449 158 q 285 114 344 114 q 149 149 211 114 q 134 119 140 136 q 128 86 128 103 q 136 58 128 71 q 164 38 144 44 q 190 35 175 35 q 275 41 222 35 q 383 47 328 47 q 451 43 418 47 q 510 26 485 39 q 553 -8 536 14 q 574 -62 571 -29 l 574 -76 q 545 -167 574 -128 q 472 -234 517 -207 q 370 -276 426 -261 q 257 -290 314 -290 m 307 135 q 381 152 346 135 q 440 200 415 169 q 480 272 465 231 q 494 364 494 314 q 476 469 494 418 q 427 560 458 521 q 354 624 396 600 q 264 649 313 649 q 190 631 224 649 q 131 583 156 614 q 91 511 106 553 q 76 419 76 469 q 94 314 76 365 q 142 223 111 263 q 216 159 174 183 q 307 135 258 135 z "},"":{"ha":585,"x_min":-110,"x_max":529,"o":"m 50 878 q 65 880 58 879 q 79 881 72 881 q 117 853 117 881 l 117 550 q 191 633 143 600 q 301 669 239 667 l 317 669 q 384 660 351 669 q 442 630 417 650 q 483 579 468 610 q 499 506 499 549 l 499 36 q 506 18 499 25 q 525 11 514 11 l 529 11 l 529 1 l 403 1 l 403 11 l 406 11 q 424 18 417 11 q 432 36 432 25 l 432 497 q 420 560 432 533 q 388 605 408 588 q 342 631 368 622 q 289 639 317 639 l 279 639 q 225 626 251 638 q 176 594 199 614 q 138 548 154 575 q 117 488 122 521 l 117 -24 q 108 -78 117 -51 q 83 -128 100 -106 q 40 -164 65 -150 q -18 -179 15 -178 l -29 -179 q -85 -169 -64 -179 q -110 -149 -107 -160 l -110 -146 q -106 -131 -110 -139 q -89 -124 -101 -124 l -86 -124 q -70 -129 -75 -124 q -62 -143 -65 -135 q -54 -158 -61 -150 q -33 -167 -47 -165 l -28 -167 q 17 -151 1 -167 q 40 -115 32 -136 q 49 -68 47 -93 q 50 -22 50 -43 l 50 813 q 45 841 50 828 q 18 854 40 854 l 0 854 l 0 869 l 50 878 l 50 878 z "},"":{"ha":592,"x_min":0,"x_max":660,"o":"m 50 878 q 65 880 58 879 q 79 881 72 881 q 117 853 117 881 l 117 550 q 191 633 143 600 q 303 669 239 667 l 317 669 q 384 660 351 669 q 442 630 417 650 q 483 579 468 610 q 499 506 499 549 l 499 -22 q 500 -68 499 -43 q 509 -115 501 -93 q 532 -151 517 -136 q 576 -167 547 -167 l 582 -167 q 603 -158 597 -165 q 613 -143 610 -150 q 635 -124 619 -124 l 638 -124 q 654 -130 649 -124 q 660 -143 660 -136 q 659 -147 660 -146 q 658 -149 658 -147 q 635 -169 656 -160 q 578 -179 614 -179 l 567 -179 q 508 -164 533 -178 q 467 -128 483 -150 q 441 -78 450 -106 q 432 -24 432 -51 l 432 497 q 420 560 432 533 q 388 605 408 588 q 342 631 368 622 q 289 639 317 639 l 279 639 q 225 626 251 638 q 176 594 199 614 q 138 548 154 575 q 117 488 122 521 l 117 36 q 124 18 117 25 q 143 11 132 11 l 147 11 l 147 1 l 21 1 l 21 11 l 24 11 q 42 18 35 11 q 50 36 50 25 l 50 813 q 45 841 50 828 q 18 854 40 854 l 0 854 l 0 869 l 50 878 l 50 878 z "},"":{"ha":546,"x_min":-110,"x_max":551,"o":"m 50 875 q 65 877 58 876 q 79 878 72 878 q 117 850 117 878 l 117 340 l 382 635 q 386 647 386 640 q 369 660 386 660 l 365 660 l 365 669 l 494 669 l 494 660 l 485 660 q 456 653 471 660 q 435 635 442 646 l 249 425 l 496 35 q 517 17 503 24 q 543 10 531 10 l 551 10 l 551 0 l 386 0 l 386 10 l 390 10 q 410 24 410 10 q 406 35 410 28 l 196 365 l 117 278 l 117 -25 q 108 -80 117 -53 q 83 -129 100 -107 q 40 -165 65 -151 q -18 -181 15 -179 l -29 -181 q -85 -171 -64 -181 q -110 -150 -107 -161 l -110 -147 q -106 -133 -110 -140 q -89 -125 -101 -125 l -86 -125 q -70 -131 -75 -125 q -62 -144 -65 -136 q -54 -159 -61 -151 q -33 -168 -47 -167 l -28 -168 q 17 -153 1 -168 q 40 -116 32 -137 q 49 -69 47 -94 q 50 -24 50 -44 l 50 810 q 45 838 50 825 q 18 851 40 851 l 0 851 l 0 867 l 50 875 l 50 875 z "},"":{"ha":592,"x_min":0,"x_max":660,"o":"m 50 657 q 65 659 58 658 q 79 660 72 660 q 117 633 117 660 l 117 549 q 191 632 143 599 q 303 668 239 665 l 314 668 q 382 658 349 668 q 441 629 415 649 q 483 578 467 610 q 499 504 499 547 l 499 -22 q 500 -68 499 -43 q 509 -115 501 -93 q 532 -151 517 -136 q 576 -167 547 -167 l 582 -167 q 603 -158 597 -165 q 613 -143 610 -150 q 635 -124 619 -124 l 638 -124 q 654 -130 649 -124 q 660 -143 660 -136 q 659 -147 660 -146 q 658 -149 658 -147 q 635 -169 656 -160 q 578 -179 614 -179 l 567 -179 q 508 -164 533 -178 q 467 -128 483 -150 q 441 -78 450 -106 q 432 -24 432 -51 l 432 496 q 420 559 432 532 q 388 603 408 586 q 342 629 368 621 q 289 638 317 638 l 279 638 q 225 624 251 636 q 176 593 199 613 q 138 547 154 574 q 117 486 122 519 l 117 33 q 124 17 117 24 q 143 10 132 10 l 147 10 l 147 0 l 21 0 l 21 10 l 24 10 q 42 17 35 10 q 50 33 50 24 l 50 593 q 45 620 50 607 q 18 633 40 633 l 0 633 l 0 649 l 50 657 l 50 657 z "},"":{"ha":1138,"x_min":0,"x_max":1138,"o":"m 257 -290 q 176 -282 215 -290 q 104 -256 136 -274 q 50 -212 72 -239 q 19 -150 28 -186 q 17 -135 18 -143 q 17 -121 17 -128 q 35 -53 17 -85 q 93 -3 53 -21 l 99 -11 q 64 -36 75 -21 q 53 -69 53 -51 q 74 -127 53 -97 q 131 -182 94 -157 q 215 -223 167 -207 q 321 -239 264 -239 q 338 -239 329 -239 q 356 -237 347 -239 q 458 -201 418 -232 q 499 -112 499 -171 q 498 -99 499 -106 q 496 -83 497 -92 q 441 -7 485 -25 q 335 11 397 11 q 260 8 299 11 q 179 4 221 6 q 98 27 119 4 q 76 88 76 50 q 84 138 76 114 q 103 178 92 163 q 28 272 56 217 q 0 392 0 326 q 22 501 0 450 q 83 589 44 551 q 174 648 122 626 q 285 669 226 669 q 400 651 350 669 q 453 693 413 674 q 553 713 493 713 l 563 713 q 610 703 585 711 q 660 678 636 694 q 703 640 683 663 q 732 588 722 617 l 888 129 l 1057 633 l 1058 640 q 1033 660 1058 660 l 1028 660 l 1028 668 l 1138 668 l 1138 660 q 1109 654 1122 660 q 1090 633 1096 649 q 1028 451 1050 517 q 992 347 1006 386 q 971 283 979 308 q 951 220 963 257 q 919 122 939 183 q 864 -50 899 61 q 856 -83 861 -60 q 838 -132 850 -107 q 810 -177 826 -157 q 769 -201 793 -197 l 758 -203 q 720 -187 732 -203 q 708 -156 708 -171 q 711 -143 708 -146 q 741 -121 724 -125 q 776 -111 758 -117 q 810 -91 793 -106 q 839 -39 826 -76 l 851 0 l 657 574 q 603 663 633 636 q 546 692 572 689 l 533 692 q 458 673 482 692 q 431 639 435 654 q 532 547 493 608 q 571 392 571 486 q 549 284 571 335 q 488 196 526 233 q 397 136 449 158 q 285 114 344 114 q 149 149 211 114 q 134 119 140 136 q 128 86 128 103 q 136 58 128 71 q 164 38 144 44 q 190 35 175 35 q 275 41 222 35 q 383 47 328 47 q 451 43 418 47 q 510 26 485 39 q 553 -8 536 14 q 574 -62 571 -29 l 574 -76 q 545 -167 574 -128 q 472 -234 517 -207 q 370 -276 426 -261 q 257 -290 314 -290 m 307 135 q 381 152 346 135 q 440 200 415 169 q 480 272 465 231 q 494 364 494 314 q 477 469 494 418 q 428 560 460 521 q 355 624 397 600 q 264 649 313 649 q 190 631 224 649 q 131 583 156 614 q 91 511 106 553 q 76 419 76 469 q 94 314 76 365 q 142 223 111 263 q 216 159 174 183 q 307 135 258 135 z "},"":{"ha":990,"x_min":0,"x_max":935,"o":"m 638 669 q 753 643 699 669 q 847 571 807 617 q 911 463 888 525 q 935 331 935 401 q 911 198 935 260 q 847 90 888 136 q 753 18 807 44 q 638 -8 699 -8 q 547 8 589 -8 q 468 51 504 24 q 389 8 432 24 q 297 -8 346 -8 q 182 18 236 -8 q 88 90 128 44 q 24 198 47 136 q 0 331 0 260 q 24 463 0 401 q 88 571 47 525 q 182 643 128 617 q 297 669 236 669 q 389 653 346 669 q 468 610 432 638 q 547 653 504 638 q 638 669 589 669 m 342 13 q 449 68 404 21 q 369 183 399 115 q 340 331 340 251 q 364 464 340 401 q 429 572 388 526 q 357 629 396 608 q 275 650 318 650 q 254 649 261 650 q 178 619 213 643 q 120 558 144 596 q 82 470 96 519 q 68 365 68 421 q 72 303 68 333 q 104 188 81 240 q 161 95 128 135 q 236 33 194 56 q 322 11 278 11 q 331 11 326 11 q 342 13 336 11 m 411 303 q 437 201 418 249 q 483 117 456 154 q 516 200 504 154 q 528 299 528 246 q 524 358 528 326 q 498 460 517 413 q 451 544 479 507 q 419 461 431 507 q 407 363 407 415 q 411 303 407 333 m 681 13 q 757 42 722 18 q 816 105 792 67 q 854 192 840 143 q 868 299 868 242 q 864 358 868 326 q 831 474 856 421 q 774 566 807 526 q 699 628 740 606 q 614 650 657 650 q 594 649 601 650 q 488 593 533 640 q 566 478 536 546 q 596 331 596 410 q 572 197 596 260 q 506 89 547 135 q 578 32 539 53 q 660 11 618 11 q 681 13 674 11 z "},"":{"ha":456,"x_min":0,"x_max":497,"o":"m 338 76 q 339 32 338 57 q 347 -15 340 7 q 370 -53 354 -37 q 414 -68 386 -68 l 419 -68 q 442 -59 435 -67 q 450 -44 449 -51 q 476 -24 456 -24 q 493 -32 489 -25 q 497 -46 497 -39 l 497 -49 q 473 -71 494 -61 q 415 -81 451 -81 l 404 -81 q 346 -65 371 -79 q 304 -29 321 -51 q 279 20 288 -7 q 271 75 271 47 l 271 807 q 266 837 271 822 q 238 851 261 851 l 219 851 l 219 868 l 269 875 q 286 877 278 876 q 301 878 294 878 q 338 851 338 878 l 338 76 m 117 81 q 120 38 117 57 q 140 18 124 18 l 142 18 q 157 47 153 21 q 163 50 157 50 q 169 46 169 50 l 169 44 q 148 3 164 14 q 113 -8 132 -8 l 108 -8 q 78 1 90 -8 q 60 24 67 10 q 52 53 54 38 q 50 81 50 68 l 50 811 q 45 840 50 826 q 18 853 40 853 l 0 853 l 0 868 l 50 876 q 65 878 58 878 q 79 879 72 879 q 117 853 117 879 l 117 81 z "},"":{"ha":535,"x_min":0,"x_max":542,"o":"m 150 849 l 150 669 l 314 669 l 314 853 l 381 878 l 381 669 l 507 669 l 507 643 l 381 643 l 381 56 q 382 11 381 36 q 391 -36 383 -14 q 414 -73 399 -58 q 458 -87 429 -87 l 464 -87 q 485 -79 479 -87 q 494 -64 492 -71 q 517 -44 501 -44 l 519 -44 q 536 -51 531 -44 q 542 -64 542 -57 q 541 -67 542 -67 q 540 -69 540 -68 q 515 -92 538 -82 q 454 -101 492 -101 l 449 -101 q 390 -85 415 -100 q 349 -49 365 -71 q 323 1 332 -26 q 314 56 314 28 l 314 643 l 150 643 l 150 93 q 153 50 150 69 q 172 31 157 31 l 175 31 q 190 58 186 31 q 196 63 190 63 q 203 56 203 63 q 178 13 196 24 q 142 3 161 3 q 94 35 106 6 q 83 93 83 65 l 83 643 l 0 643 l 0 669 l 83 669 l 83 832 l 150 849 z "},"":{"ha":236,"x_min":0,"x_max":278,"o":"m 117 -22 q 118 -68 117 -43 q 127 -115 119 -93 q 150 -151 135 -136 q 194 -167 165 -167 l 200 -167 q 222 -158 215 -165 q 231 -143 228 -150 q 253 -124 238 -124 l 256 -124 q 272 -130 267 -124 q 278 -143 278 -136 q 277 -147 278 -146 q 276 -149 276 -147 q 253 -169 274 -160 q 196 -179 232 -179 l 185 -179 q 126 -164 151 -178 q 85 -128 101 -150 q 59 -78 68 -106 q 50 -24 50 -51 l 50 811 q 45 840 50 826 q 18 853 40 853 l 0 853 l 0 868 l 50 876 q 65 878 58 878 q 79 879 72 879 q 117 853 117 879 l 117 -22 z "},"":{"ha":558,"x_min":0,"x_max":625,"o":"m 399 121 q 363 69 381 93 q 323 28 346 46 q 269 1 300 11 q 193 -11 238 -10 l 185 -11 q 108 6 142 -11 q 49 49 74 22 q 13 111 25 76 q 0 182 0 146 q 11 247 0 215 q 46 306 22 279 q 106 353 69 333 q 192 379 142 372 q 249 385 219 383 q 310 386 279 386 q 354 385 332 386 q 399 385 376 385 l 399 457 q 388 545 399 508 q 360 604 378 582 q 319 637 342 626 q 275 647 297 647 q 231 639 253 647 q 193 616 210 631 q 165 582 176 601 q 153 539 154 563 q 135 483 149 497 q 104 467 121 469 l 99 467 q 47 518 47 467 l 47 521 q 67 585 49 557 q 116 631 86 613 q 183 660 146 650 q 260 669 221 669 q 335 660 299 669 q 401 630 372 650 q 448 579 431 610 q 465 507 465 549 l 465 -22 q 467 -68 465 -43 q 476 -115 468 -93 q 499 -151 483 -136 q 543 -167 514 -167 l 549 -167 q 569 -158 563 -165 q 579 -143 576 -150 q 601 -124 583 -124 l 604 -124 q 621 -131 617 -124 q 625 -144 625 -137 l 625 -149 q 601 -169 622 -160 q 544 -179 581 -179 l 533 -179 q 475 -164 500 -178 q 433 -128 450 -150 q 407 -78 415 -106 q 399 -24 399 -51 l 399 121 m 211 350 q 109 290 140 338 q 78 186 78 242 q 88 124 78 154 q 115 71 97 94 q 157 33 132 47 q 213 18 182 18 l 217 18 q 298 53 264 19 q 354 135 332 88 q 388 238 376 183 q 399 336 399 292 l 399 356 q 353 356 375 356 q 307 357 331 357 q 258 356 282 357 q 211 350 233 354 z "},"":{"ha":640,"x_min":0,"x_max":689,"o":"m 0 326 q 23 476 0 411 q 84 583 46 540 q 171 648 122 626 q 269 669 219 669 q 373 646 322 669 q 463 574 424 622 l 463 806 q 458 835 463 821 q 431 850 454 850 l 413 850 l 413 868 l 463 875 q 478 877 471 876 q 493 878 486 878 q 529 850 529 878 l 529 -22 q 531 -68 529 -43 q 540 -115 532 -93 q 563 -151 547 -136 q 607 -167 578 -167 l 613 -167 q 633 -158 626 -165 q 643 -143 640 -150 q 665 -124 647 -124 l 668 -124 q 685 -131 681 -124 q 689 -144 689 -137 l 689 -149 q 665 -169 686 -160 q 608 -179 644 -179 l 597 -179 q 539 -164 564 -178 q 497 -128 514 -150 q 471 -78 479 -106 q 463 -24 463 -51 l 463 83 q 373 13 424 36 q 268 -11 322 -11 q 170 10 218 -11 q 84 73 122 31 q 23 178 46 115 q 0 326 0 242 m 271 7 q 356 35 319 7 q 417 107 393 63 q 453 209 442 151 q 465 326 465 267 q 453 447 465 388 q 416 552 440 506 q 355 627 392 599 q 269 656 318 656 q 184 627 221 656 q 122 552 147 599 q 85 447 97 506 q 72 326 72 388 q 85 208 72 265 q 122 106 97 151 q 183 34 146 61 q 269 7 219 7 l 271 7 z "},"":{"ha":638,"x_min":-107,"x_max":582,"o":"m 119 571 q 209 644 158 619 q 313 668 260 668 q 411 647 363 668 q 498 582 460 625 q 559 475 536 539 q 582 326 582 411 q 559 180 582 243 q 499 75 536 117 q 413 13 461 33 q 314 -8 364 -8 q 232 6 272 -8 q 157 47 192 19 q 128 60 140 60 q 124 59 125 60 q 119 58 122 58 l 119 -24 q 111 -78 119 -51 q 85 -128 103 -106 q 43 -164 68 -150 q -15 -179 18 -178 l -26 -179 q -83 -169 -61 -179 q -107 -149 -104 -160 l -107 -146 q -103 -131 -107 -139 q -86 -124 -99 -124 l -83 -124 q -67 -129 -72 -124 q -60 -143 -62 -135 q -51 -158 -58 -150 q -31 -167 -44 -165 l -25 -167 q 19 -151 4 -167 q 42 -115 35 -136 q 51 -68 50 -93 q 53 -22 53 -43 l 53 422 l 50 797 l 50 810 q 45 839 50 825 q 18 853 40 853 l 0 853 l 0 868 l 50 876 q 65 878 58 878 q 79 879 72 879 q 118 851 117 879 l 119 571 m 314 8 q 385 28 350 8 q 448 86 421 47 q 492 185 475 125 q 508 326 508 244 q 492 468 508 407 q 448 569 475 529 q 387 631 421 610 q 317 653 353 651 l 314 653 q 228 624 265 653 q 167 550 192 596 q 131 446 143 504 q 118 326 118 388 q 130 210 118 267 q 166 108 142 153 q 227 35 190 63 q 313 8 264 8 l 314 8 z "},"":{"ha":817,"x_min":0,"x_max":761,"o":"m 574 -76 q 545 -167 574 -128 q 472 -234 517 -207 q 370 -276 426 -261 q 257 -290 314 -290 q 176 -282 215 -290 q 104 -256 136 -274 q 50 -212 72 -239 q 19 -150 28 -186 q 17 -135 18 -143 q 17 -121 17 -128 q 35 -53 17 -85 q 93 -3 53 -21 l 99 -11 q 64 -36 75 -21 q 53 -69 53 -51 q 74 -127 53 -97 q 131 -182 94 -157 q 215 -223 167 -207 q 321 -239 264 -239 q 338 -239 329 -239 q 356 -237 347 -239 q 458 -201 418 -232 q 499 -112 499 -171 q 498 -99 499 -106 q 496 -83 497 -92 q 441 -7 485 -25 q 335 11 397 11 q 260 8 299 11 q 179 4 221 6 l 171 4 q 96 30 115 4 q 76 88 76 56 q 84 138 76 114 q 103 178 92 163 q 28 272 56 217 q 0 392 0 326 q 22 501 0 450 q 83 589 44 551 q 174 648 122 626 q 285 669 226 669 q 404 650 349 669 q 450 747 422 708 q 511 811 478 786 q 565 843 538 832 q 618 858 592 854 q 633 860 625 860 q 649 860 640 860 q 719 847 685 860 q 757 800 754 835 l 757 797 q 744 768 757 781 q 713 756 732 756 q 680 769 693 756 q 667 799 667 782 q 671 815 667 807 q 636 831 658 831 q 630 830 633 831 q 624 829 626 829 q 532 789 576 822 q 476 728 501 765 q 433 638 450 692 q 533 545 496 606 q 571 392 571 485 q 549 284 571 335 q 488 196 526 233 q 397 136 449 158 q 285 114 344 114 q 149 149 211 114 q 134 119 140 136 q 128 86 128 103 q 136 58 128 71 q 164 38 144 44 q 190 35 175 35 q 275 41 222 35 q 383 47 328 47 q 451 43 418 47 q 510 26 485 39 q 553 -8 536 14 q 574 -62 571 -29 l 574 -76 m 490 414 q 462 507 483 464 q 410 581 440 550 q 342 631 379 613 q 264 649 304 649 q 255 648 260 649 q 246 647 250 647 q 177 624 208 643 q 124 574 146 604 q 89 503 101 543 q 76 419 76 464 q 81 369 76 394 q 109 276 88 319 q 161 202 131 233 q 229 153 192 171 q 307 135 267 135 q 316 135 311 135 q 325 136 321 136 q 394 160 363 140 q 447 210 425 179 q 482 280 469 240 q 494 364 494 319 q 490 414 494 389 m 610 -187 q 669 -152 643 -182 q 694 -75 694 -122 l 694 600 q 690 630 694 615 q 663 644 686 644 l 644 644 l 644 660 l 693 668 q 708 670 701 669 q 722 671 715 671 q 761 644 761 671 l 761 -47 q 749 -112 761 -85 q 716 -159 736 -140 q 669 -189 696 -178 q 614 -203 643 -200 l 611 -203 q 600 -194 600 -203 q 610 -187 600 -187 z "},"":{"ha":549,"x_min":22,"x_max":501,"o":"m 185 608 l 185 36 q 192 18 185 25 q 211 11 200 11 l 214 11 l 214 1 l 89 1 l 89 11 l 92 11 q 110 18 103 11 q 118 36 118 25 l 118 643 l 22 643 l 22 671 l 119 671 l 121 774 q 135 821 121 800 q 172 856 149 842 q 224 876 194 869 q 285 883 254 883 q 347 876 317 883 q 402 853 378 868 q 442 817 426 839 q 460 764 458 794 l 460 758 q 452 730 460 743 q 419 714 444 717 l 414 714 q 379 729 389 714 q 368 764 369 744 q 338 845 365 821 q 279 869 311 869 q 216 845 244 869 q 188 781 188 821 l 186 671 l 421 671 q 443 663 433 668 q 453 643 453 658 l 449 92 l 449 82 q 452 39 449 58 q 471 19 456 19 l 474 19 q 489 47 485 19 q 494 51 489 51 q 501 46 501 51 l 501 44 q 479 3 494 14 q 444 -8 464 -8 l 440 -8 q 410 1 422 -8 q 392 24 399 10 q 384 53 386 38 q 382 81 382 68 l 386 590 q 384 620 386 610 q 376 636 382 631 q 360 642 371 642 q 333 643 350 643 l 186 643 l 185 608 z "},"":{"ha":822,"x_min":22,"x_max":775,"o":"m 458 35 q 466 17 458 24 q 485 10 474 10 l 488 10 l 488 0 l 361 0 l 361 10 l 365 10 q 384 17 376 10 q 392 35 392 24 q 391 223 392 129 q 390 411 390 317 q 390 506 390 460 q 392 600 390 553 l 392 643 l 185 643 l 185 35 q 192 17 185 24 q 211 10 200 10 l 214 10 l 214 0 l 88 0 l 88 10 l 92 10 q 110 17 103 10 q 118 35 118 24 l 118 643 l 22 643 l 22 671 l 118 671 l 118 736 q 134 799 118 772 q 176 844 150 826 q 235 870 203 861 q 300 879 268 879 q 371 870 339 879 q 425 842 403 861 q 484 874 449 863 q 558 885 519 885 q 621 877 590 885 q 676 854 651 869 q 717 817 701 839 q 733 764 732 794 l 733 757 q 726 729 733 742 q 693 714 718 717 l 688 714 q 653 729 663 714 q 642 764 643 744 q 612 845 639 821 q 553 869 585 869 q 490 845 518 869 q 461 781 461 821 l 460 671 l 694 671 q 717 663 707 668 q 726 643 726 658 l 722 90 l 722 81 q 726 38 722 57 q 744 18 729 18 l 747 18 q 763 46 758 18 q 768 50 763 50 q 775 43 775 50 q 753 1 768 13 q 718 -10 738 -10 l 714 -10 q 684 -1 696 -10 q 666 22 672 8 q 658 51 660 36 q 656 79 656 67 l 660 590 q 658 620 660 610 q 650 636 656 631 q 634 642 644 642 q 607 643 624 643 l 460 643 l 460 608 l 458 35 m 393 671 l 393 767 q 360 837 393 813 q 289 861 328 861 l 282 861 q 215 837 244 860 q 185 767 185 814 l 185 671 l 393 671 z "},"":{"ha":1063,"x_min":60,"x_max":1100,"o":"m 874 494 q 831 601 874 567 q 731 636 788 636 l 721 636 q 618 593 663 632 q 558 488 574 554 l 558 33 q 567 17 558 22 q 585 8 575 8 l 589 8 l 589 -1 l 463 0 l 463 8 l 465 8 q 485 17 476 8 q 492 33 492 24 l 492 494 q 449 601 492 567 q 349 636 406 636 l 339 636 q 217 571 265 631 q 176 485 185 529 l 176 33 q 185 17 176 22 q 203 8 193 8 l 206 8 l 206 0 l 81 0 l 81 8 l 83 8 q 103 17 94 8 q 110 33 110 24 l 110 600 q 106 629 110 614 q 78 642 99 642 l 60 642 l 60 657 l 110 665 q 125 667 118 667 q 139 668 132 668 q 176 640 174 668 l 176 549 q 363 668 235 657 l 371 668 q 486 639 433 668 q 556 542 539 607 l 564 558 q 743 668 619 656 l 754 668 q 844 651 800 668 q 914 597 888 632 q 940 503 940 561 l 940 -22 q 944 -83 940 -50 q 964 -142 946 -115 q 1018 -167 978 -167 l 1024 -167 q 1044 -158 1038 -165 q 1053 -143 1050 -153 q 1076 -124 1056 -124 l 1079 -124 q 1096 -131 1089 -124 q 1100 -146 1100 -139 l 1100 -149 q 1075 -169 1096 -161 q 1019 -179 1054 -179 l 1008 -179 q 908 -126 942 -175 q 874 -24 874 -79 l 874 494 l 874 494 z "},"":{"ha":139,"x_min":0,"x_max":71,"o":"m 71 347 q 67 322 71 336 q 59 283 64 308 q 50 217 54 258 q 44 111 46 175 q 49 6 46 47 q 56 -60 53 -35 q 63 -101 60 -86 q 65 -125 65 -115 l 65 -126 q 55 -142 65 -137 q 33 -147 44 -147 q 10 -142 21 -147 q 0 -126 0 -137 l 0 -124 q 3 -100 0 -114 q 10 -61 6 -86 q 18 5 14 -36 q 25 111 22 46 q 22 217 25 175 q 14 283 18 258 q 7 322 10 308 q 4 347 4 336 l 4 349 q 15 365 4 360 q 38 369 25 369 q 60 365 50 369 q 71 349 71 360 l 71 347 m 71 906 q 67 881 71 894 q 59 842 64 867 q 50 775 54 817 q 44 669 46 733 q 49 565 46 606 q 56 498 53 524 q 63 458 60 472 q 65 433 65 443 l 65 432 q 55 416 65 421 q 33 411 44 411 q 10 416 21 411 q 0 432 0 421 l 0 435 q 3 458 0 444 q 10 497 6 472 q 18 563 14 522 q 25 669 22 604 q 22 775 25 733 q 14 842 18 817 q 7 881 10 867 q 4 906 4 894 l 4 907 q 15 923 4 918 q 38 928 25 928 q 60 923 50 928 q 71 907 71 918 l 71 906 z "}}}
